{"glyphs":{"0":{"ha":852,"x_min":70,"x_max":783,"o":"m 696 633 q 761 511 740 581 q 783 364 783 441 q 756 199 783 272 q 684 78 730 126 q 571 3 636 28 q 426 -22 506 -22 q 270 7 338 -22 q 159 87 201 37 q 92 211 114 140 q 70 364 70 282 q 91 513 70 445 q 158 635 113 581 q 270 719 201 688 q 427 749 338 749 q 586 718 519 749 q 696 633 652 687 m 633 364 q 577 614 633 526 q 427 703 522 703 q 275 614 331 703 q 220 364 220 526 q 273 118 220 211 q 426 24 326 24 q 579 118 526 24 q 633 364 633 211 z "},"1":{"ha":597,"x_min":89,"x_max":549,"o":"m 549 0 l 92 0 l 92 48 q 155 54 112 50 q 214 63 198 58 q 247 85 235 70 q 258 131 258 100 l 258 607 l 89 607 l 89 664 l 126 664 q 257 691 199 664 q 340 749 315 718 l 397 749 q 393 646 395 705 q 391 541 391 587 l 391 138 q 401 96 391 115 q 431 68 412 77 q 489 55 449 61 q 549 48 529 49 l 549 0 z "},"2":{"ha":776,"x_min":75,"x_max":710,"o":"m 710 0 l 75 0 l 75 92 q 125 139 93 113 q 203 196 158 165 q 268 236 230 214 q 354 283 306 258 q 436 334 408 312 q 489 387 465 355 q 514 440 505 408 q 524 530 524 471 q 478 654 524 614 q 361 694 433 694 q 278 676 317 694 q 219 629 239 659 q 231 577 224 607 q 238 519 238 547 q 217 473 238 493 q 153 453 195 453 q 101 476 119 453 q 83 539 83 500 q 103 613 83 576 q 161 681 123 650 q 254 730 199 711 q 372 749 309 749 q 593 687 511 749 q 675 522 675 625 q 660 431 675 472 q 613 359 646 391 q 529 300 577 325 q 382 231 481 275 q 272 176 323 205 q 189 120 221 147 l 710 120 l 710 0 z "},"3":{"ha":766,"x_min":43,"x_max":696,"o":"m 330 -248 q 214 -232 267 -248 q 123 -189 161 -216 q 64 -126 85 -161 q 43 -54 43 -91 q 60 6 43 -20 q 112 33 76 33 q 174 13 153 33 q 195 -33 195 -7 q 188 -87 195 -54 q 177 -135 181 -121 q 194 -151 182 -141 q 225 -170 207 -161 q 271 -186 247 -180 q 338 -192 294 -192 q 416 -178 378 -192 q 482 -135 454 -165 q 529 -62 512 -104 q 545 47 545 -20 q 537 120 545 84 q 509 182 530 156 q 451 223 488 209 q 359 238 415 238 l 271 238 l 271 316 l 330 316 q 465 368 423 316 q 506 523 506 419 q 466 651 506 608 q 353 694 426 694 q 295 685 317 694 q 258 669 272 677 q 230 648 241 659 q 214 631 219 636 q 225 577 218 609 q 232 517 232 546 q 211 472 232 492 q 148 452 189 452 q 95 478 112 452 q 79 538 79 504 q 98 610 79 573 q 157 678 118 646 q 251 730 195 710 q 379 749 307 749 q 517 725 463 749 q 603 665 572 700 q 645 592 633 630 q 656 527 656 554 q 647 459 656 493 q 616 395 637 425 q 553 337 592 363 q 455 295 514 311 l 455 284 q 536 267 493 281 q 614 227 579 254 q 673 156 650 199 q 696 45 696 112 q 591 -166 696 -85 q 330 -248 487 -248 z "},"4":{"ha":785,"x_min":33,"x_max":735,"o":"m 735 61 l 597 61 l 597 -248 l 467 -248 l 467 61 l 33 61 l 33 165 l 509 745 l 597 745 l 597 150 l 735 150 l 735 61 m 467 150 l 467 594 l 101 150 l 467 150 z "},"5":{"ha":734,"x_min":40,"x_max":675,"o":"m 572 318 q 646 227 616 283 q 675 88 675 172 q 576 -153 675 -58 q 323 -248 476 -248 q 122 -191 204 -248 q 40 -60 40 -135 q 57 0 40 -26 q 109 26 74 26 q 171 4 150 26 q 193 -42 193 -17 q 185 -96 193 -64 q 174 -144 178 -129 q 191 -157 179 -149 q 220 -173 203 -165 q 263 -186 238 -180 q 323 -192 289 -192 q 405 -174 366 -192 q 470 -122 444 -157 q 514 -36 499 -84 q 528 87 528 13 q 475 246 528 183 q 335 309 422 309 q 234 288 281 309 q 149 220 186 268 l 104 238 l 161 728 l 647 728 l 647 607 l 216 607 l 181 319 q 261 362 212 341 q 371 384 311 384 q 474 369 420 384 q 572 318 527 353 z "},"6":{"ha":786,"x_min":70,"x_max":729,"o":"m 729 313 q 704 180 729 242 q 635 75 678 119 q 526 2 586 26 q 401 -22 466 -22 q 264 6 326 -22 q 161 85 203 34 q 94 211 117 136 q 70 378 70 286 q 214 787 70 621 q 600 986 358 953 l 612 925 l 551 914 q 324 766 404 867 q 220 523 243 666 q 335 595 278 574 q 455 616 392 616 q 649 529 568 616 q 729 313 729 442 m 582 294 q 531 471 582 404 q 396 537 481 537 q 301 518 345 537 q 217 454 258 499 q 215 417 216 446 q 214 370 214 387 q 266 122 214 212 q 402 32 317 32 q 532 102 483 32 q 582 294 582 172 z "},"7":{"ha":698,"x_min":60,"x_max":698,"o":"m 698 684 l 214 -248 l 130 -248 l 585 614 l 318 614 q 226 612 259 614 q 165 600 193 611 q 127 554 144 591 q 102 462 111 518 l 60 462 l 60 728 l 698 728 l 698 684 z "},"8":{"ha":828,"x_min":71,"x_max":758,"o":"m 758 255 q 659 59 758 141 q 401 -23 561 -23 q 161 52 251 -23 q 71 246 71 127 q 124 392 71 334 q 281 492 177 451 q 153 597 195 540 q 110 728 110 655 q 204 913 110 838 q 429 987 298 987 q 641 917 559 987 q 722 740 722 846 q 677 610 722 671 q 545 509 632 549 q 708 403 658 461 q 758 255 758 345 m 593 747 q 544 882 593 830 q 418 934 495 934 q 293 884 342 934 q 244 760 244 834 q 300 640 244 689 q 498 534 355 590 q 571 620 549 566 q 593 747 593 673 m 622 223 q 604 298 622 266 q 551 357 585 330 q 458 411 517 382 q 330 468 399 439 q 234 378 264 433 q 203 254 203 323 q 262 93 203 154 q 418 31 321 31 q 567 85 512 31 q 622 223 622 140 z "},"9":{"ha":786,"x_min":57,"x_max":716,"o":"m 716 350 q 679 128 716 232 q 572 -55 642 24 q 405 -183 503 -132 q 184 -251 306 -235 l 172 -190 l 233 -179 q 460 -37 378 -133 q 566 205 543 58 q 455 136 511 158 q 331 114 400 114 q 139 200 220 114 q 57 417 57 286 q 152 654 57 557 q 385 750 246 750 q 626 642 536 750 q 716 350 716 534 m 572 358 q 520 607 572 517 q 384 696 469 696 q 254 627 303 696 q 204 435 204 557 q 255 259 204 326 q 390 193 305 193 q 487 212 443 193 q 569 274 531 231 q 570 285 569 277 q 571 308 571 293 q 572 331 571 317 q 572 358 572 345 z "}," ":{"ha":335,"x_min":0,"x_max":0,"o":""},"!":{"ha":460,"x_min":140,"x_max":326,"o":"m 320 896 q 298 668 320 862 q 258 293 275 474 l 205 293 q 169 668 191 474 q 146 896 146 862 q 171 961 146 935 q 233 987 195 987 q 296 961 271 987 q 320 896 320 935 m 326 78 q 299 13 326 40 q 233 -14 271 -14 q 168 13 195 -14 q 140 78 140 40 q 168 143 140 116 q 233 171 195 171 q 299 143 271 171 q 326 78 326 116 z "},"\"":{"ha":572,"x_min":80,"x_max":492,"o":"m 492 961 q 474 857 492 934 q 435 656 456 779 l 393 656 q 358 847 377 756 q 338 961 338 938 q 357 1015 338 992 q 415 1037 376 1037 q 472 1015 452 1037 q 492 961 492 992 m 233 961 q 215 857 233 934 q 176 656 197 779 l 134 656 q 98 853 116 771 q 80 961 80 935 q 99 1015 80 992 q 157 1037 118 1037 q 213 1015 193 1037 q 233 961 233 992 z "},"#":{"ha":893,"x_min":104,"x_max":789,"o":"m 789 505 l 620 505 l 571 335 l 748 335 l 748 252 l 547 252 l 475 0 l 399 0 l 472 252 l 325 252 l 252 0 l 177 0 l 250 252 l 104 252 l 104 335 l 273 335 l 323 505 l 145 505 l 145 589 l 346 589 l 417 834 l 492 834 l 421 589 l 568 589 l 640 834 l 715 834 l 644 589 l 789 589 l 789 505 m 547 507 l 397 507 l 347 334 l 496 334 l 547 507 z "},"$":{"ha":847,"x_min":105,"x_max":748,"o":"m 690 393 q 733 332 718 367 q 748 248 748 296 q 667 69 748 141 q 462 -12 585 -3 l 462 -203 l 406 -203 l 406 -13 q 189 51 272 -10 q 105 203 105 113 q 123 265 105 243 q 172 286 140 286 q 229 268 208 286 q 249 226 249 250 q 236 171 249 208 q 220 120 223 134 q 288 63 239 85 q 406 41 336 41 l 406 384 q 354 403 376 395 q 296 426 332 411 q 174 510 218 458 q 130 644 130 562 q 212 809 130 742 q 406 878 293 876 l 406 1034 l 462 1034 l 462 878 q 581 859 529 877 q 665 813 632 840 q 714 753 697 786 q 730 690 730 721 q 716 638 730 660 q 669 617 702 617 q 614 634 636 617 q 592 672 592 651 q 597 722 592 697 q 607 766 603 747 q 593 780 605 770 q 566 800 582 791 q 522 817 549 809 q 462 824 494 824 l 462 509 q 506 493 488 500 q 551 475 524 486 q 628 440 593 459 q 690 393 663 420 m 406 526 l 406 824 q 296 787 340 824 q 251 695 251 749 q 279 601 251 636 q 363 543 307 566 q 383 534 371 539 q 406 526 395 530 m 621 193 q 592 289 621 248 q 494 357 563 330 q 477 363 485 361 q 462 369 469 366 l 462 41 q 581 86 541 46 q 621 193 621 127 z "},"%":{"ha":1135,"x_min":74,"x_max":1061,"o":"m 534 734 q 470 549 534 615 q 304 484 406 484 q 138 549 202 484 q 74 734 74 615 q 137 916 74 847 q 304 985 199 985 q 471 916 408 985 q 534 734 534 847 m 420 734 q 391 879 420 823 q 304 935 361 935 q 217 879 246 935 q 189 734 189 823 q 218 589 189 644 q 304 534 247 534 q 390 589 361 534 q 420 734 420 644 m 1061 229 q 997 44 1061 110 q 831 -22 932 -22 q 665 44 729 -22 q 601 229 601 110 q 664 411 601 342 q 831 480 726 480 q 998 411 935 480 q 1061 229 1061 342 m 947 229 q 918 374 947 317 q 831 430 888 430 q 744 374 773 430 q 715 229 715 317 q 745 84 715 139 q 831 28 774 28 q 917 84 888 28 q 947 229 947 139 m 1017 966 l 217 0 l 123 0 l 921 966 l 1017 966 z "},"&":{"ha":987,"x_min":51,"x_max":986,"o":"m 986 562 q 905 546 946 558 q 843 506 865 533 q 814 458 829 490 q 779 382 800 426 q 738 297 759 339 q 684 213 717 255 q 750 142 711 180 q 817 87 789 104 q 894 60 844 71 q 976 48 944 50 l 976 0 l 696 0 l 595 115 q 544 65 573 91 q 484 20 515 39 q 413 -12 448 -1 q 329 -24 377 -24 q 229 -9 279 -24 q 139 37 180 5 q 75 117 100 68 q 51 234 51 166 q 95 386 51 318 q 261 531 140 454 q 176 656 206 604 q 145 775 145 709 q 164 861 145 822 q 216 929 182 900 q 292 970 248 956 q 383 985 337 985 q 478 968 437 985 q 545 923 519 951 q 582 863 569 897 q 594 795 594 829 q 544 655 594 714 q 404 550 493 597 q 529 393 468 464 q 646 254 590 322 q 717 390 692 326 q 742 503 742 454 q 710 537 742 525 q 623 562 679 550 l 623 610 l 986 610 l 986 562 m 507 782 q 476 888 507 851 q 389 925 446 925 q 336 912 357 925 q 300 880 315 899 q 281 839 287 861 q 275 800 275 817 q 299 706 275 753 q 375 590 323 658 q 476 675 445 629 q 507 782 507 721 m 559 155 q 417 330 496 235 q 291 491 338 425 q 213 402 236 453 q 191 285 191 351 q 243 132 191 193 q 384 71 296 71 q 481 93 433 71 q 559 155 529 114 z "},"'":{"ha":299,"x_min":73,"x_max":226,"o":"m 226 961 q 208 857 226 934 q 169 656 191 779 l 127 656 q 91 853 109 771 q 73 961 73 935 q 92 1015 73 992 q 150 1037 111 1037 q 206 1015 186 1037 q 226 961 226 992 z "},"(":{"ha":521,"x_min":79,"x_max":475,"o":"m 475 -222 q 185 -36 290 -199 q 79 404 79 127 q 185 850 79 686 q 475 1039 290 1015 l 475 983 q 277 817 345 959 q 210 403 210 674 q 276 1 210 144 q 475 -167 342 -142 l 475 -222 z "},")":{"ha":521,"x_min":45,"x_max":441,"o":"m 441 404 q 336 -36 441 127 q 45 -222 231 -199 l 45 -167 q 245 1 178 -142 q 311 403 311 144 q 243 817 311 674 q 45 983 176 959 l 45 1039 q 336 850 231 1015 q 441 404 441 686 z "},"*":{"ha":656,"x_min":58,"x_max":598,"o":"m 598 745 q 584 709 598 720 q 547 697 570 697 q 476 712 532 697 q 349 734 419 726 q 406 664 379 692 q 450 617 432 636 q 478 583 468 597 q 488 551 488 568 q 472 519 488 532 q 437 505 456 505 q 414 512 425 505 q 396 532 404 519 q 375 595 385 552 q 328 723 364 639 q 283 595 296 642 q 260 532 270 548 q 242 512 252 519 q 219 505 233 505 q 184 518 200 505 q 168 551 168 531 q 178 581 168 567 q 207 617 187 595 q 252 665 224 635 q 308 734 280 696 q 184 712 241 728 q 109 697 127 697 q 73 708 87 697 q 58 745 58 720 q 73 781 58 768 q 109 793 87 793 q 181 779 130 793 q 308 758 232 765 q 252 826 281 793 q 207 875 223 858 q 178 910 188 895 q 168 941 168 924 q 184 973 168 960 q 219 987 201 987 q 242 980 231 987 q 260 960 252 973 q 286 887 270 943 q 328 769 301 830 q 373 890 359 838 q 396 960 387 942 q 414 980 404 972 q 437 987 425 987 q 472 974 456 987 q 488 941 488 961 q 451 876 488 913 q 349 758 413 839 q 476 780 422 766 q 547 793 530 793 q 584 781 570 793 q 598 745 598 769 z "},"+":{"ha":893,"x_min":98,"x_max":795,"o":"m 795 337 l 490 337 l 490 31 l 404 31 l 404 337 l 98 337 l 98 422 l 404 422 l 404 728 l 490 728 l 490 422 l 795 422 l 795 337 z "},",":{"ha":374,"x_min":66,"x_max":291,"o":"m 291 24 q 269 -68 291 -25 q 218 -143 247 -112 q 157 -201 189 -176 q 97 -240 124 -226 l 66 -195 q 124 -154 98 -174 q 166 -113 150 -134 q 201 -62 186 -90 q 219 1 215 -34 l 184 1 q 114 25 139 1 q 88 89 88 49 q 111 144 88 117 q 174 171 134 171 q 262 132 233 171 q 291 24 291 93 z "},"-":{"ha":519,"x_min":58,"x_max":462,"o":"m 462 315 l 58 315 l 58 422 l 462 422 l 462 315 z "},".":{"ha":374,"x_min":96,"x_max":281,"o":"m 281 78 q 254 13 281 40 q 189 -14 227 -14 q 123 13 151 -14 q 96 78 96 40 q 123 143 96 116 q 189 171 151 171 q 254 143 227 171 q 281 78 281 116 z "},"/":{"ha":651,"x_min":33,"x_max":590,"o":"m 590 1033 l 121 -288 l 33 -288 l 500 1033 l 590 1033 z "},":":{"ha":434,"x_min":124,"x_max":310,"o":"m 310 578 q 282 513 310 541 q 217 486 255 486 q 152 513 179 486 q 124 578 124 541 q 151 644 124 616 q 217 671 178 671 q 283 644 256 671 q 310 578 310 616 m 310 78 q 282 13 310 40 q 217 -14 255 -14 q 152 13 179 -14 q 124 78 124 40 q 152 143 124 116 q 217 171 179 171 q 282 143 255 171 q 310 78 310 116 z "},";":{"ha":434,"x_min":96,"x_max":321,"o":"m 310 578 q 282 513 310 541 q 217 486 255 486 q 152 513 179 486 q 124 578 124 541 q 151 644 124 616 q 217 671 178 671 q 283 644 256 671 q 310 578 310 616 m 321 24 q 299 -68 321 -25 q 249 -143 277 -111 q 187 -201 220 -176 q 127 -240 155 -226 l 96 -195 q 154 -154 129 -174 q 197 -113 180 -133 q 231 -62 217 -90 q 250 1 245 -34 l 215 1 q 144 25 170 1 q 119 89 119 49 q 142 144 119 117 q 205 171 165 171 q 292 132 263 171 q 321 24 321 93 z "},"<":{"ha":893,"x_min":131,"x_max":758,"o":"m 758 15 l 131 341 l 131 418 l 758 744 l 758 651 l 237 380 l 758 108 l 758 15 z "},"=":{"ha":893,"x_min":104,"x_max":789,"o":"m 789 463 l 104 463 l 104 548 l 789 548 l 789 463 m 789 211 l 104 211 l 104 296 l 789 296 l 789 211 z "},">":{"ha":893,"x_min":135,"x_max":762,"o":"m 762 341 l 135 15 l 135 108 l 656 380 l 135 651 l 135 744 l 762 418 l 762 341 z "},"?":{"ha":665,"x_min":72,"x_max":596,"o":"m 523 901 q 578 813 560 862 q 596 706 596 764 q 516 501 596 581 q 296 406 436 422 l 296 256 l 234 256 l 234 513 q 319 527 277 516 q 394 561 361 537 q 448 622 429 586 q 467 721 467 657 q 424 877 467 823 q 298 931 381 931 q 244 922 267 931 q 210 905 220 913 q 219 858 213 888 q 224 811 224 827 q 203 765 224 786 q 140 745 181 745 q 87 770 103 745 q 72 828 72 795 q 87 881 72 855 q 134 932 102 907 q 207 969 161 954 q 304 985 254 985 q 431 962 376 985 q 523 901 487 939 m 360 78 q 333 13 360 40 q 267 -14 305 -14 q 202 13 229 -14 q 174 78 174 40 q 202 143 174 116 q 267 171 229 171 q 333 143 305 171 q 360 78 360 116 z "},"@":{"ha":1290,"x_min":114,"x_max":1179,"o":"m 1038 -81 q 877 -176 970 -140 q 669 -212 783 -212 q 467 -179 566 -212 q 289 -79 368 -146 q 162 88 210 -12 q 114 323 114 188 q 157 549 114 439 q 281 743 201 658 q 474 878 359 827 q 725 929 589 929 q 928 891 842 929 q 1069 792 1015 854 q 1152 652 1124 731 q 1179 486 1179 572 q 1088 207 1179 321 q 859 92 998 92 q 761 121 801 92 q 716 202 721 150 l 711 203 q 637 124 679 154 q 553 95 595 95 q 496 104 525 95 q 445 134 467 113 q 409 193 422 157 q 396 281 396 229 q 419 392 396 331 q 480 509 441 454 q 580 607 519 566 q 713 648 642 648 q 780 627 751 648 q 817 564 810 606 l 821 564 l 850 640 l 951 640 l 823 275 q 813 236 817 258 q 809 201 809 214 q 827 151 809 167 q 872 135 844 135 q 1048 234 977 135 q 1118 494 1118 332 q 1093 642 1118 574 q 1017 762 1068 710 q 892 844 967 814 q 720 873 817 873 q 540 838 627 873 q 380 732 452 802 q 267 563 311 664 q 224 334 224 462 q 258 118 224 212 q 353 -38 292 25 q 496 -130 414 -99 q 673 -160 578 -160 q 865 -131 781 -160 q 1017 -46 949 -102 l 1038 -81 m 802 503 q 771 583 792 558 q 709 608 750 608 q 630 573 666 608 q 568 490 593 538 q 527 381 542 440 q 513 271 513 321 q 527 183 513 214 q 572 152 541 152 q 655 184 618 152 q 724 274 692 216 l 802 503 z "},"A":{"ha":932,"x_min":-28,"x_max":964,"o":"m 964 0 l 563 0 l 563 48 q 651 62 616 52 q 686 87 686 72 q 684 102 686 93 q 680 117 683 111 l 600 333 l 263 333 q 232 250 244 286 q 211 185 220 215 q 199 138 202 156 q 195 108 195 119 q 238 66 195 81 q 334 48 281 51 l 334 0 l -28 0 l -28 48 q 16 56 -10 50 q 60 73 43 62 q 102 112 87 92 q 131 167 117 132 q 291 574 203 348 q 447 976 378 800 l 501 976 l 822 146 q 845 103 832 119 q 881 71 858 87 q 922 55 897 62 q 964 48 947 49 l 964 0 m 576 393 l 430 766 l 287 393 l 576 393 z "},"B":{"ha":908,"x_min":64,"x_max":846,"o":"m 749 448 q 819 374 791 420 q 846 262 846 328 q 817 145 846 195 q 741 64 788 96 q 638 16 696 33 q 520 0 581 0 l 64 0 l 64 48 q 112 54 81 50 q 157 64 143 58 q 186 90 178 74 q 195 131 195 106 l 195 823 q 188 863 195 846 q 157 892 180 881 q 111 907 136 902 q 69 914 86 913 l 69 962 l 513 962 q 612 952 565 962 q 702 916 659 942 q 768 852 742 892 q 793 753 793 811 q 775 662 793 702 q 724 594 757 623 q 652 548 692 567 q 565 519 612 530 l 565 513 q 657 493 606 509 q 749 448 709 477 m 585 593 q 620 657 610 623 q 630 739 630 692 q 587 864 630 819 q 450 909 543 909 q 395 908 428 909 q 340 906 362 907 l 340 536 l 426 536 q 521 551 481 536 q 585 593 561 565 m 679 286 q 622 427 679 372 q 458 481 564 481 q 385 480 414 481 q 340 479 355 479 l 340 140 q 374 75 340 97 q 471 54 409 54 q 625 113 572 54 q 679 286 679 172 z "},"C":{"ha":892,"x_min":53,"x_max":874,"o":"m 490 -22 q 325 12 404 -22 q 185 109 246 45 q 89 265 125 173 q 53 472 53 357 q 88 681 53 587 q 186 843 123 775 q 332 947 248 910 q 511 983 416 983 q 640 966 583 983 q 750 916 698 948 l 778 962 l 832 962 l 838 619 l 783 619 q 750 728 772 669 q 699 827 728 787 q 622 900 667 873 q 519 926 577 926 q 397 897 454 926 q 299 810 340 867 q 237 671 260 755 q 215 481 215 586 q 238 312 215 389 q 305 177 262 235 q 408 87 349 119 q 541 54 467 54 q 642 72 595 54 q 722 117 688 89 q 781 185 755 147 q 823 268 807 223 l 874 243 q 720 39 816 100 q 490 -22 623 -22 z "},"D":{"ha":1040,"x_min":64,"x_max":988,"o":"m 988 475 q 942 262 988 353 q 822 115 896 172 q 654 28 747 57 q 463 0 562 0 l 64 0 l 64 48 q 115 52 83 48 q 157 60 146 56 q 186 86 177 69 q 195 128 195 104 l 195 823 q 188 864 195 846 q 157 893 180 882 q 111 908 136 903 q 69 914 87 913 l 69 962 l 490 962 q 661 936 576 962 q 807 863 745 909 q 940 705 892 803 q 988 475 988 608 m 822 476 q 796 651 822 573 q 721 788 770 730 q 606 876 674 844 q 454 907 538 907 q 392 906 427 907 q 340 905 357 905 l 340 165 q 376 79 340 103 q 486 56 412 56 q 637 86 572 56 q 741 171 701 117 q 803 303 783 228 q 822 476 822 378 z "},"E":{"ha":907,"x_min":58,"x_max":876,"o":"m 876 283 l 857 0 l 58 0 l 58 48 q 113 54 79 50 q 157 63 146 58 q 187 90 178 73 q 195 131 195 106 l 195 823 q 188 862 195 845 q 157 890 180 880 q 107 906 138 899 q 58 914 77 913 l 58 962 l 803 962 l 803 730 l 752 730 q 693 840 739 782 q 608 903 648 898 q 557 907 587 906 q 491 909 528 909 l 340 909 l 340 526 l 448 526 q 525 536 500 526 q 567 569 549 546 q 592 622 582 589 q 606 684 603 654 l 657 684 l 657 307 l 606 307 q 592 376 604 340 q 567 429 580 412 q 519 463 546 455 q 448 471 492 471 l 340 471 l 340 182 q 346 114 340 139 q 370 76 352 89 q 418 59 387 63 q 505 56 448 56 q 564 56 527 56 q 625 58 600 56 q 679 68 651 61 q 718 87 706 75 q 783 186 749 120 q 827 283 817 252 l 876 283 z "},"F":{"ha":832,"x_min":58,"x_max":813,"o":"m 813 722 l 762 722 q 703 836 748 775 q 616 903 658 897 q 567 907 595 906 q 501 909 538 909 l 340 909 l 340 522 l 450 522 q 528 533 500 522 q 576 565 556 543 q 601 611 589 580 q 615 679 612 643 l 667 679 l 667 301 l 615 301 q 601 369 613 331 q 576 424 589 407 q 525 458 555 449 q 450 467 494 467 l 340 467 l 340 136 q 349 96 340 113 q 380 67 357 78 q 424 56 390 62 q 475 48 458 49 l 475 0 l 58 0 l 58 48 q 113 53 79 50 q 157 60 146 56 q 186 86 177 69 q 195 128 195 104 l 195 823 q 188 862 195 845 q 157 890 180 880 q 107 906 138 899 q 58 914 77 913 l 58 962 l 813 962 l 813 722 z "},"G":{"ha":1007,"x_min":53,"x_max":998,"o":"m 998 385 q 954 378 981 382 q 909 366 926 374 q 881 337 889 355 q 872 293 872 318 l 872 218 q 873 109 872 137 q 876 62 874 80 q 696 -1 785 21 q 520 -22 606 -22 q 342 12 428 -22 q 193 111 257 47 q 91 267 129 175 q 53 473 53 359 q 89 677 53 583 q 192 840 125 771 q 346 946 256 908 q 536 983 435 983 q 678 964 618 983 q 785 916 739 944 l 812 962 l 867 962 l 873 626 l 817 626 q 782 735 803 682 q 728 832 761 789 q 647 900 694 875 q 532 926 599 926 q 403 896 460 926 q 304 808 346 867 q 240 668 262 752 q 218 480 218 584 q 240 308 218 389 q 304 168 262 227 q 409 73 346 107 q 552 38 472 38 q 661 56 612 38 q 730 95 710 75 q 736 166 736 130 q 736 227 736 202 l 736 280 q 729 331 736 309 q 696 363 721 353 q 636 378 674 373 q 576 385 597 383 l 576 434 l 998 434 l 998 385 z "},"H":{"ha":1132,"x_min":66,"x_max":1063,"o":"m 1063 0 l 663 0 l 663 48 q 710 52 680 50 q 753 60 741 55 q 783 85 773 68 q 792 128 792 102 l 792 471 l 340 471 l 340 136 q 348 96 340 112 q 378 67 355 79 q 419 55 390 61 q 466 48 449 49 l 466 0 l 66 0 l 66 48 q 114 52 83 50 q 156 60 144 55 q 186 85 176 68 q 195 128 195 102 l 195 823 q 186 862 195 844 q 156 890 178 880 q 112 906 138 899 q 66 914 85 913 l 66 962 l 466 962 l 466 914 q 419 908 447 913 q 378 898 392 903 q 348 871 355 890 q 340 829 340 852 l 340 531 l 792 531 l 792 823 q 783 862 792 844 q 753 890 774 880 q 708 906 734 899 q 663 914 682 913 l 663 962 l 1063 962 l 1063 914 q 1016 908 1044 913 q 975 898 989 903 q 944 871 952 890 q 937 829 937 852 l 937 136 q 944 96 937 112 q 975 67 952 79 q 1016 55 987 61 q 1063 48 1046 49 l 1063 0 z "},"I":{"ha":541,"x_min":54,"x_max":487,"o":"m 487 0 l 54 0 l 54 48 q 106 52 72 50 q 155 60 141 55 q 188 84 178 69 q 198 127 198 100 l 198 824 q 191 864 198 848 q 155 890 183 880 q 104 906 135 899 q 54 914 73 913 l 54 962 l 487 962 l 487 914 q 437 909 466 913 q 386 898 408 905 q 351 871 360 890 q 342 831 342 853 l 342 134 q 352 95 342 112 q 386 67 362 77 q 432 55 400 62 q 487 48 465 49 l 487 0 z "},"J":{"ha":719,"x_min":7,"x_max":682,"o":"m 682 914 q 635 909 663 913 q 587 898 607 905 q 556 871 564 890 q 548 829 548 852 l 548 259 q 530 164 548 214 q 477 75 512 114 q 382 3 437 28 q 256 -23 327 -23 q 76 39 145 -23 q 7 206 7 101 q 31 288 7 252 q 100 323 55 323 q 166 301 141 323 q 191 241 191 278 q 182 197 191 219 q 162 159 173 176 q 139 122 152 143 q 121 84 126 101 q 165 45 135 62 q 246 28 195 28 q 327 51 296 28 q 374 111 359 73 q 396 198 389 146 q 402 313 402 250 l 402 823 q 394 862 402 846 q 362 890 387 878 q 310 907 341 901 q 258 914 278 913 l 258 962 l 682 962 l 682 914 z "},"K":{"ha":964,"x_min":69,"x_max":1000,"o":"m 1000 0 l 730 0 q 557 240 652 121 q 357 471 462 359 l 340 471 l 340 136 q 348 96 340 113 q 379 67 357 78 q 419 56 390 62 q 469 48 449 49 l 469 0 l 69 0 l 69 48 q 115 52 85 50 q 157 60 144 55 q 186 86 177 69 q 195 128 195 104 l 195 823 q 188 863 195 846 q 157 890 180 880 q 113 906 138 899 q 69 914 88 913 l 69 962 l 469 962 l 469 914 q 421 908 450 913 q 379 898 393 903 q 348 871 356 890 q 340 829 340 852 l 340 497 l 353 497 q 473 605 414 549 q 581 716 532 661 q 659 815 634 778 q 684 880 684 852 q 671 897 684 890 q 642 907 659 903 q 608 912 623 911 q 584 914 593 913 l 584 962 l 945 962 l 945 914 q 936 913 943 914 q 920 912 929 913 q 901 909 911 911 q 877 905 892 907 q 828 887 853 899 q 786 858 802 876 q 640 694 716 779 q 490 539 564 609 q 660 338 593 422 q 804 159 728 254 q 862 100 833 122 q 912 67 891 78 q 956 54 930 58 q 1000 48 983 49 l 1000 0 z "},"L":{"ha":838,"x_min":66,"x_max":839,"o":"m 839 286 l 819 0 l 66 0 l 66 48 q 114 53 83 50 q 157 62 144 56 q 186 87 177 71 q 195 131 195 104 l 195 820 q 188 861 195 843 q 157 889 180 878 q 113 905 141 897 q 66 914 85 913 l 66 962 l 473 962 l 473 914 q 424 907 454 913 q 380 897 393 901 q 348 869 357 888 q 340 827 340 849 l 340 180 q 344 111 340 136 q 365 73 349 86 q 411 57 380 60 q 498 53 442 53 q 550 54 523 53 q 602 60 577 56 q 645 71 625 64 q 675 89 665 78 q 740 183 703 120 q 791 286 777 247 l 839 286 z "},"M":{"ha":1288,"x_min":33,"x_max":1225,"o":"m 1225 0 l 800 0 l 800 48 q 859 53 823 49 q 909 64 895 57 q 940 94 930 77 q 949 136 949 111 l 949 836 l 939 836 l 611 16 l 577 16 l 264 852 l 256 852 l 256 278 q 266 151 256 195 q 298 89 277 108 q 360 62 313 75 q 421 48 407 49 l 421 0 l 33 0 l 33 48 q 97 58 63 51 q 149 81 130 66 q 181 139 172 100 q 190 271 190 178 l 190 763 q 180 833 190 806 q 151 877 170 860 q 99 904 130 895 q 39 914 68 913 l 39 962 l 367 962 l 642 241 l 878 844 q 900 914 890 878 q 909 962 909 950 l 1223 962 l 1223 914 q 1175 908 1204 913 q 1132 898 1145 903 q 1101 871 1109 890 q 1093 829 1093 852 l 1093 136 q 1101 96 1093 112 q 1132 67 1109 79 q 1175 55 1144 60 q 1225 48 1206 49 l 1225 0 z "},"N":{"ha":1065,"x_min":16,"x_max":1054,"o":"m 1054 914 q 996 903 1035 913 q 939 882 956 893 q 906 817 915 865 q 898 695 898 769 l 898 -9 l 839 -9 l 256 778 l 256 281 q 266 153 256 198 q 298 90 277 109 q 363 62 314 75 q 427 48 412 49 l 427 0 l 33 0 l 33 48 q 94 61 51 50 q 149 83 138 73 q 181 141 172 102 q 190 274 190 180 l 190 748 q 179 810 190 779 q 150 859 168 842 q 84 897 125 881 q 16 914 42 913 l 16 962 l 291 962 l 832 229 l 832 686 q 821 815 832 770 q 790 876 810 861 q 728 901 771 888 q 663 914 685 913 l 663 962 l 1054 962 l 1054 914 z "},"O":{"ha":1034,"x_min":54,"x_max":979,"o":"m 844 848 q 943 688 907 782 q 979 480 979 594 q 943 272 979 366 q 841 113 906 178 q 694 12 778 47 q 517 -23 611 -23 q 331 15 416 -23 q 185 119 246 52 q 89 279 124 185 q 54 480 54 373 q 91 689 54 597 q 192 848 127 781 q 340 950 256 915 q 517 985 425 985 q 697 949 612 985 q 844 848 782 913 m 743 166 q 798 306 781 228 q 815 480 815 384 q 796 662 815 579 q 739 803 777 745 q 646 893 702 861 q 517 925 589 925 q 378 888 435 925 q 286 788 321 850 q 235 648 252 728 q 218 480 218 568 q 236 304 218 382 q 292 164 254 225 q 384 71 328 104 q 517 37 439 37 q 648 71 589 37 q 743 166 706 105 z "},"P":{"ha":847,"x_min":62,"x_max":803,"o":"m 803 725 q 773 592 803 650 q 692 496 744 534 q 578 440 640 458 q 448 422 517 422 l 340 422 l 340 131 q 348 89 340 107 q 380 62 355 71 q 423 53 392 57 q 479 48 454 49 l 479 0 l 66 0 l 66 48 q 114 53 83 50 q 157 62 144 56 q 186 87 177 71 q 195 131 195 104 l 195 825 q 189 868 195 849 q 157 897 182 887 q 105 909 131 905 q 62 914 80 913 l 62 962 l 501 962 q 719 898 635 962 q 803 725 803 833 m 597 561 q 627 628 620 593 q 635 691 635 663 q 626 770 635 730 q 594 840 616 810 q 532 889 570 871 q 435 907 493 907 l 340 907 l 340 481 l 409 481 q 528 504 482 481 q 597 561 574 527 z "},"Q":{"ha":1034,"x_min":54,"x_max":979,"o":"m 844 848 q 943 688 907 782 q 979 480 979 594 q 956 312 979 389 q 888 174 932 235 q 790 72 847 115 q 663 3 733 28 q 716 -131 664 -71 q 829 -190 768 -190 q 913 -186 884 -190 q 962 -179 943 -182 l 962 -233 q 885 -251 931 -241 q 758 -261 840 -261 q 669 -248 713 -261 q 591 -205 626 -235 q 532 -132 555 -176 q 502 -22 509 -87 q 322 20 405 -18 q 180 125 239 58 q 87 282 121 192 q 54 480 54 373 q 91 689 54 597 q 192 848 127 781 q 340 950 256 915 q 517 985 425 985 q 697 949 612 985 q 844 848 782 913 m 743 166 q 798 306 781 228 q 815 480 815 384 q 796 662 815 579 q 739 803 777 745 q 646 893 702 861 q 517 925 589 925 q 378 888 435 925 q 286 788 321 850 q 235 648 252 728 q 218 480 218 568 q 236 304 218 382 q 292 164 254 225 q 384 71 328 104 q 517 37 439 37 q 648 71 589 37 q 743 166 706 105 z "},"R":{"ha":975,"x_min":66,"x_max":1004,"o":"m 1004 0 l 745 0 q 589 233 659 135 q 438 436 519 332 l 340 436 l 340 131 q 347 89 340 107 q 379 62 355 71 q 422 53 391 57 q 473 48 452 49 l 473 0 l 66 0 l 66 48 q 114 53 83 50 q 157 62 144 56 q 186 87 177 71 q 195 131 195 104 l 195 827 q 189 869 195 850 q 157 897 182 887 q 113 908 140 903 q 66 914 85 913 l 66 962 l 511 962 q 625 950 572 962 q 722 909 679 937 q 789 839 764 882 q 814 733 814 795 q 798 635 814 677 q 747 561 781 592 q 674 510 717 532 q 580 474 631 489 q 698 315 651 380 q 814 159 745 251 q 868 99 844 118 q 916 67 892 79 q 960 54 933 58 q 1004 48 986 49 l 1004 0 m 647 718 q 597 856 647 805 q 455 907 547 907 l 340 907 l 340 494 l 429 494 q 585 554 522 494 q 647 718 647 614 z "},"S":{"ha":779,"x_min":64,"x_max":725,"o":"m 665 441 q 710 367 696 408 q 725 273 725 327 q 631 63 725 146 q 397 -20 536 -20 q 268 0 332 -20 q 157 49 203 20 l 127 -1 l 73 -1 l 64 329 l 119 329 q 158 219 136 268 q 218 127 181 170 q 301 63 254 87 q 410 39 348 39 q 492 52 457 39 q 549 86 527 64 q 581 139 570 109 q 591 208 591 169 q 559 316 591 266 q 462 391 526 366 q 361 430 418 409 q 262 471 304 452 q 136 567 181 507 q 91 722 91 626 q 113 824 91 777 q 177 909 136 871 q 270 964 216 944 q 382 984 323 984 q 501 964 448 984 q 597 916 553 943 l 625 962 l 679 962 l 684 643 l 629 643 q 596 748 614 698 q 547 839 577 798 q 476 902 518 878 q 373 925 434 925 q 263 884 309 925 q 218 783 218 842 q 247 679 218 720 q 332 612 276 638 q 429 571 381 588 q 522 534 477 553 q 600 494 562 516 q 665 441 637 471 z "},"T":{"ha":859,"x_min":10,"x_max":848,"o":"m 848 701 l 802 701 q 780 759 795 726 q 744 823 764 793 q 700 877 724 854 q 653 904 675 901 q 600 908 632 907 q 541 909 568 909 l 502 909 l 502 140 q 511 99 502 117 q 545 70 521 80 q 596 57 557 65 q 656 48 635 49 l 656 0 l 202 0 l 202 48 q 260 54 221 50 q 314 64 299 58 q 347 89 336 73 q 357 134 357 106 l 357 909 l 318 909 q 266 908 297 909 q 206 904 235 907 q 160 877 184 901 q 115 823 136 853 q 79 758 95 792 q 58 701 64 724 l 10 701 l 10 962 l 848 962 l 848 701 z "},"U":{"ha":1050,"x_min":50,"x_max":1040,"o":"m 1040 914 q 984 906 1021 913 q 924 884 947 899 q 892 819 901 868 q 884 700 884 770 l 884 281 q 850 142 884 201 q 763 45 817 83 q 650 -7 709 9 q 536 -23 591 -23 q 382 0 450 -23 q 268 61 314 22 q 199 150 222 100 q 176 254 176 199 l 176 823 q 169 862 176 846 q 137 892 161 878 q 94 907 120 901 q 50 914 67 913 l 50 962 l 451 962 l 451 914 q 403 908 432 913 q 361 898 374 903 q 330 871 338 890 q 322 829 322 852 l 322 298 q 331 217 322 259 q 364 138 339 174 q 436 77 391 100 q 561 53 481 53 q 686 77 635 53 q 766 139 736 100 q 805 216 793 176 q 817 296 817 256 l 817 691 q 806 814 817 766 q 774 877 795 862 q 709 903 750 894 q 646 914 668 913 l 646 962 l 1040 962 l 1040 914 z "},"V":{"ha":926,"x_min":-26,"x_max":954,"o":"m 954 914 q 911 906 937 913 q 870 889 886 899 q 833 852 847 875 q 806 800 819 830 q 669 464 760 692 q 482 -12 578 235 l 426 -12 q 237 494 328 250 q 114 823 146 737 q 92 860 106 844 q 56 890 79 876 q 16 907 38 901 q -26 914 -7 913 l -26 962 l 372 962 l 372 914 q 287 904 321 911 q 252 878 252 897 q 254 860 252 870 q 259 844 257 850 q 340 627 284 777 q 500 199 397 477 q 619 496 552 325 q 709 730 686 667 q 735 816 732 792 q 739 854 739 840 q 725 881 739 870 q 688 899 711 891 q 643 909 666 905 q 596 914 620 912 l 596 962 l 954 962 l 954 914 z "},"W":{"ha":1355,"x_min":-3,"x_max":1375,"o":"m 1375 914 q 1336 906 1358 913 q 1295 888 1314 899 q 1256 853 1271 873 q 1231 800 1242 834 q 1119 434 1183 643 q 981 -12 1055 224 l 919 -12 l 676 728 l 423 -12 l 363 -12 q 224 480 296 225 q 128 823 153 736 q 110 860 122 844 q 78 890 98 876 q 38 907 61 901 q -3 914 16 913 l -3 962 l 390 962 l 390 914 q 302 904 338 911 q 266 879 266 897 q 268 861 266 872 q 271 843 270 850 q 327 646 287 783 q 444 235 366 509 l 684 949 l 751 949 l 993 219 q 1077 513 1042 387 q 1135 728 1112 639 q 1156 815 1152 791 q 1160 854 1160 838 q 1128 893 1160 878 q 1026 914 1097 909 l 1026 962 l 1375 962 l 1375 914 z "},"X":{"ha":987,"x_min":9,"x_max":988,"o":"m 988 0 l 538 0 l 538 48 q 628 59 593 50 q 662 87 662 68 q 646 129 662 97 q 606 200 631 161 q 542 302 579 243 q 468 414 505 361 q 332 225 408 336 q 256 94 256 114 q 277 61 256 72 q 368 48 298 51 l 368 0 l 9 0 l 9 48 q 54 53 26 50 q 99 66 81 57 q 156 107 134 85 q 199 159 177 129 q 310 308 242 218 q 430 470 378 397 q 330 616 391 528 q 199 806 269 705 q 154 866 170 848 q 109 897 137 884 q 64 908 93 904 q 18 914 35 913 l 18 962 l 464 962 l 464 914 q 382 904 425 913 q 340 878 340 896 q 357 833 340 865 q 397 764 374 801 q 450 680 420 726 q 521 574 479 634 q 653 761 597 677 q 709 869 709 844 q 683 901 709 891 q 597 914 658 911 l 597 962 l 956 962 l 956 914 q 912 909 939 913 q 866 897 884 905 q 813 860 831 880 q 767 803 796 840 q 667 672 713 733 q 557 522 621 610 q 678 347 611 445 q 806 159 745 248 q 854 101 827 128 q 898 63 881 73 q 942 51 914 54 q 988 48 969 49 l 988 0 z "},"Y":{"ha":854,"x_min":-30,"x_max":891,"o":"m 891 914 q 854 905 880 913 q 819 888 829 897 q 783 863 792 872 q 746 817 773 854 q 648 666 693 743 q 536 471 604 589 q 503 401 511 428 q 495 325 495 375 l 495 141 q 505 99 495 117 q 538 70 515 81 q 589 57 553 64 q 648 48 626 49 l 648 0 l 198 0 l 198 48 q 255 53 217 50 q 308 63 293 57 q 341 91 332 73 q 351 134 351 109 l 351 368 q 337 408 351 379 q 306 472 324 437 q 216 642 265 551 q 130 799 166 734 q 90 857 107 838 q 50 892 73 877 q 11 907 34 902 q -30 914 -12 913 l -30 962 l 380 962 l 380 914 q 283 905 311 913 q 254 882 254 897 q 258 867 254 878 q 270 842 262 857 q 291 801 279 824 q 314 758 303 779 q 379 637 346 697 q 466 481 412 577 q 628 748 572 652 q 684 863 684 844 q 673 888 684 879 q 642 903 661 898 q 600 910 623 909 q 557 914 576 912 l 557 962 l 891 962 l 891 914 z "},"Z":{"ha":836,"x_min":18,"x_max":823,"o":"m 823 300 l 791 0 l 18 0 l 18 24 l 624 909 l 402 909 q 337 907 363 909 q 290 902 311 906 q 189 828 245 893 q 104 690 133 763 l 57 690 l 86 962 l 807 962 l 807 939 l 201 54 l 430 54 q 553 62 488 54 q 637 90 618 70 q 720 193 682 132 q 776 300 758 254 l 823 300 z "},"[":{"ha":521,"x_min":114,"x_max":475,"o":"m 475 -210 l 114 -210 l 114 1030 l 475 1030 l 475 968 l 235 968 l 235 -148 l 475 -148 l 475 -210 z "},"\\":{"ha":651,"x_min":61,"x_max":618,"o":"m 618 -288 l 530 -288 l 61 1033 l 151 1033 l 618 -288 z "},"]":{"ha":521,"x_min":45,"x_max":407,"o":"m 407 -210 l 45 -210 l 45 -148 l 286 -148 l 286 968 l 45 968 l 45 1030 l 407 1030 l 407 -210 z "},"^":{"ha":893,"x_min":130,"x_max":764,"o":"m 764 540 l 665 540 l 448 895 l 228 540 l 130 540 l 409 987 l 486 987 l 764 540 z "},"_":{"ha":893,"x_min":-3,"x_max":897,"o":"m 897 -191 l -3 -191 l -3 -123 l 897 -123 l 897 -191 z "},"`":{"ha":694,"x_min":222,"x_max":501,"o":"m 501 774 l 475 753 q 351 850 406 808 q 269 913 296 892 q 233 949 243 935 q 222 990 222 962 q 238 1026 222 1010 q 278 1043 254 1043 q 323 1031 304 1043 q 364 983 342 1019 q 418 898 387 946 q 501 774 450 850 z "},"a":{"ha":700,"x_min":54,"x_max":682,"o":"m 682 12 q 626 -6 650 1 q 572 -14 602 -14 q 487 11 519 -14 q 447 83 456 36 l 443 83 q 348 9 399 35 q 227 -17 298 -17 q 103 29 151 -17 q 54 150 54 75 q 65 219 54 189 q 98 274 76 250 q 142 310 115 294 q 195 336 170 326 q 318 378 225 347 q 444 427 412 410 l 444 494 q 440 528 444 503 q 425 576 437 553 q 386 620 411 601 q 316 638 361 638 q 258 628 285 638 q 220 606 231 617 q 227 566 220 592 q 233 517 233 539 q 212 473 233 493 q 153 454 191 454 q 103 478 119 454 q 87 532 87 502 q 109 591 87 563 q 166 642 131 620 q 240 674 197 661 q 325 688 283 688 q 424 680 382 688 q 501 646 467 672 q 554 578 536 621 q 572 467 572 535 q 570 295 572 370 q 568 132 568 220 q 577 90 568 105 q 605 63 586 74 q 637 56 615 57 q 682 56 659 56 l 682 12 m 446 370 q 345 337 388 353 q 264 296 301 321 q 210 242 230 273 q 191 167 191 210 q 220 84 191 111 q 295 58 250 58 q 380 81 343 58 q 441 136 416 104 l 446 370 z "},"b":{"ha":778,"x_min":-11,"x_max":728,"o":"m 728 335 q 633 82 728 184 q 412 -20 538 -20 q 304 -3 357 -20 q 204 42 251 14 l 154 -36 l 112 -26 q 117 94 115 24 q 118 231 118 165 l 118 892 q 107 939 118 916 q 81 972 97 962 q 38 985 68 981 q -11 991 7 989 l -11 1034 l 235 1050 l 244 1040 l 244 599 l 249 597 q 341 665 291 642 q 439 687 391 687 q 645 589 562 687 q 728 335 728 492 m 586 330 q 575 433 586 380 q 541 524 564 485 q 481 587 518 563 q 391 612 444 612 q 308 593 344 612 q 244 543 273 574 l 244 153 q 260 115 248 137 q 292 74 272 94 q 338 43 313 55 q 401 31 364 31 q 535 111 484 31 q 586 330 586 191 z "},"c":{"ha":631,"x_min":49,"x_max":627,"o":"m 358 -18 q 131 79 213 -18 q 49 337 49 175 q 71 469 49 408 q 135 581 93 530 q 235 658 175 629 q 367 688 296 688 q 527 641 465 688 q 589 512 589 593 q 572 452 589 478 q 519 426 556 426 q 457 446 479 426 q 435 492 435 467 q 443 554 435 522 q 452 602 451 587 q 416 630 440 623 q 364 637 392 637 q 302 623 332 637 q 245 572 273 609 q 204 480 220 538 q 189 342 189 422 q 244 137 189 216 q 391 57 300 57 q 502 89 457 57 q 584 184 546 121 l 627 156 q 509 29 583 76 q 358 -18 436 -18 z "},"d":{"ha":798,"x_min":49,"x_max":781,"o":"m 781 12 l 548 -3 l 538 7 l 538 69 l 532 71 q 445 6 497 31 q 338 -19 393 -19 q 228 6 281 -19 q 136 78 175 32 q 72 191 96 125 q 49 336 49 256 q 74 473 49 408 q 143 587 99 538 q 244 660 184 633 q 367 687 304 687 q 459 675 414 687 q 536 645 504 663 l 536 878 q 527 929 536 906 q 500 965 517 953 q 449 984 481 978 q 380 992 417 989 l 380 1034 l 653 1050 l 663 1040 l 663 138 q 672 97 663 114 q 699 69 682 81 q 736 59 712 61 q 781 56 761 57 l 781 12 m 536 130 l 536 521 q 519 559 531 538 q 488 596 507 579 q 442 624 469 613 q 380 635 416 635 q 306 614 340 635 q 245 554 271 593 q 205 457 220 516 q 191 328 191 399 q 201 224 191 271 q 238 138 212 178 q 299 77 262 100 q 387 54 336 54 q 476 77 441 54 q 536 130 512 101 z "},"e":{"ha":671,"x_min":49,"x_max":643,"o":"m 643 157 q 530 30 601 77 q 368 -18 460 -18 q 227 11 288 -18 q 127 88 166 39 q 68 202 87 137 q 49 340 49 267 q 70 468 49 405 q 130 581 90 530 q 226 658 169 629 q 355 688 283 688 q 480 665 428 688 q 565 602 532 642 q 611 512 596 564 q 627 400 627 460 l 627 355 l 184 355 q 196 236 184 290 q 236 142 209 182 q 305 80 262 102 q 407 57 348 57 q 511 85 467 57 q 595 186 555 113 l 643 157 m 493 412 q 487 494 493 450 q 466 566 480 537 q 423 617 450 597 q 353 637 396 637 q 235 577 282 637 q 184 412 188 518 l 493 412 z "},"f":{"ha":452,"x_min":16,"x_max":547,"o":"m 547 969 q 530 918 547 939 q 481 897 514 897 q 444 905 460 897 q 414 929 428 914 q 389 963 401 944 q 370 994 378 982 q 299 930 324 991 q 275 734 275 869 l 275 666 l 447 666 l 447 601 l 275 601 l 275 121 q 284 82 275 97 q 313 60 293 67 q 356 50 329 54 q 403 45 383 46 l 403 0 l 50 0 l 50 45 q 82 47 66 46 q 111 53 99 49 q 139 74 130 59 q 149 114 149 90 l 149 601 l 16 601 l 16 666 l 149 666 l 149 709 q 228 956 149 861 q 425 1050 307 1050 q 516 1027 486 1050 q 547 969 547 1003 z "},"g":{"ha":707,"x_min":28,"x_max":680,"o":"m 622 69 q 665 11 649 43 q 680 -70 680 -22 q 659 -160 680 -118 q 595 -234 638 -203 q 487 -283 550 -266 q 331 -301 424 -301 q 104 -257 179 -301 q 28 -127 28 -212 q 83 -18 28 -58 q 221 26 137 22 l 221 35 q 179 51 201 41 q 142 72 157 60 q 113 105 124 86 q 102 153 102 125 q 128 219 102 189 q 205 271 153 250 l 205 281 q 104 360 140 312 q 68 471 68 408 q 139 627 68 566 q 320 688 210 688 q 381 682 351 688 q 442 666 411 675 l 675 666 l 675 601 l 518 601 l 518 597 q 555 532 543 568 q 568 463 568 497 q 496 314 568 375 q 330 253 425 253 l 248 253 q 215 233 232 248 q 198 195 198 219 q 212 156 198 170 q 247 138 227 143 q 293 132 267 133 q 347 130 319 130 q 428 125 376 129 q 502 121 480 122 q 565 106 533 120 q 622 69 596 93 m 439 466 q 407 592 439 545 q 316 640 374 640 q 261 626 284 640 q 224 589 239 613 q 205 535 211 566 q 199 470 199 503 q 232 347 199 395 q 317 300 265 300 q 407 347 376 300 q 439 466 439 394 m 569 -95 q 551 -33 569 -57 q 498 1 534 -8 q 420 7 479 3 q 283 10 361 10 q 179 -38 210 -4 q 148 -124 148 -71 q 158 -170 148 -148 q 193 -210 168 -191 q 257 -238 217 -227 q 355 -250 297 -250 q 512 -211 454 -250 q 569 -95 569 -173 z "},"h":{"ha":808,"x_min":4,"x_max":775,"o":"m 775 0 l 447 0 l 447 45 q 481 47 463 46 q 513 53 500 49 q 541 74 532 59 q 550 114 550 90 l 550 458 q 516 568 550 529 q 435 606 483 606 q 369 595 399 606 q 315 568 339 584 q 280 534 292 551 q 261 505 268 517 l 261 121 q 270 83 261 98 q 298 60 279 68 q 329 50 313 53 q 364 45 345 46 l 364 0 l 36 0 l 36 45 q 68 48 52 46 q 97 53 85 50 q 125 74 116 59 q 135 114 135 90 l 135 892 q 124 939 135 916 q 97 973 114 962 q 54 986 85 982 q 4 991 23 989 l 4 1034 l 252 1050 l 261 1040 l 261 573 l 264 573 q 304 613 286 595 q 353 649 323 630 q 413 676 378 665 q 492 687 448 687 q 629 630 581 687 q 677 467 677 574 l 677 119 q 686 81 677 96 q 714 58 694 66 q 742 49 730 52 q 775 45 755 46 l 775 0 z "},"i":{"ha":407,"x_min":29,"x_max":374,"o":"m 374 0 l 50 0 l 50 45 q 82 47 66 46 q 111 53 99 49 q 139 74 130 59 q 149 114 149 90 l 149 527 q 139 567 149 549 q 111 597 129 585 q 74 611 98 605 q 29 618 50 616 l 29 662 l 265 677 l 275 667 l 275 122 q 284 83 275 98 q 313 60 293 67 q 342 50 328 54 q 374 45 356 46 l 374 0 m 288 941 q 263 873 288 902 q 200 844 237 844 q 140 872 165 844 q 115 935 115 899 q 140 1000 115 972 q 200 1027 165 1027 q 263 1001 239 1027 q 288 941 288 975 z "},"j":{"ha":406,"x_min":-102,"x_max":302,"o":"m 292 41 q 271 -99 292 -34 q 213 -208 249 -165 q 126 -277 174 -253 q 19 -301 77 -301 q -72 -277 -41 -301 q -102 -220 -102 -253 q -86 -169 -102 -191 q -39 -147 -70 -147 q -1 -156 -18 -147 q 27 -179 15 -165 q 49 -209 38 -191 q 71 -244 60 -227 q 144 -182 122 -244 q 166 18 166 -119 l 166 522 q 156 563 166 543 q 128 595 145 583 q 76 610 117 603 q 14 620 35 618 l 14 662 l 283 677 l 292 667 l 292 41 m 302 941 q 277 874 302 903 q 214 845 252 845 q 154 872 180 845 q 129 935 129 900 q 154 1000 129 972 q 214 1028 180 1028 q 278 1002 253 1028 q 302 941 302 976 z "},"k":{"ha":744,"x_min":4,"x_max":758,"o":"m 758 0 l 555 0 q 442 164 503 77 q 317 334 382 252 l 261 282 l 261 123 q 270 83 261 99 q 298 60 279 67 q 330 50 315 53 q 364 45 345 46 l 364 0 l 36 0 l 36 45 q 68 48 52 46 q 97 53 85 50 q 125 74 116 59 q 135 114 135 90 l 135 891 q 124 938 135 916 q 97 972 114 960 q 53 986 83 983 q 4 991 22 989 l 4 1034 l 252 1050 l 261 1040 l 261 332 q 375 446 314 385 q 479 554 437 507 q 491 570 484 560 q 497 586 497 580 q 468 613 497 604 q 411 625 438 622 l 411 669 l 705 669 l 705 627 q 605 584 648 610 q 538 538 561 559 q 492 494 522 525 q 408 414 462 464 q 533 250 464 346 q 635 112 603 155 q 688 60 665 72 q 758 45 712 47 l 758 0 z "},"l":{"ha":397,"x_min":1,"x_max":362,"o":"m 362 0 l 36 0 l 36 45 q 69 48 52 46 q 98 53 87 50 q 127 74 117 59 q 136 114 136 90 l 136 888 q 126 934 136 913 q 98 968 115 956 q 54 983 86 976 q 1 991 21 989 l 1 1034 l 253 1050 l 262 1040 l 262 122 q 271 83 262 98 q 300 60 280 68 q 329 50 315 53 q 362 45 344 46 l 362 0 z "},"m":{"ha":1223,"x_min":39,"x_max":1194,"o":"m 1194 0 l 868 0 l 868 45 q 900 47 884 46 q 928 53 916 49 q 956 74 947 59 q 965 114 965 90 l 965 459 q 933 568 965 530 q 852 606 901 606 q 790 596 819 606 q 736 568 761 586 q 704 535 717 553 q 684 507 690 518 l 684 121 q 692 82 684 97 q 720 58 700 66 q 748 49 735 52 q 781 45 760 46 l 781 0 l 461 0 l 461 45 q 491 47 477 46 q 518 53 506 49 q 546 74 537 59 q 555 114 555 90 l 555 459 q 523 568 555 530 q 443 606 491 606 q 380 596 410 606 q 327 567 351 585 q 294 533 307 552 q 273 505 280 515 l 273 122 q 283 83 273 99 q 311 60 292 68 q 340 50 326 53 q 374 45 355 46 l 374 0 l 49 0 l 49 45 q 81 47 64 46 q 110 53 98 49 q 138 74 129 59 q 147 114 147 90 l 147 530 q 137 569 147 551 q 110 598 127 586 q 78 611 97 606 q 39 618 59 616 l 39 662 l 262 677 l 272 667 l 272 572 l 277 572 q 318 612 294 589 q 363 649 342 635 q 423 676 387 665 q 500 687 458 687 q 612 652 565 687 q 679 568 659 617 q 722 609 703 591 q 771 648 741 627 q 832 676 797 665 q 909 687 867 687 q 1044 631 994 687 q 1093 460 1093 576 l 1093 121 q 1101 82 1093 97 q 1129 58 1109 66 q 1160 49 1145 52 q 1194 45 1175 46 l 1194 0 z "},"n":{"ha":821,"x_min":41,"x_max":787,"o":"m 787 0 l 460 0 l 460 45 q 494 47 475 46 q 525 53 513 49 q 553 74 544 59 q 562 114 562 90 l 562 458 q 529 568 562 529 q 447 606 495 606 q 381 595 411 606 q 328 568 351 584 q 293 534 306 552 q 273 505 279 516 l 273 121 q 283 83 273 98 q 311 60 292 68 q 342 50 326 53 q 376 45 359 46 l 376 0 l 49 0 l 49 45 q 81 47 64 46 q 110 53 98 49 q 138 74 129 59 q 147 114 147 90 l 147 527 q 137 569 147 550 q 110 601 127 589 q 79 613 97 609 q 41 618 62 616 l 41 662 l 264 677 l 273 667 l 273 573 l 277 573 q 317 612 293 589 q 363 649 342 635 q 423 676 389 665 q 501 687 458 687 q 644 627 597 687 q 690 467 690 567 l 690 119 q 699 81 690 96 q 726 58 707 66 q 754 49 743 52 q 787 45 766 46 l 787 0 z "},"o":{"ha":749,"x_min":47,"x_max":701,"o":"m 701 341 q 678 202 701 271 q 614 87 656 134 q 506 6 568 33 q 368 -20 444 -20 q 246 4 304 -20 q 144 74 189 28 q 74 185 100 119 q 47 332 47 250 q 139 588 47 488 q 378 688 230 688 q 609 593 518 688 q 701 341 701 498 m 560 340 q 550 447 560 391 q 519 543 540 504 q 463 611 498 585 q 376 636 427 636 q 287 610 324 636 q 227 540 250 585 q 197 446 205 498 q 188 343 188 393 q 198 223 188 278 q 232 124 209 168 q 290 56 255 81 q 376 31 325 31 q 511 113 461 31 q 560 340 560 195 z "},"p":{"ha":793,"x_min":22,"x_max":744,"o":"m 660 589 q 722 479 700 542 q 744 336 744 416 q 718 191 744 256 q 648 79 691 125 q 547 7 602 33 q 429 -18 491 -18 q 330 -4 368 -18 q 267 28 291 9 l 261 28 l 261 -173 q 271 -214 261 -197 q 300 -237 280 -230 q 346 -249 316 -243 q 396 -256 376 -255 l 396 -301 l 22 -301 l 22 -256 q 63 -252 43 -254 q 98 -245 83 -250 q 127 -222 119 -239 q 135 -182 135 -205 l 135 530 q 125 569 135 550 q 98 600 115 588 q 64 612 86 608 q 22 618 43 616 l 22 662 l 250 677 l 260 669 l 260 593 l 265 592 q 353 660 300 633 q 456 687 405 687 q 571 661 519 687 q 660 589 623 634 m 549 109 q 589 206 576 151 q 602 330 602 262 q 591 433 602 380 q 557 524 581 485 q 497 587 534 563 q 408 612 460 612 q 322 590 357 612 q 261 537 287 568 l 261 142 q 281 104 267 123 q 312 70 295 84 q 357 42 333 53 q 417 32 382 32 q 490 52 455 32 q 549 109 526 72 z "},"q":{"ha":777,"x_min":49,"x_max":783,"o":"m 783 -301 l 421 -301 l 421 -256 q 463 -252 442 -254 q 499 -245 483 -250 q 528 -222 520 -239 q 536 -182 536 -205 l 536 65 l 532 66 q 502 38 522 54 q 460 12 481 22 q 408 -10 433 -2 q 345 -18 382 -18 q 230 8 283 -18 q 136 80 176 33 q 72 194 96 126 q 49 342 49 261 q 76 481 49 418 q 148 591 103 544 q 251 661 191 635 q 370 687 311 687 q 448 679 414 687 q 507 659 482 670 q 549 636 528 650 q 578 617 570 622 l 636 705 l 675 700 q 668 576 672 650 q 663 448 663 503 l 663 -170 q 672 -211 663 -194 q 701 -237 681 -229 q 742 -249 717 -244 q 783 -256 767 -254 l 783 -301 m 536 124 l 536 524 q 518 561 531 541 q 488 597 505 582 q 441 625 469 614 q 378 635 414 635 q 244 553 298 635 q 191 328 191 471 q 201 224 191 271 q 237 138 212 178 q 299 78 262 100 q 393 55 336 55 q 477 76 442 55 q 536 124 511 96 z "},"r":{"ha":569,"x_min":41,"x_max":561,"o":"m 561 583 q 544 521 561 548 q 492 494 527 494 q 434 514 454 494 q 414 557 414 534 q 416 585 414 572 q 420 609 418 597 q 346 583 389 609 q 273 510 303 557 l 273 121 q 282 82 273 97 q 311 60 292 67 q 355 50 328 53 q 401 45 382 46 l 401 0 l 49 0 l 49 45 q 81 47 64 46 q 110 53 98 49 q 138 74 129 59 q 147 114 147 90 l 147 527 q 137 568 147 548 q 110 601 127 589 q 79 613 97 609 q 41 618 62 616 l 41 662 l 264 677 l 273 667 l 273 573 l 277 573 q 370 656 319 628 q 465 685 422 685 q 534 657 507 685 q 561 583 561 629 z "},"s":{"ha":600,"x_min":50,"x_max":548,"o":"m 490 328 q 533 271 518 303 q 548 193 548 239 q 478 41 548 100 q 298 -18 409 -18 q 191 3 240 -18 q 121 42 142 24 l 107 -2 l 56 -2 l 50 231 l 96 231 q 119 169 102 204 q 162 105 137 134 q 225 55 189 75 q 309 35 262 35 q 409 64 374 35 q 444 149 444 94 q 433 198 444 177 q 400 234 422 218 q 345 262 378 250 q 273 287 313 275 q 202 313 241 296 q 135 352 163 330 q 86 410 105 376 q 67 492 67 445 q 128 631 67 574 q 292 688 189 688 q 372 677 331 688 q 439 653 413 667 l 454 688 l 503 688 l 513 473 l 467 473 q 405 590 452 545 q 290 635 358 635 q 203 608 235 635 q 171 541 171 580 q 181 490 171 510 q 213 455 192 469 q 264 430 233 441 q 340 403 295 418 q 425 370 385 389 q 490 328 465 351 z "},"t":{"ha":479,"x_min":9,"x_max":462,"o":"m 462 29 q 378 -2 418 11 q 282 -14 339 -14 q 164 28 198 -14 q 130 148 130 71 l 130 601 l 9 601 l 9 666 l 132 666 l 132 874 l 256 874 l 256 666 l 448 666 l 448 601 l 257 601 l 257 227 q 260 157 257 185 q 275 108 263 129 q 307 78 286 88 q 366 68 329 68 q 415 71 382 68 q 462 79 448 74 l 462 29 z "},"u":{"ha":799,"x_min":24,"x_max":766,"o":"m 766 12 l 548 -3 l 538 7 l 538 92 l 534 92 q 497 55 517 75 q 450 20 477 36 q 391 -7 420 2 q 311 -17 363 -17 q 175 41 222 -17 q 129 210 129 99 l 129 530 q 120 571 129 554 q 93 600 111 587 q 62 611 81 608 q 24 616 44 615 l 24 661 l 247 677 l 257 667 l 257 203 q 290 94 257 130 q 368 57 322 57 q 434 68 405 57 q 483 96 463 80 q 515 126 501 110 q 536 155 529 142 l 536 534 q 527 574 536 557 q 500 604 517 591 q 464 613 488 612 q 410 616 440 615 l 410 661 l 653 677 l 663 667 l 663 136 q 673 97 663 113 q 699 69 682 81 q 728 59 711 62 q 766 56 745 57 l 766 12 z "},"v":{"ha":690,"x_min":-13,"x_max":709,"o":"m 709 627 q 651 605 679 622 q 604 547 624 589 q 522 357 564 456 q 433 150 479 258 q 404 76 419 119 q 376 -6 389 33 l 323 -6 q 204 284 258 153 q 92 553 150 416 q 48 602 78 585 q -13 624 18 619 l -13 669 l 296 669 l 296 621 q 245 613 276 621 q 215 591 215 605 q 218 581 215 589 q 225 562 222 572 q 304 368 253 492 q 387 168 355 244 q 448 313 411 227 q 528 507 485 400 q 541 542 534 526 q 547 574 547 557 q 535 594 547 585 q 509 610 524 604 q 478 621 493 617 q 454 625 463 624 l 454 669 l 709 669 l 709 627 z "},"w":{"ha":1024,"x_min":-3,"x_max":1045,"o":"m 1045 625 q 984 602 1017 623 q 936 538 951 581 q 872 350 902 439 q 804 149 842 260 q 780 73 792 114 q 757 -5 767 33 l 699 -5 l 519 488 l 338 -5 l 282 -5 q 183 294 231 146 q 97 552 134 442 q 56 602 86 584 q -3 624 25 621 l -3 669 l 295 669 l 295 621 q 247 614 273 621 q 220 591 220 607 q 223 580 220 589 q 229 561 225 571 q 278 402 250 490 q 349 174 305 314 l 519 655 l 585 655 l 759 180 q 817 356 788 271 q 867 516 846 441 q 877 548 872 534 q 881 577 881 563 q 870 599 881 589 q 844 614 859 608 q 814 623 830 620 q 791 625 798 625 l 791 669 l 1045 669 l 1045 625 z "},"x":{"ha":701,"x_min":8,"x_max":693,"o":"m 693 0 l 387 0 l 387 45 q 438 52 417 48 q 460 69 460 55 q 453 88 460 75 q 439 112 446 101 q 393 183 422 138 q 321 289 363 227 q 256 203 286 245 q 193 115 226 161 q 183 98 189 108 q 178 81 178 87 q 198 57 178 66 q 256 43 217 47 l 256 0 l 8 0 l 8 42 q 82 75 54 56 q 134 123 111 94 q 193 197 155 150 q 290 326 231 245 q 206 447 256 376 q 123 566 156 519 q 83 608 106 592 q 19 624 60 624 l 19 669 l 310 669 l 310 624 q 267 621 288 624 q 246 609 246 618 q 250 595 246 603 q 260 579 254 588 q 307 508 275 556 q 375 406 338 460 q 430 482 399 439 q 488 565 462 526 q 494 577 491 570 q 496 591 496 584 q 473 613 496 605 q 429 625 450 622 l 429 669 l 675 669 l 675 627 q 594 594 623 613 q 545 551 565 576 q 491 483 522 524 q 405 369 460 442 q 505 227 467 282 q 583 112 544 171 q 627 65 603 82 q 693 45 651 47 l 693 0 z "},"y":{"ha":684,"x_min":-13,"x_max":704,"o":"m -2 -218 q 17 -163 -2 -184 q 63 -142 35 -142 q 100 -150 85 -142 q 128 -171 116 -158 q 150 -199 138 -181 q 168 -228 161 -216 q 249 -132 202 -210 q 317 3 296 -55 q 201 291 253 164 q 92 553 149 418 q 48 602 79 585 q -13 624 18 619 l -13 669 l 292 669 l 292 621 q 243 613 272 621 q 215 595 215 605 q 218 581 215 591 q 225 562 221 572 q 304 368 251 494 q 386 165 357 241 q 449 316 416 238 q 523 499 482 393 q 536 535 528 512 q 545 574 545 557 q 514 607 545 591 q 456 625 484 622 l 456 669 l 704 669 l 704 627 q 650 603 684 623 q 601 547 617 583 q 457 205 520 359 q 362 -21 395 52 q 286 -169 319 -116 q 220 -253 252 -222 q 164 -291 189 -281 q 111 -301 138 -301 q 28 -276 58 -301 q -2 -218 -2 -251 z "},"z":{"ha":616,"x_min":37,"x_max":578,"o":"m 578 0 l 37 0 l 37 36 l 416 614 l 322 614 q 230 612 263 614 q 169 598 197 610 q 133 555 150 591 q 104 463 117 520 l 63 463 l 63 669 l 574 669 l 574 641 l 190 55 q 243 54 214 54 q 307 54 273 54 q 363 54 334 54 q 439 58 393 55 q 480 76 466 59 q 501 115 494 93 q 519 169 509 134 q 538 236 530 203 l 578 236 l 578 0 z "},"{":{"ha":597,"x_min":49,"x_max":552,"o":"m 552 -226 q 424 -216 481 -226 q 328 -179 367 -206 q 269 -105 289 -151 q 249 18 249 -58 q 254 106 249 59 q 259 191 259 153 q 245 272 259 239 q 203 323 231 304 q 136 352 176 343 q 49 364 96 361 l 49 452 q 137 466 96 456 q 203 494 178 475 q 246 547 233 515 q 259 625 259 579 q 254 711 259 664 q 249 798 249 758 q 269 917 249 869 q 328 994 289 965 q 425 1032 367 1021 q 552 1042 482 1042 l 552 987 q 489 980 525 985 q 432 962 453 974 q 392 919 408 949 q 377 840 377 890 l 377 681 q 360 563 377 610 q 310 487 343 516 q 237 444 279 460 q 144 418 195 428 l 144 397 q 236 372 193 388 q 310 329 279 357 q 359 254 342 300 q 377 135 377 207 l 377 -23 q 391 -101 377 -71 q 432 -146 406 -131 q 491 -165 457 -161 q 552 -172 524 -170 l 552 -226 z "},"|":{"ha":521,"x_min":218,"x_max":304,"o":"m 304 -288 l 218 -288 l 218 1033 l 304 1033 l 304 -288 z "},"}":{"ha":597,"x_min":45,"x_max":549,"o":"m 549 364 q 461 352 502 361 q 395 323 421 342 q 353 272 367 304 q 338 191 338 239 q 343 106 338 153 q 349 18 349 59 q 329 -105 349 -58 q 269 -179 309 -151 q 174 -216 231 -205 q 45 -226 117 -226 l 45 -172 q 107 -165 73 -170 q 165 -146 141 -161 q 206 -101 192 -131 q 220 -23 220 -71 l 220 135 q 238 254 220 207 q 288 329 256 300 q 362 372 319 357 q 454 397 405 388 l 454 418 q 360 444 402 428 q 288 487 318 460 q 237 563 254 516 q 220 681 220 610 l 220 840 q 205 919 220 890 q 165 962 190 949 q 109 980 144 974 q 45 987 73 985 l 45 1042 q 173 1032 115 1042 q 269 994 231 1021 q 329 917 309 965 q 349 798 349 869 q 343 711 349 758 q 338 625 338 664 q 352 547 338 579 q 394 494 365 515 q 460 466 419 476 q 549 452 501 456 l 549 364 z "},"~":{"ha":893,"x_min":88,"x_max":805,"o":"m 805 484 q 773 421 795 459 q 724 357 751 384 q 654 304 691 323 q 574 285 617 285 q 484 299 525 285 q 410 331 444 314 q 341 363 375 349 q 274 377 308 377 q 199 346 229 377 q 141 258 170 315 l 88 279 q 120 341 97 304 q 170 406 142 378 q 237 456 196 435 q 319 478 278 478 q 410 464 370 478 q 485 432 450 449 q 552 400 522 414 q 619 386 582 386 q 697 419 667 386 q 752 505 727 452 l 805 484 z "},"":{"ha":932,"x_min":-28,"x_max":964,"o":"m 964 0 l 563 0 l 563 48 q 651 62 616 52 q 686 87 686 72 q 684 102 686 93 q 680 117 683 111 l 600 333 l 263 333 q 232 250 244 286 q 211 185 220 215 q 199 138 202 156 q 195 108 195 119 q 238 66 195 81 q 334 48 281 51 l 334 0 l -28 0 l -28 48 q 16 56 -10 50 q 60 73 43 62 q 102 112 87 92 q 131 167 117 132 q 291 574 203 348 q 447 976 378 800 l 501 976 l 822 146 q 845 103 832 119 q 881 71 858 87 q 922 55 897 62 q 964 48 947 49 l 964 0 m 576 393 l 430 766 l 287 393 l 576 393 m 704 1165 q 681 1106 704 1131 q 624 1082 657 1082 q 567 1106 591 1082 q 544 1165 544 1131 q 567 1224 544 1200 q 624 1249 591 1249 q 681 1224 657 1249 q 704 1165 704 1200 m 399 1165 q 375 1106 399 1131 q 319 1082 352 1082 q 262 1106 286 1082 q 239 1165 239 1131 q 262 1224 239 1200 q 319 1249 286 1249 q 375 1224 352 1249 q 399 1165 399 1200 z "},"":{"ha":932,"x_min":-28,"x_max":964,"o":"m 964 0 l 563 0 l 563 48 q 651 62 616 52 q 686 87 686 72 q 684 102 686 93 q 680 117 683 111 l 600 333 l 263 333 q 232 250 244 286 q 211 185 220 215 q 199 138 202 157 q 195 108 195 119 q 238 66 195 81 q 334 48 281 51 l 334 0 l -28 0 l -28 48 q 17 56 -10 50 q 60 73 43 62 q 102 112 87 92 q 131 167 117 132 q 284 558 200 340 q 444 966 369 777 q 336 1015 375 975 q 298 1116 298 1055 q 349 1225 298 1183 q 473 1267 399 1267 q 598 1226 549 1267 q 648 1116 648 1185 q 608 1017 648 1058 q 505 967 569 975 l 822 146 q 845 103 832 119 q 881 71 858 87 q 921 55 896 61 q 964 48 947 49 l 964 0 m 576 393 l 430 766 l 287 393 l 576 393 m 562 1116 q 539 1193 562 1162 q 473 1223 517 1223 q 407 1194 430 1223 q 383 1116 383 1165 q 406 1038 383 1069 q 473 1007 429 1007 q 539 1038 516 1007 q 562 1116 562 1069 z "},"":{"ha":892,"x_min":53,"x_max":874,"o":"m 454 -20 q 309 19 378 -14 q 185 109 239 52 q 89 265 125 173 q 53 472 53 357 q 88 681 53 587 q 186 843 123 775 q 332 947 248 910 q 511 983 416 983 q 640 966 583 983 q 750 916 698 948 l 778 962 l 832 962 l 838 619 l 783 619 q 750 728 772 669 q 699 827 728 787 q 622 900 667 873 q 519 926 577 926 q 397 897 454 926 q 299 810 340 867 q 237 671 260 755 q 215 481 215 586 q 238 312 215 389 q 305 177 262 235 q 408 87 349 119 q 541 54 467 54 q 642 72 595 54 q 722 117 688 89 q 781 185 755 147 q 823 268 807 223 l 874 243 q 726 44 819 105 q 507 -22 633 -18 l 507 -67 q 562 -71 538 -67 q 612 -87 587 -75 q 649 -118 635 -98 q 663 -168 663 -138 q 642 -235 663 -208 q 581 -277 620 -262 q 498 -296 544 -290 q 393 -301 453 -301 l 393 -252 q 453 -252 420 -252 q 509 -245 486 -251 q 551 -227 536 -239 q 566 -191 566 -214 q 555 -164 566 -175 q 528 -149 545 -154 q 492 -142 515 -144 q 454 -140 469 -140 l 454 -20 z "},"":{"ha":907,"x_min":58,"x_max":876,"o":"m 876 283 l 857 0 l 58 0 l 58 48 q 113 54 79 50 q 157 63 146 58 q 187 90 178 73 q 195 131 195 106 l 195 823 q 188 862 195 845 q 157 890 180 880 q 107 906 138 899 q 58 914 77 913 l 58 962 l 803 962 l 803 730 l 752 730 q 693 840 739 782 q 608 903 648 898 q 557 907 587 906 q 491 909 528 909 l 340 909 l 340 526 l 448 526 q 525 536 500 526 q 567 569 549 546 q 592 622 582 589 q 606 684 603 654 l 657 684 l 657 307 l 606 307 q 592 376 604 340 q 567 429 580 412 q 519 463 546 455 q 448 471 492 471 l 340 471 l 340 182 q 346 114 340 139 q 370 76 352 89 q 418 59 387 63 q 505 56 448 56 q 564 56 527 56 q 625 58 600 56 q 679 68 651 61 q 718 87 706 75 q 783 186 749 120 q 827 283 817 252 l 876 283 m 591 1136 q 498 1091 561 1121 q 356 1022 435 1061 l 335 1048 q 436 1146 397 1107 q 513 1224 475 1184 q 552 1257 534 1247 q 591 1267 570 1267 q 635 1251 616 1267 q 653 1213 653 1236 q 635 1166 653 1183 q 591 1136 618 1149 z "},"":{"ha":1065,"x_min":16,"x_max":1054,"o":"m 1054 914 q 996 903 1035 913 q 939 882 956 893 q 906 817 915 865 q 898 695 898 769 l 898 -9 l 839 -9 l 256 778 l 256 281 q 266 153 256 198 q 298 90 277 109 q 363 62 314 75 q 427 48 412 49 l 427 0 l 33 0 l 33 48 q 94 61 51 50 q 149 83 138 73 q 181 141 172 102 q 190 274 190 180 l 190 748 q 179 810 190 779 q 150 859 168 842 q 84 897 125 881 q 16 914 42 913 l 16 962 l 291 962 l 832 229 l 832 686 q 821 815 832 770 q 790 876 810 861 q 728 901 771 888 q 663 914 685 913 l 663 962 l 1054 962 l 1054 914 m 810 1244 q 789 1192 803 1219 q 752 1138 776 1164 q 701 1096 728 1112 q 637 1080 674 1080 q 569 1091 598 1080 q 519 1114 540 1102 q 474 1139 495 1128 q 427 1149 452 1149 q 395 1144 406 1149 q 373 1126 385 1139 q 351 1094 362 1114 q 331 1057 340 1074 l 292 1074 q 315 1126 298 1096 q 350 1180 331 1157 q 399 1222 370 1204 q 460 1239 429 1239 q 526 1228 498 1239 q 576 1204 553 1217 q 620 1179 602 1190 q 663 1169 637 1169 q 707 1176 690 1169 q 733 1194 724 1182 q 751 1221 744 1206 q 768 1260 758 1236 l 810 1244 z "},"":{"ha":1034,"x_min":54,"x_max":979,"o":"m 844 848 q 943 688 907 782 q 979 480 979 594 q 943 272 979 366 q 841 113 906 178 q 694 12 778 47 q 517 -23 611 -23 q 331 15 416 -23 q 185 119 246 52 q 89 279 124 185 q 54 480 54 373 q 91 689 54 597 q 192 848 127 781 q 340 950 256 915 q 517 985 425 985 q 697 949 612 985 q 844 848 782 913 m 743 166 q 798 306 781 228 q 815 480 815 384 q 796 662 815 579 q 739 803 777 745 q 646 893 702 861 q 517 925 589 925 q 378 888 435 925 q 286 788 321 850 q 235 648 252 728 q 218 480 218 568 q 236 304 218 382 q 292 164 254 225 q 384 71 328 104 q 517 37 439 37 q 648 71 589 37 q 743 166 706 105 m 749 1173 q 726 1114 749 1139 q 669 1090 703 1090 q 613 1114 636 1090 q 589 1173 589 1139 q 613 1232 589 1208 q 669 1257 636 1257 q 726 1232 703 1257 q 749 1173 749 1208 m 444 1173 q 421 1114 444 1139 q 364 1090 397 1090 q 308 1114 331 1090 q 284 1173 284 1139 q 308 1232 284 1208 q 364 1257 331 1257 q 421 1232 397 1257 q 444 1173 444 1208 z "},"":{"ha":1050,"x_min":50,"x_max":1040,"o":"m 1040 914 q 984 906 1021 913 q 924 884 947 899 q 892 819 901 868 q 884 700 884 770 l 884 281 q 850 142 884 201 q 763 45 817 83 q 650 -7 709 9 q 536 -23 591 -23 q 382 0 450 -23 q 268 61 314 22 q 199 150 222 100 q 176 254 176 199 l 176 823 q 169 862 176 846 q 137 892 161 878 q 94 907 120 901 q 50 914 67 913 l 50 962 l 451 962 l 451 914 q 403 908 432 913 q 361 898 374 903 q 330 871 338 890 q 322 829 322 852 l 322 298 q 331 217 322 259 q 364 138 339 174 q 436 77 391 100 q 561 53 481 53 q 686 77 635 53 q 766 139 736 100 q 805 216 793 176 q 817 296 817 256 l 817 691 q 806 814 817 766 q 774 877 795 862 q 709 903 750 894 q 646 914 668 913 l 646 962 l 1040 962 l 1040 914 m 785 1173 q 762 1114 785 1139 q 705 1090 739 1090 q 649 1114 672 1090 q 625 1173 625 1139 q 649 1232 625 1208 q 705 1257 672 1257 q 762 1232 739 1257 q 785 1173 785 1208 m 480 1173 q 457 1114 480 1139 q 400 1090 433 1090 q 343 1114 367 1090 q 320 1173 320 1139 q 343 1232 320 1208 q 400 1257 367 1257 q 457 1232 433 1257 q 480 1173 480 1208 z "},"":{"ha":700,"x_min":54,"x_max":682,"o":"m 682 12 q 626 -6 650 1 q 572 -14 602 -14 q 487 11 519 -14 q 447 83 456 36 l 443 83 q 348 9 399 35 q 227 -17 298 -17 q 103 29 151 -17 q 54 150 54 75 q 65 219 54 189 q 98 274 76 250 q 142 310 115 294 q 195 336 170 326 q 318 378 225 347 q 444 427 412 410 l 444 494 q 440 528 444 503 q 425 576 437 553 q 386 620 411 601 q 316 638 361 638 q 258 628 285 638 q 220 606 231 617 q 227 566 220 592 q 233 517 233 539 q 212 473 233 493 q 153 454 191 454 q 103 478 119 454 q 87 532 87 502 q 109 591 87 563 q 166 642 131 620 q 240 674 197 661 q 325 688 283 688 q 424 680 382 688 q 501 646 467 672 q 554 578 536 621 q 572 467 572 535 q 570 295 572 370 q 568 132 568 220 q 577 90 568 105 q 605 63 586 74 q 637 56 615 57 q 682 56 659 56 l 682 12 m 446 370 q 345 337 388 353 q 264 296 301 321 q 210 242 230 273 q 191 167 191 210 q 220 84 191 111 q 295 58 250 58 q 380 81 343 58 q 441 136 416 104 l 446 370 m 500 990 q 489 948 500 964 q 454 913 477 932 q 365 844 420 886 q 248 753 311 802 l 222 774 q 307 902 283 865 q 359 983 331 939 q 399 1030 380 1018 q 445 1043 419 1043 q 485 1026 469 1043 q 500 990 500 1010 z "},"":{"ha":700,"x_min":54,"x_max":682,"o":"m 682 12 q 626 -6 650 1 q 572 -14 602 -14 q 487 11 519 -14 q 447 83 456 36 l 443 83 q 348 9 399 35 q 227 -17 298 -17 q 103 29 151 -17 q 54 150 54 75 q 65 219 54 189 q 98 274 76 250 q 142 310 115 294 q 195 336 170 326 q 318 378 225 347 q 444 427 412 410 l 444 494 q 440 528 444 503 q 425 576 437 553 q 386 620 411 601 q 316 638 361 638 q 258 628 285 638 q 220 606 231 617 q 227 566 220 592 q 233 517 233 539 q 212 473 233 493 q 153 454 191 454 q 103 478 119 454 q 87 532 87 502 q 109 591 87 563 q 166 642 131 620 q 240 674 197 661 q 325 688 283 688 q 424 680 382 688 q 501 646 467 672 q 554 578 536 621 q 572 467 572 535 q 570 295 572 370 q 568 132 568 220 q 577 90 568 105 q 605 63 586 74 q 637 56 615 57 q 682 56 659 56 l 682 12 m 446 370 q 345 337 388 353 q 264 296 301 321 q 210 242 230 273 q 191 167 191 210 q 220 84 191 111 q 295 58 250 58 q 380 81 343 58 q 441 136 416 104 l 446 370 m 471 774 l 445 753 q 320 850 375 808 q 239 913 265 892 q 202 949 213 935 q 192 990 192 962 q 208 1026 192 1010 q 248 1043 223 1043 q 293 1031 274 1043 q 334 983 312 1019 q 388 898 357 946 q 471 774 419 850 z "},"":{"ha":700,"x_min":54,"x_max":682,"o":"m 682 12 q 626 -6 650 1 q 572 -14 602 -14 q 487 11 519 -14 q 447 83 456 36 l 443 83 q 348 9 399 35 q 227 -17 298 -17 q 103 29 151 -17 q 54 150 54 75 q 65 219 54 189 q 98 274 76 250 q 142 310 115 294 q 195 336 170 326 q 318 378 225 347 q 444 427 412 410 l 444 494 q 440 528 444 503 q 425 576 437 553 q 386 620 411 601 q 316 638 361 638 q 258 628 285 638 q 220 606 231 617 q 227 566 220 592 q 233 517 233 539 q 212 473 233 493 q 153 454 191 454 q 103 478 119 454 q 87 532 87 502 q 109 591 87 563 q 166 642 131 620 q 240 674 197 661 q 325 688 283 688 q 424 680 382 688 q 501 646 467 672 q 554 578 536 621 q 572 467 572 535 q 570 295 572 370 q 568 132 568 220 q 577 90 568 105 q 605 63 586 74 q 637 56 615 57 q 682 56 659 56 l 682 12 m 446 370 q 345 337 388 353 q 264 296 301 321 q 210 242 230 273 q 191 167 191 210 q 220 84 191 111 q 295 58 250 58 q 380 81 343 58 q 441 136 416 104 l 446 370 m 554 784 l 522 762 l 332 947 l 146 762 l 113 784 l 274 1019 q 296 1043 286 1036 q 335 1050 307 1050 q 372 1043 362 1050 q 392 1022 382 1036 l 554 784 z "},"":{"ha":700,"x_min":54,"x_max":682,"o":"m 682 12 q 626 -6 650 1 q 572 -14 602 -14 q 487 11 519 -14 q 447 83 456 36 l 443 83 q 348 9 399 35 q 227 -17 298 -17 q 103 29 151 -17 q 54 150 54 75 q 65 219 54 189 q 98 274 76 250 q 142 310 115 294 q 195 336 170 326 q 318 378 225 347 q 444 427 412 410 l 444 494 q 440 528 444 503 q 425 576 437 553 q 386 620 411 601 q 316 638 361 638 q 258 628 285 638 q 220 606 231 617 q 227 566 220 592 q 233 517 233 539 q 212 473 233 493 q 153 454 191 454 q 103 478 119 454 q 87 532 87 502 q 109 591 87 563 q 166 642 131 620 q 240 674 197 661 q 325 688 283 688 q 424 680 382 688 q 501 646 467 672 q 554 578 536 621 q 572 467 572 535 q 570 295 572 370 q 568 132 568 220 q 577 90 568 105 q 605 63 586 74 q 637 56 615 57 q 682 56 659 56 l 682 12 m 446 370 q 345 337 388 353 q 264 296 301 321 q 210 242 230 273 q 191 167 191 210 q 220 84 191 111 q 295 58 250 58 q 380 81 343 58 q 441 136 416 104 l 446 370 m 560 925 q 537 866 560 890 q 480 842 513 842 q 424 866 447 842 q 400 925 400 890 q 424 984 400 960 q 480 1008 447 1008 q 537 984 513 1008 q 560 925 560 960 m 269 925 q 245 866 269 890 q 189 842 222 842 q 132 866 155 842 q 109 925 109 890 q 132 984 109 960 q 189 1008 155 1008 q 245 984 222 1008 q 269 925 269 960 z "},"":{"ha":700,"x_min":54,"x_max":682,"o":"m 682 12 q 626 -6 650 1 q 572 -14 602 -14 q 487 11 519 -14 q 447 83 456 36 l 443 83 q 348 9 399 35 q 227 -17 298 -17 q 103 29 151 -17 q 54 150 54 75 q 65 219 54 189 q 98 274 76 250 q 142 310 115 294 q 195 336 170 326 q 318 378 225 347 q 444 427 412 410 l 444 494 q 440 528 444 503 q 425 576 437 553 q 386 620 411 601 q 316 638 361 638 q 258 628 285 638 q 220 606 231 617 q 227 566 220 592 q 233 517 233 539 q 212 473 233 493 q 153 454 191 454 q 103 478 119 454 q 87 532 87 502 q 109 591 87 563 q 166 642 131 620 q 240 674 197 661 q 325 688 283 688 q 424 680 382 688 q 501 646 467 672 q 554 578 536 621 q 572 467 572 535 q 570 295 572 370 q 568 132 568 220 q 577 90 568 105 q 605 63 586 74 q 637 56 615 57 q 682 56 659 56 l 682 12 m 446 370 q 345 337 388 353 q 264 296 301 321 q 210 242 230 273 q 191 167 191 210 q 220 84 191 111 q 295 58 250 58 q 380 81 343 58 q 441 136 416 104 l 446 370 m 602 995 q 582 942 595 969 q 545 888 568 915 q 493 846 520 862 q 429 830 467 830 q 361 841 391 830 q 311 865 332 852 q 266 889 288 878 q 219 900 245 900 q 188 895 198 900 q 165 876 177 889 q 144 844 155 864 q 123 808 133 824 l 84 825 q 107 877 91 846 q 142 930 123 907 q 192 972 163 955 q 253 989 221 989 q 318 978 291 989 q 369 954 346 967 q 412 930 395 940 q 456 920 430 920 q 499 926 483 920 q 526 944 516 932 q 544 972 536 957 q 561 1010 551 987 l 602 995 z "},"":{"ha":700,"x_min":54,"x_max":682,"o":"m 682 12 q 626 -6 650 1 q 572 -14 602 -14 q 487 11 519 -14 q 447 83 456 36 l 443 83 q 348 9 399 35 q 227 -17 298 -17 q 103 29 151 -17 q 54 150 54 75 q 65 219 54 189 q 98 274 76 250 q 142 310 115 294 q 195 336 170 326 q 318 378 225 347 q 444 427 412 410 l 444 494 q 440 528 444 503 q 425 576 437 553 q 386 620 411 601 q 316 638 361 638 q 258 628 285 638 q 220 606 231 617 q 227 566 220 592 q 233 517 233 539 q 212 473 233 493 q 153 454 191 454 q 103 478 119 454 q 87 532 87 502 q 109 591 87 563 q 166 642 131 620 q 240 674 197 661 q 325 688 283 688 q 424 680 382 688 q 501 646 467 672 q 554 578 536 621 q 572 467 572 535 q 570 295 572 370 q 568 132 568 220 q 577 90 568 105 q 605 63 586 74 q 637 56 615 57 q 682 56 659 56 l 682 12 m 446 370 q 345 337 388 353 q 264 296 301 321 q 210 242 230 273 q 191 167 191 210 q 220 84 191 111 q 295 58 250 58 q 380 81 343 58 q 441 136 416 104 l 446 370 m 509 907 q 461 798 509 840 q 334 755 413 755 q 207 797 255 755 q 159 907 159 838 q 210 1015 159 973 q 334 1057 261 1057 q 460 1016 410 1057 q 509 907 509 975 m 424 907 q 401 983 424 953 q 334 1014 378 1014 q 268 985 292 1014 q 245 907 245 956 q 268 829 245 860 q 334 799 291 799 q 401 829 378 799 q 424 907 424 859 z "},"":{"ha":631,"x_min":49,"x_max":627,"o":"m 311 -15 q 118 95 188 1 q 49 337 49 189 q 71 469 49 408 q 135 581 93 530 q 235 658 175 629 q 367 688 296 688 q 527 641 465 688 q 589 512 589 593 q 572 452 589 478 q 519 426 556 426 q 457 446 479 426 q 435 492 435 467 q 443 554 435 522 q 452 602 451 587 q 416 630 440 623 q 364 637 392 637 q 302 623 332 637 q 245 572 273 609 q 204 480 220 538 q 189 342 189 422 q 244 137 189 216 q 391 57 300 57 q 502 89 457 57 q 584 184 546 121 l 627 156 q 512 31 584 78 q 365 -18 441 -16 l 365 -67 q 420 -71 395 -67 q 469 -87 444 -75 q 507 -118 492 -98 q 521 -168 521 -138 q 499 -235 521 -208 q 439 -277 477 -262 q 356 -296 401 -290 q 250 -301 311 -301 l 250 -252 q 311 -252 278 -252 q 366 -245 343 -251 q 408 -227 393 -239 q 423 -191 423 -214 q 413 -164 423 -175 q 386 -149 403 -154 q 350 -142 372 -144 q 311 -140 327 -140 l 311 -15 z "},"":{"ha":671,"x_min":49,"x_max":643,"o":"m 643 157 q 530 30 601 77 q 368 -18 460 -18 q 227 11 288 -18 q 127 88 166 39 q 68 202 87 137 q 49 340 49 267 q 70 468 49 405 q 130 581 90 530 q 226 658 169 629 q 355 688 283 688 q 480 665 428 688 q 565 602 532 642 q 611 512 596 564 q 627 400 627 460 l 627 355 l 184 355 q 196 236 184 290 q 236 142 209 182 q 305 80 262 102 q 407 57 348 57 q 511 85 467 57 q 595 186 555 113 l 643 157 m 493 412 q 487 494 493 450 q 466 566 480 537 q 423 617 450 597 q 353 637 396 637 q 235 577 282 637 q 184 412 188 518 l 493 412 m 517 990 q 506 948 517 964 q 471 913 494 932 q 382 844 437 886 q 264 753 328 802 l 239 774 q 324 902 300 865 q 376 983 348 939 q 416 1030 397 1018 q 462 1043 436 1043 q 502 1026 486 1043 q 517 990 517 1010 z "},"":{"ha":671,"x_min":49,"x_max":643,"o":"m 643 157 q 530 30 601 77 q 368 -18 460 -18 q 227 11 288 -18 q 127 88 166 39 q 68 202 87 137 q 49 340 49 267 q 70 468 49 405 q 130 581 90 530 q 226 658 169 629 q 355 688 283 688 q 480 665 428 688 q 565 602 532 642 q 611 512 596 564 q 627 400 627 460 l 627 355 l 184 355 q 196 236 184 290 q 236 142 209 182 q 305 80 262 102 q 407 57 348 57 q 511 85 467 57 q 595 186 555 113 l 643 157 m 493 412 q 487 494 493 450 q 466 566 480 537 q 423 617 450 597 q 353 637 396 637 q 235 577 282 637 q 184 412 188 518 l 493 412 m 471 774 l 446 753 q 321 850 376 808 q 239 913 266 892 q 203 949 214 935 q 193 990 193 962 q 208 1026 193 1010 q 248 1043 224 1043 q 294 1031 275 1043 q 334 983 313 1019 q 389 898 357 946 q 471 774 420 850 z "},"":{"ha":671,"x_min":49,"x_max":643,"o":"m 643 157 q 530 30 601 77 q 368 -18 460 -18 q 227 11 288 -18 q 127 88 166 39 q 68 202 87 137 q 49 340 49 267 q 70 468 49 405 q 130 581 90 530 q 226 658 169 629 q 355 688 283 688 q 480 665 428 688 q 565 602 532 642 q 611 512 596 564 q 627 400 627 460 l 627 355 l 184 355 q 196 236 184 290 q 236 142 209 182 q 305 80 262 102 q 407 57 348 57 q 511 85 467 57 q 595 186 555 113 l 643 157 m 493 412 q 487 494 493 450 q 466 566 480 537 q 423 617 450 597 q 353 637 396 637 q 235 577 282 637 q 184 412 188 518 l 493 412 m 574 780 l 542 758 l 353 943 l 166 758 l 134 780 l 294 1015 q 316 1039 306 1032 q 355 1046 327 1046 q 393 1039 382 1046 q 412 1018 403 1031 l 574 780 z "},"":{"ha":671,"x_min":49,"x_max":643,"o":"m 643 157 q 530 30 601 77 q 368 -18 460 -18 q 227 11 288 -18 q 127 88 166 39 q 68 202 87 137 q 49 340 49 267 q 70 468 49 405 q 130 581 90 530 q 226 658 169 629 q 355 688 283 688 q 480 665 428 688 q 565 602 532 642 q 611 512 596 564 q 627 400 627 460 l 627 355 l 184 355 q 196 236 184 290 q 236 142 209 182 q 305 80 262 102 q 407 57 348 57 q 511 85 467 57 q 595 186 555 113 l 643 157 m 493 412 q 487 494 493 450 q 466 566 480 537 q 423 617 450 597 q 353 637 396 637 q 235 577 282 637 q 184 412 188 518 l 493 412 m 585 925 q 561 866 585 890 q 505 842 538 842 q 448 866 471 842 q 425 925 425 890 q 448 984 425 960 q 505 1008 471 1008 q 561 984 538 1008 q 585 925 585 960 m 293 925 q 270 866 293 890 q 213 842 246 842 q 156 866 180 842 q 133 925 133 890 q 156 984 133 960 q 213 1008 180 1008 q 270 984 246 1008 q 293 925 293 960 z "},"":{"ha":407,"x_min":29,"x_max":374,"o":"m 374 0 l 50 0 l 50 45 q 82 47 66 46 q 111 53 99 49 q 139 74 130 59 q 149 114 149 90 l 149 527 q 139 567 149 549 q 111 597 129 585 q 74 611 98 605 q 29 618 50 616 l 29 662 l 265 677 l 275 667 l 275 122 q 284 83 275 98 q 313 60 293 67 q 342 50 328 54 q 374 45 356 46 l 374 0 m 347 990 q 335 948 347 964 q 300 913 323 932 q 211 844 266 886 q 94 753 157 802 l 68 774 q 153 902 129 865 q 205 983 177 939 q 245 1030 226 1018 q 291 1043 265 1043 q 331 1026 315 1043 q 347 990 347 1010 z "},"":{"ha":407,"x_min":28,"x_max":374,"o":"m 374 0 l 50 0 l 50 45 q 82 47 66 46 q 111 53 99 49 q 139 74 130 59 q 149 114 149 90 l 149 527 q 139 567 149 549 q 111 597 129 585 q 74 611 98 605 q 29 618 50 616 l 29 662 l 265 677 l 275 667 l 275 122 q 284 83 275 98 q 313 60 293 67 q 342 50 328 54 q 374 45 356 46 l 374 0 m 307 774 l 281 753 q 156 850 211 808 q 75 913 101 892 q 38 949 49 935 q 28 990 28 962 q 43 1026 28 1010 q 83 1043 59 1043 q 129 1031 110 1043 q 170 983 148 1019 q 224 898 193 946 q 307 774 255 850 z "},"":{"ha":407,"x_min":-14,"x_max":380,"o":"m 374 0 l 50 0 l 50 45 q 82 47 66 46 q 111 53 99 49 q 139 74 130 59 q 149 114 149 90 l 149 527 q 139 567 149 549 q 111 597 129 585 q 74 611 98 605 q 29 618 50 616 l 29 662 l 265 677 l 275 667 l 275 122 q 284 83 275 98 q 313 60 293 67 q 342 50 328 54 q 374 45 356 46 l 374 0 m 380 780 l 347 760 l 182 943 l 19 760 l -14 780 l 123 1013 q 144 1036 131 1026 q 184 1046 157 1046 q 225 1035 214 1046 q 241 1015 237 1024 l 380 780 z "},"":{"ha":407,"x_min":-9,"x_max":384,"o":"m 374 0 l 50 0 l 50 45 q 82 47 66 46 q 111 53 99 49 q 139 74 130 59 q 149 114 149 90 l 149 527 q 139 567 149 549 q 111 597 129 585 q 74 611 98 605 q 29 618 50 616 l 29 662 l 265 677 l 275 667 l 275 122 q 284 83 275 98 q 313 60 293 67 q 342 50 328 54 q 374 45 356 46 l 374 0 m 384 925 q 361 866 384 890 q 306 842 339 842 q 250 866 273 842 q 228 925 228 890 q 250 984 228 960 q 306 1008 273 1008 q 361 984 339 1008 q 384 925 384 960 m 146 925 q 124 866 146 890 q 68 842 102 842 q 13 866 35 842 q -9 925 -9 890 q 13 984 -9 960 q 68 1008 35 1008 q 124 984 102 1008 q 146 925 146 960 z "},"":{"ha":821,"x_min":41,"x_max":787,"o":"m 787 0 l 460 0 l 460 45 q 494 47 475 46 q 525 53 513 49 q 553 74 544 59 q 562 114 562 90 l 562 458 q 529 568 562 529 q 447 606 495 606 q 381 595 411 606 q 328 568 351 584 q 293 534 306 552 q 273 505 279 516 l 273 121 q 283 83 273 98 q 311 60 292 68 q 342 50 326 53 q 376 45 359 46 l 376 0 l 49 0 l 49 45 q 81 47 64 46 q 110 53 98 49 q 138 74 129 59 q 147 114 147 90 l 147 527 q 137 569 147 550 q 110 601 127 589 q 79 613 97 609 q 41 618 62 616 l 41 662 l 264 677 l 273 667 l 273 573 l 277 573 q 317 612 293 589 q 363 649 342 635 q 423 676 389 665 q 501 687 458 687 q 644 627 597 687 q 690 467 690 567 l 690 119 q 699 81 690 96 q 726 58 707 66 q 754 49 743 52 q 787 45 766 46 l 787 0 m 669 995 q 648 942 662 969 q 611 888 635 915 q 560 846 587 862 q 496 830 533 830 q 428 841 457 830 q 378 865 399 852 q 333 889 354 878 q 286 900 311 900 q 254 895 264 900 q 232 876 243 889 q 210 844 221 864 q 190 808 199 824 l 151 825 q 174 877 157 846 q 209 930 190 907 q 258 972 229 955 q 319 989 288 989 q 385 978 357 989 q 435 954 412 967 q 479 930 461 940 q 522 920 496 920 q 566 926 549 920 q 592 944 583 932 q 610 972 603 957 q 627 1010 617 987 l 669 995 z "},"":{"ha":749,"x_min":47,"x_max":701,"o":"m 701 341 q 678 202 701 271 q 614 87 656 134 q 506 6 568 33 q 368 -20 444 -20 q 246 4 304 -20 q 144 74 189 28 q 74 185 100 119 q 47 332 47 250 q 139 588 47 488 q 378 688 230 688 q 609 593 518 688 q 701 341 701 498 m 560 340 q 550 447 560 391 q 519 543 540 504 q 463 611 498 585 q 376 636 427 636 q 287 610 324 636 q 227 540 250 585 q 197 446 205 498 q 188 343 188 393 q 198 223 188 278 q 232 124 209 168 q 290 56 255 81 q 376 31 325 31 q 511 113 461 31 q 560 340 560 195 m 504 990 q 492 948 504 964 q 457 913 480 932 q 369 844 423 886 q 251 753 314 802 l 225 774 q 310 902 286 865 q 362 983 334 939 q 403 1030 383 1018 q 448 1043 422 1043 q 488 1026 473 1043 q 504 990 504 1010 z "},"":{"ha":749,"x_min":47,"x_max":701,"o":"m 701 341 q 678 202 701 271 q 614 87 656 134 q 506 6 568 33 q 368 -20 444 -20 q 246 4 304 -20 q 144 74 189 28 q 74 185 100 119 q 47 332 47 250 q 139 588 47 488 q 378 688 230 688 q 609 593 518 688 q 701 341 701 498 m 560 340 q 550 447 560 391 q 519 543 540 504 q 463 611 498 585 q 376 636 427 636 q 287 610 324 636 q 227 540 250 585 q 197 446 205 498 q 188 343 188 393 q 198 223 188 278 q 232 124 209 168 q 290 56 255 81 q 376 31 325 31 q 511 113 461 31 q 560 340 560 195 m 533 774 l 507 753 q 382 850 437 808 q 301 913 328 892 q 265 949 275 935 q 254 990 254 962 q 270 1026 254 1010 q 310 1043 286 1043 q 355 1031 336 1043 q 396 983 374 1019 q 450 898 419 946 q 533 774 481 850 z "},"":{"ha":749,"x_min":47,"x_max":701,"o":"m 701 341 q 678 202 701 271 q 614 87 656 134 q 506 6 568 33 q 368 -20 444 -20 q 246 4 304 -20 q 144 74 189 28 q 74 185 100 119 q 47 332 47 250 q 139 588 47 488 q 378 688 230 688 q 609 593 518 688 q 701 341 701 498 m 560 340 q 550 447 560 391 q 519 543 540 504 q 463 611 498 585 q 376 636 427 636 q 287 610 324 636 q 227 540 250 585 q 197 446 205 498 q 188 343 188 393 q 198 223 188 278 q 232 124 209 168 q 290 56 255 81 q 376 31 325 31 q 511 113 461 31 q 560 340 560 195 m 600 780 l 567 758 l 378 943 l 191 758 l 159 780 l 319 1015 q 341 1039 331 1032 q 380 1046 352 1046 q 418 1039 408 1046 q 437 1018 428 1031 l 600 780 z "},"":{"ha":749,"x_min":47,"x_max":701,"o":"m 701 341 q 678 202 701 271 q 614 87 656 134 q 506 6 568 33 q 368 -20 444 -20 q 246 4 304 -20 q 144 74 189 28 q 74 185 100 119 q 47 332 47 250 q 139 588 47 488 q 378 688 230 688 q 609 593 518 688 q 701 341 701 498 m 560 340 q 550 447 560 391 q 519 543 540 504 q 463 611 498 585 q 376 636 427 636 q 287 610 324 636 q 227 540 250 585 q 197 446 205 498 q 188 343 188 393 q 198 223 188 278 q 232 124 209 168 q 290 56 255 81 q 376 31 325 31 q 511 113 461 31 q 560 340 560 195 m 605 925 q 582 866 605 890 q 525 842 558 842 q 468 866 492 842 q 445 925 445 890 q 468 984 445 960 q 525 1008 492 1008 q 582 984 558 1008 q 605 925 605 960 m 313 925 q 290 866 313 890 q 233 842 267 842 q 177 866 200 842 q 153 925 153 890 q 177 984 153 960 q 233 1008 200 1008 q 290 984 267 1008 q 313 925 313 960 z "},"":{"ha":749,"x_min":47,"x_max":701,"o":"m 701 341 q 678 202 701 271 q 614 87 656 134 q 506 6 568 33 q 368 -20 444 -20 q 246 4 304 -20 q 144 74 189 28 q 74 185 100 119 q 47 332 47 250 q 139 588 47 488 q 378 688 230 688 q 609 593 518 688 q 701 341 701 498 m 560 340 q 550 447 560 391 q 519 543 540 504 q 463 611 498 585 q 376 636 427 636 q 287 610 324 636 q 227 540 250 585 q 197 446 205 498 q 188 343 188 393 q 198 223 188 278 q 232 124 209 168 q 290 56 255 81 q 376 31 325 31 q 511 113 461 31 q 560 340 560 195 m 638 995 q 618 942 631 969 q 581 888 604 915 q 529 846 556 862 q 465 830 503 830 q 397 841 427 830 q 347 865 368 852 q 302 889 323 878 q 255 900 281 900 q 223 895 234 900 q 201 876 213 889 q 180 844 191 864 q 159 808 169 824 l 120 825 q 143 877 127 846 q 178 930 159 907 q 228 972 199 955 q 289 989 257 989 q 354 978 327 989 q 405 954 382 967 q 448 930 431 940 q 492 920 466 920 q 535 926 519 920 q 562 944 552 932 q 579 972 572 957 q 597 1010 587 987 l 638 995 z "},"":{"ha":799,"x_min":24,"x_max":766,"o":"m 766 12 l 548 -3 l 538 7 l 538 92 l 534 92 q 497 55 517 75 q 450 20 477 36 q 391 -7 420 2 q 311 -17 363 -17 q 175 41 222 -17 q 129 210 129 99 l 129 530 q 120 571 129 554 q 93 600 111 587 q 62 611 81 608 q 24 616 44 615 l 24 661 l 247 677 l 257 667 l 257 203 q 290 94 257 130 q 368 57 322 57 q 434 68 405 57 q 483 96 463 80 q 515 126 501 110 q 536 155 529 142 l 536 534 q 527 574 536 557 q 500 604 517 591 q 464 613 488 612 q 410 616 440 615 l 410 661 l 653 677 l 663 667 l 663 136 q 673 97 663 113 q 699 69 682 81 q 728 59 711 62 q 766 56 745 57 l 766 12 m 548 990 q 536 948 548 964 q 501 913 524 932 q 413 844 467 886 q 295 753 358 802 l 269 774 q 354 902 330 865 q 406 983 378 939 q 447 1030 427 1018 q 492 1043 467 1043 q 532 1026 517 1043 q 548 990 548 1010 z "},"":{"ha":799,"x_min":24,"x_max":766,"o":"m 766 12 l 548 -3 l 538 7 l 538 92 l 534 92 q 497 55 517 75 q 450 20 477 36 q 391 -7 420 2 q 311 -17 363 -17 q 175 41 222 -17 q 129 210 129 99 l 129 530 q 120 571 129 554 q 93 600 111 587 q 62 611 81 608 q 24 616 44 615 l 24 661 l 247 677 l 257 667 l 257 203 q 290 94 257 130 q 368 57 322 57 q 434 68 405 57 q 483 96 463 80 q 515 126 501 110 q 536 155 529 142 l 536 534 q 527 574 536 557 q 500 604 517 591 q 464 613 488 612 q 410 616 440 615 l 410 661 l 653 677 l 663 667 l 663 136 q 673 97 663 113 q 699 69 682 81 q 728 59 711 62 q 766 56 745 57 l 766 12 m 522 774 l 496 753 q 371 850 426 808 q 290 913 316 892 q 253 949 264 935 q 243 990 243 962 q 258 1026 243 1010 q 298 1043 274 1043 q 344 1031 325 1043 q 385 983 363 1019 q 439 898 408 946 q 522 774 470 850 z "},"":{"ha":799,"x_min":24,"x_max":766,"o":"m 766 12 l 548 -3 l 538 7 l 538 92 l 534 92 q 497 55 517 75 q 450 20 477 36 q 391 -7 420 2 q 311 -17 363 -17 q 175 41 222 -17 q 129 210 129 99 l 129 530 q 120 571 129 554 q 93 600 111 587 q 62 611 81 608 q 24 616 44 615 l 24 661 l 247 677 l 257 667 l 257 203 q 290 94 257 130 q 368 57 322 57 q 434 68 405 57 q 483 96 463 80 q 515 126 501 110 q 536 155 529 142 l 536 534 q 527 574 536 557 q 500 604 517 591 q 464 613 488 612 q 410 616 440 615 l 410 661 l 653 677 l 663 667 l 663 136 q 673 97 663 113 q 699 69 682 81 q 728 59 711 62 q 766 56 745 57 l 766 12 m 609 780 l 576 758 l 387 943 l 201 758 l 168 780 l 329 1015 q 351 1039 340 1032 q 390 1046 361 1046 q 427 1039 417 1046 q 447 1018 437 1031 l 609 780 z "},"":{"ha":799,"x_min":24,"x_max":766,"o":"m 766 12 l 548 -3 l 538 7 l 538 92 l 534 92 q 497 55 517 75 q 450 20 477 36 q 391 -7 420 2 q 311 -17 363 -17 q 175 41 222 -17 q 129 210 129 99 l 129 530 q 120 571 129 554 q 93 600 111 587 q 62 611 81 608 q 24 616 44 615 l 24 661 l 247 677 l 257 667 l 257 203 q 290 94 257 130 q 368 57 322 57 q 434 68 405 57 q 483 96 463 80 q 515 126 501 110 q 536 155 529 142 l 536 534 q 527 574 536 557 q 500 604 517 591 q 464 613 488 612 q 410 616 440 615 l 410 661 l 653 677 l 663 667 l 663 136 q 673 97 663 113 q 699 69 682 81 q 728 59 711 62 q 766 56 745 57 l 766 12 m 614 925 q 591 866 614 890 q 534 842 568 842 q 478 866 501 842 q 454 925 454 890 q 478 984 454 960 q 534 1008 501 1008 q 591 984 568 1008 q 614 925 614 960 m 323 925 q 299 866 323 890 q 243 842 276 842 q 186 866 210 842 q 163 925 163 890 q 186 984 163 960 q 243 1008 210 1008 q 299 984 276 1008 q 323 925 323 960 z "},"":{"ha":656,"x_min":69,"x_max":586,"o":"m 586 724 q 572 689 586 701 q 535 676 557 676 q 462 689 518 676 q 345 709 406 703 q 366 381 355 542 q 377 199 377 220 q 366 163 377 177 q 329 149 355 149 q 293 163 306 149 q 281 199 281 177 q 288 329 281 214 q 311 709 296 443 q 191 689 244 703 q 120 676 138 676 q 83 688 98 676 q 69 724 69 701 q 83 761 69 749 q 120 772 98 772 q 194 758 140 772 q 311 736 247 743 q 291 864 302 809 q 279 936 279 919 q 292 972 279 958 q 329 987 305 987 q 366 972 354 987 q 378 936 378 958 q 365 861 378 918 q 345 736 352 804 q 468 759 418 745 q 535 772 517 772 q 572 761 557 772 q 586 724 586 750 z "},"":{"ha":583,"x_min":71,"x_max":512,"o":"m 512 765 q 450 608 512 672 q 291 545 388 545 q 132 609 193 545 q 71 765 71 673 q 134 923 71 861 q 291 985 197 985 q 450 922 388 985 q 512 765 512 858 m 412 760 q 378 889 412 844 q 290 935 345 935 q 203 889 235 935 q 171 767 171 844 q 203 642 171 688 q 293 595 235 595 q 375 637 338 595 q 412 760 412 679 z "},"":{"ha":771,"x_min":96,"x_max":705,"o":"m 705 159 q 596 42 665 91 q 441 -13 526 -7 l 441 -203 l 386 -203 l 386 -12 q 171 97 247 0 q 96 338 96 193 q 176 569 96 469 q 386 685 257 668 l 386 865 l 441 865 l 441 688 q 607 640 541 688 q 673 512 673 592 q 655 448 673 471 q 602 426 637 426 q 538 446 557 426 q 519 492 519 467 q 529 554 519 522 q 540 602 538 586 q 501 629 528 619 q 441 640 474 638 l 441 60 q 448 59 445 60 q 455 59 450 59 q 575 92 526 59 q 666 190 624 125 l 705 159 m 386 68 l 386 637 q 329 609 356 629 q 281 554 302 588 q 247 466 260 520 q 233 344 233 412 q 273 163 233 235 q 386 68 313 92 z "},"":{"ha":864,"x_min":79,"x_max":790,"o":"m 203 120 l 790 120 l 790 0 l 79 0 l 79 100 q 156 150 126 116 q 201 229 185 184 q 222 320 216 270 q 228 421 228 370 l 115 421 l 115 486 l 228 486 q 222 568 226 513 q 218 657 218 622 q 303 894 218 801 q 526 987 389 987 q 631 969 586 987 q 705 924 676 951 q 751 860 735 895 q 768 787 768 824 q 751 727 768 753 q 697 702 735 702 q 634 722 657 702 q 611 768 611 742 q 620 829 611 798 q 631 876 628 861 q 594 914 623 895 q 524 933 566 933 q 472 926 500 933 q 417 897 445 920 q 374 836 391 876 q 357 734 357 795 q 360 614 357 691 q 363 486 363 537 l 632 486 l 632 421 l 363 421 q 323 253 363 329 q 203 126 282 178 l 203 120 z "},"":{"ha":694,"x_min":82,"x_max":612,"o":"m 612 430 q 567 303 612 362 q 443 216 522 245 q 551 139 517 184 q 584 35 584 94 q 565 -48 584 -9 q 511 -115 546 -87 q 425 -159 473 -144 q 310 -175 378 -175 q 210 -163 248 -175 q 149 -133 172 -151 q 116 -95 125 -115 q 107 -58 107 -75 q 124 -9 107 -28 q 174 10 142 10 q 213 -3 197 10 q 239 -33 229 -16 q 260 -74 250 -50 q 278 -116 270 -98 q 301 -121 289 -119 q 334 -123 314 -123 q 438 -85 396 -123 q 481 0 481 -47 q 446 80 481 41 q 292 165 411 119 q 130 268 177 210 q 82 404 82 326 q 122 522 82 469 q 245 610 162 574 q 140 687 173 645 q 107 787 107 728 q 125 865 107 829 q 178 928 142 900 q 264 970 212 954 q 380 986 317 986 q 481 974 441 986 q 543 943 521 961 q 573 905 564 926 q 582 868 582 884 q 564 819 582 837 q 515 801 547 801 q 477 813 493 801 q 450 844 462 825 q 430 884 437 865 q 411 927 422 904 q 385 932 401 930 q 355 934 369 934 q 252 899 292 934 q 212 812 212 863 q 226 764 212 785 q 267 726 240 743 q 339 687 293 707 q 419 653 385 667 q 566 556 520 611 q 612 430 612 500 m 507 398 q 455 504 507 458 q 302 585 402 550 q 213 520 240 559 q 186 431 186 481 q 237 321 186 365 q 395 235 288 278 q 482 310 457 271 q 507 398 507 350 z "},"":{"ha":545,"x_min":94,"x_max":452,"o":"m 452 406 q 399 280 452 332 q 273 227 347 227 q 146 280 199 227 q 94 406 94 332 q 146 533 94 480 q 273 585 199 585 q 399 533 347 585 q 452 406 452 480 z "},"":{"ha":694,"x_min":67,"x_max":678,"o":"m 678 912 l 603 912 l 603 -146 l 533 -146 l 533 912 l 425 912 l 425 -146 l 355 -146 l 355 479 q 145 542 224 479 q 67 718 67 604 q 140 895 67 828 q 328 962 212 962 l 678 962 l 678 912 z "},"":{"ha":762,"x_min":40,"x_max":708,"o":"m 629 547 q 686 459 663 511 q 708 338 708 408 q 623 89 708 185 q 414 -7 538 -7 q 370 -5 392 -7 q 332 0 347 -3 l 332 55 q 363 50 347 52 q 392 48 378 48 q 473 71 439 48 q 527 133 508 94 q 557 224 547 173 q 566 342 566 275 q 516 532 566 459 q 372 604 465 604 l 359 604 l 359 662 l 383 662 q 438 672 410 662 q 488 703 466 682 q 526 760 512 726 q 540 841 540 794 q 506 959 540 918 q 416 1000 472 1000 q 299 927 336 1000 q 261 719 261 854 l 261 0 l 40 0 l 40 45 q 72 48 54 46 q 101 54 90 50 q 126 76 118 60 q 134 117 134 92 l 134 682 q 149 840 134 775 q 218 964 163 905 q 317 1032 264 1013 q 422 1051 371 1051 q 510 1040 471 1051 q 585 1002 550 1029 q 638 939 618 977 q 658 845 658 901 q 639 756 658 794 q 593 693 621 718 q 535 654 566 669 q 477 637 503 640 l 477 631 q 554 603 513 624 q 629 547 595 582 z "},"":{"ha":1308,"x_min":54,"x_max":1254,"o":"m 1254 408 q 1078 -15 1254 160 q 654 -191 902 -191 q 230 -15 406 -191 q 54 408 54 160 q 230 832 54 656 q 654 1007 406 1007 q 1078 832 902 1007 q 1254 408 1254 656 m 1187 408 q 1031 788 1187 629 q 654 947 876 947 q 276 788 431 947 q 121 408 121 629 q 276 28 121 188 q 654 -131 431 -131 q 1031 28 876 -131 q 1187 408 1187 188 m 1046 98 l 851 98 q 739 250 787 189 q 642 372 692 311 l 571 372 l 571 195 q 577 167 571 180 q 600 149 583 155 q 631 142 607 146 q 667 138 654 138 l 667 98 l 369 98 l 369 138 q 402 142 381 139 q 433 149 423 144 q 455 166 448 155 q 461 195 461 178 l 461 630 q 456 658 461 646 q 433 676 452 670 q 401 685 419 681 q 369 690 382 688 l 369 729 l 703 729 q 777 721 741 729 q 844 695 814 713 q 891 649 873 677 q 909 579 909 620 q 869 463 909 505 q 750 399 829 421 q 843 287 805 333 q 910 203 880 240 q 947 168 929 179 q 983 151 966 156 q 1015 142 996 146 q 1046 138 1034 138 l 1046 98 m 783 566 q 749 651 783 622 q 650 680 715 680 l 571 680 l 571 424 l 630 424 q 742 461 701 424 q 783 566 783 498 z "},"":{"ha":1308,"x_min":54,"x_max":1254,"o":"m 1254 408 q 1078 -15 1254 160 q 654 -191 902 -191 q 230 -15 406 -191 q 54 408 54 160 q 230 832 54 656 q 654 1007 406 1007 q 1078 832 902 1007 q 1254 408 1254 656 m 1187 408 q 1031 788 1187 629 q 654 947 876 947 q 276 788 431 947 q 121 408 121 629 q 276 28 121 188 q 654 -131 431 -131 q 1031 28 876 -131 q 1187 408 1187 188 m 932 274 q 895 202 918 239 q 840 139 871 165 q 765 92 805 109 q 666 75 725 75 q 532 98 593 75 q 426 163 471 120 q 358 267 382 206 q 334 401 334 327 q 359 534 334 473 q 433 643 385 596 q 544 714 478 688 q 686 741 610 741 q 769 727 725 741 q 834 697 812 713 l 865 742 l 905 742 l 908 496 l 871 496 q 843 569 858 536 q 803 631 829 602 q 745 675 779 659 q 659 691 710 691 q 526 615 578 691 q 474 408 474 540 q 537 212 474 284 q 694 140 600 140 q 810 176 762 140 q 893 291 859 212 l 932 274 z "},"":{"ha":1309,"x_min":66,"x_max":1259,"o":"m 1259 497 l 1024 497 l 1024 532 q 1055 534 1035 532 q 1082 539 1075 536 q 1097 551 1093 547 q 1101 566 1101 556 l 1101 872 l 1090 872 l 925 512 l 903 512 l 743 879 l 732 879 l 732 632 q 737 577 732 596 q 752 549 741 559 q 782 538 761 544 q 819 532 803 532 l 819 497 l 605 497 l 605 531 q 637 536 616 533 q 669 547 659 539 q 685 571 681 555 q 689 629 689 587 l 689 865 q 684 892 689 881 q 669 911 679 903 q 644 923 659 919 q 609 928 629 926 l 609 962 l 798 962 l 941 642 l 1060 905 q 1071 937 1067 922 q 1077 962 1075 952 l 1259 962 l 1259 928 q 1229 924 1247 927 q 1204 919 1211 922 q 1191 909 1194 917 q 1188 895 1188 902 l 1188 566 q 1191 551 1188 557 q 1204 541 1194 545 q 1227 535 1211 538 q 1259 532 1244 532 l 1259 497 m 526 828 l 494 828 q 466 884 487 850 q 426 922 446 918 q 397 924 411 923 q 373 924 382 924 l 340 924 l 340 569 q 343 553 340 559 q 357 542 346 547 q 382 536 363 540 q 416 532 400 532 l 416 497 l 176 497 l 176 532 q 210 535 190 532 q 235 539 229 537 q 249 550 245 543 q 252 565 252 557 l 252 924 l 219 924 q 192 923 209 924 q 166 922 175 922 q 125 884 145 918 q 98 828 105 850 l 66 828 l 66 962 l 526 962 l 526 828 z "},"":{"ha":694,"x_min":193,"x_max":472,"o":"m 472 990 q 460 948 472 964 q 425 913 448 932 q 337 844 391 886 q 219 753 282 802 l 193 774 q 278 902 254 865 q 330 983 302 939 q 371 1030 351 1018 q 416 1043 391 1043 q 456 1026 441 1043 q 472 990 472 1010 z "},"":{"ha":694,"x_min":121,"x_max":573,"o":"m 573 925 q 550 866 573 890 q 493 842 526 842 q 436 866 460 842 q 413 925 413 890 q 436 984 413 960 q 493 1008 460 1008 q 550 984 526 1008 q 573 925 573 960 m 281 925 q 258 866 281 890 q 201 842 235 842 q 145 866 168 842 q 121 925 121 890 q 145 984 121 960 q 201 1008 168 1008 q 258 984 235 1008 q 281 925 281 960 z "},"":{"ha":893,"x_min":104,"x_max":789,"o":"m 789 211 l 438 211 l 377 0 l 298 0 l 359 211 l 104 211 l 104 296 l 384 296 l 432 463 l 104 463 l 104 548 l 455 548 l 516 759 l 595 759 l 534 548 l 789 548 l 789 463 l 509 463 l 462 296 l 789 296 l 789 211 z "},"":{"ha":1348,"x_min":-66,"x_max":1316,"o":"m 1316 283 l 1298 0 l 506 0 l 506 48 q 556 53 522 50 q 604 63 591 57 q 634 90 626 73 q 643 131 643 106 l 643 408 l 317 408 q 263 314 288 360 q 196 183 237 267 q 181 149 187 166 q 175 115 175 131 q 204 68 175 85 q 289 48 233 52 l 289 0 l -66 0 l -66 48 q -21 57 -47 50 q 22 74 5 64 q 67 112 46 87 q 104 165 87 136 q 310 524 209 345 q 519 899 411 703 q 467 909 503 905 q 404 914 432 913 l 404 962 l 1244 962 l 1244 730 l 1193 730 q 1135 840 1180 782 q 1048 903 1089 898 q 998 907 1027 906 q 932 909 969 909 l 787 909 l 787 526 l 889 526 q 965 536 941 526 q 1008 569 990 546 q 1033 622 1023 589 q 1047 684 1044 654 l 1098 684 l 1098 307 l 1047 307 q 1033 376 1044 340 q 1008 429 1021 412 q 960 463 987 455 q 889 471 934 471 l 787 471 l 787 182 q 793 114 787 139 q 817 76 800 89 q 866 59 836 63 q 952 56 896 56 q 1010 56 975 56 q 1069 58 1046 56 q 1122 68 1097 62 q 1158 87 1147 75 q 1224 186 1190 120 q 1267 283 1258 252 l 1316 283 m 643 468 l 643 903 l 591 903 l 351 468 l 643 468 z "},"":{"ha":1034,"x_min":54,"x_max":979,"o":"m 979 480 q 942 270 979 364 q 841 112 904 176 q 694 12 778 47 q 517 -24 611 -24 q 355 5 430 -24 q 223 85 281 35 l 105 -58 l 62 -24 l 184 122 q 89 282 123 189 q 54 480 54 374 q 91 689 54 597 q 192 848 127 781 q 340 951 256 916 q 517 986 425 986 q 674 958 600 986 q 810 877 749 930 l 913 1001 l 957 966 l 850 838 q 944 682 909 772 q 979 480 979 592 m 745 798 q 648 893 705 861 q 517 926 591 926 q 379 889 436 926 q 284 788 322 853 q 233 649 250 730 q 216 480 216 568 q 228 334 216 401 q 261 214 239 266 l 745 798 m 745 165 q 800 306 782 228 q 817 480 817 384 q 806 626 817 557 q 773 747 795 694 l 289 165 q 383 71 326 105 q 517 37 440 37 q 648 70 591 37 q 745 165 706 102 z "},"":{"ha":996,"x_min":52,"x_max":944,"o":"m 944 382 q 876 181 944 263 q 713 100 808 100 q 591 141 647 100 q 490 263 536 182 q 398 140 452 180 q 281 100 344 100 q 116 178 180 100 q 52 382 52 256 q 120 585 52 505 q 282 665 189 665 q 403 625 348 665 q 505 501 458 585 q 596 623 541 582 q 715 664 650 664 q 880 586 817 664 q 944 382 944 508 m 886 380 q 841 501 886 456 q 722 546 795 546 q 604 524 654 546 q 529 457 555 501 q 627 276 582 332 q 742 220 672 220 q 847 266 809 220 q 886 380 886 311 m 467 307 q 367 490 413 435 q 254 544 321 544 q 148 498 186 544 q 110 385 110 453 q 155 263 110 309 q 273 218 201 218 q 391 241 339 218 q 467 307 442 264 z "},"":{"ha":893,"x_min":101,"x_max":792,"o":"m 792 0 l 101 0 l 101 85 l 404 85 l 404 357 l 101 357 l 101 442 l 404 442 l 404 748 l 490 748 l 490 442 l 792 442 l 792 357 l 490 357 l 490 85 l 792 85 l 792 0 z "},"":{"ha":893,"x_min":123,"x_max":770,"o":"m 770 136 l 123 401 l 123 479 l 770 745 l 770 651 l 245 441 l 770 230 l 770 136 m 770 85 l 770 0 l 123 0 l 123 85 l 770 85 z "},"":{"ha":893,"x_min":123,"x_max":770,"o":"m 770 401 l 123 136 l 123 230 l 648 441 l 123 651 l 123 745 l 770 479 l 770 401 m 770 0 l 123 0 l 123 85 l 770 85 l 770 0 z "},"":{"ha":854,"x_min":-8,"x_max":869,"o":"m 869 914 q 833 905 858 913 q 797 888 808 897 q 761 864 770 872 q 724 817 751 855 q 605 629 648 703 q 492 436 562 555 l 492 380 l 759 380 l 759 315 l 492 315 l 492 140 q 501 98 492 116 q 532 69 510 80 q 577 56 544 64 q 630 48 610 49 l 630 0 l 216 0 l 216 48 q 267 53 233 50 q 315 62 301 56 q 344 89 334 71 q 353 134 353 106 l 353 315 l 87 315 l 87 380 l 353 380 l 353 423 q 253 617 294 543 q 151 799 212 692 q 112 857 129 838 q 72 892 94 877 q 33 907 56 902 q -8 914 10 913 l -8 962 l 385 962 l 385 914 q 295 905 319 911 q 271 882 271 898 q 283 850 271 874 q 323 774 294 827 q 382 666 351 721 q 467 514 413 610 q 604 745 544 643 q 664 863 664 846 q 654 888 664 879 q 626 903 644 898 q 590 910 608 909 q 549 914 572 912 l 549 962 l 869 962 l 869 914 z "},"":{"ha":787,"x_min":82,"x_max":768,"o":"m 768 13 q 712 -6 736 1 q 656 -13 687 -13 q 569 14 604 -13 q 526 92 534 40 l 522 92 q 483 52 505 74 q 439 18 460 31 q 385 -6 412 2 q 308 -14 359 -14 q 233 2 269 -14 q 179 41 197 18 l 175 41 l 175 1 q 193 -122 175 -45 q 211 -232 211 -199 q 190 -283 211 -265 q 144 -301 169 -301 q 99 -283 117 -301 q 82 -233 82 -264 q 94 -129 82 -193 q 111 -30 106 -64 q 117 37 115 7 q 119 92 119 66 l 119 669 l 247 669 l 247 210 q 278 101 247 139 q 358 62 310 62 q 425 73 395 62 q 473 98 454 84 q 503 127 490 112 q 524 157 517 143 l 524 669 l 652 669 l 652 137 q 661 91 652 108 q 690 64 670 74 q 724 57 702 58 q 768 56 745 56 l 768 13 z "},"":{"ha":800,"x_min":59,"x_max":735,"o":"m 494 161 q 544 276 522 212 q 572 386 565 341 q 562 443 570 416 q 532 492 553 469 q 485 527 513 514 q 416 540 456 540 q 260 444 328 540 q 192 220 192 348 q 198 148 192 180 q 219 89 203 116 q 259 48 234 63 q 322 33 285 33 q 419 69 375 33 q 494 161 463 106 m 311 901 q 314 868 312 888 q 317 827 317 848 q 299 769 316 791 q 239 747 283 747 q 185 769 203 747 q 168 821 168 791 q 184 876 168 847 q 230 928 201 905 q 308 971 260 954 q 416 987 356 987 q 561 956 501 987 q 661 872 621 925 q 717 751 699 819 q 735 609 735 684 q 711 404 735 516 q 636 202 686 292 q 493 34 573 89 q 321 -22 414 -22 q 127 56 196 -22 q 59 261 59 134 q 156 511 59 402 q 372 619 254 619 q 509 588 455 619 q 593 496 563 556 q 598 555 597 526 q 600 623 600 585 q 591 742 600 682 q 562 842 581 802 q 505 909 541 885 q 415 934 469 934 q 353 924 378 934 q 311 901 328 913 z "},"":{"ha":979,"x_min":14,"x_max":939,"o":"m 22 962 l 829 962 l 859 690 l 811 690 q 726 828 781 764 q 626 902 671 892 q 573 907 606 906 q 507 909 541 909 l 212 909 l 606 393 l 606 374 l 159 -159 l 699 -159 q 766 -142 735 -159 q 819 -98 796 -125 q 863 -34 844 -69 q 894 31 882 1 l 939 17 l 859 -281 l 14 -281 l 14 -248 l 486 321 l 22 932 l 22 962 z "},"":{"ha":1159,"x_min":66,"x_max":1096,"o":"m 1096 962 l 1096 901 l 957 901 l 957 -145 q 965 -185 957 -169 q 996 -214 972 -201 q 1037 -226 1007 -220 q 1083 -233 1066 -232 l 1083 -281 l 684 -281 l 684 -233 q 731 -229 700 -231 q 773 -220 762 -226 q 803 -196 793 -212 q 812 -153 812 -179 l 812 901 l 347 901 l 347 -145 q 354 -185 347 -169 q 385 -214 362 -201 q 426 -226 397 -220 q 473 -233 456 -232 l 473 -281 l 73 -281 l 73 -233 q 120 -229 90 -231 q 163 -220 151 -226 q 193 -196 183 -212 q 202 -153 202 -179 l 202 901 l 66 901 l 66 962 l 1096 962 z "},"":{"ha":694,"x_min":14,"x_max":680,"o":"m 285 648 q 302 836 285 757 q 360 964 319 916 q 440 1027 393 1003 q 532 1050 488 1050 q 602 1039 574 1050 q 646 1013 629 1028 q 672 978 664 996 q 680 940 680 959 q 664 896 680 913 q 617 878 648 878 q 552 912 568 878 q 535 998 535 947 q 529 999 531 999 q 526 1000 528 1000 q 522 1001 525 1001 q 513 1001 518 1001 q 461 979 481 1001 q 429 920 441 958 q 413 833 417 884 q 409 737 409 783 l 409 102 q 394 -82 409 -1 q 334 -214 378 -162 q 253 -279 298 -256 q 162 -301 209 -301 q 94 -291 121 -301 q 48 -264 66 -281 q 22 -229 31 -248 q 14 -191 14 -210 q 29 -148 14 -167 q 77 -128 45 -128 q 140 -160 121 -128 q 159 -249 159 -192 q 164 -250 162 -250 q 168 -251 167 -251 q 172 -251 170 -251 q 181 -252 174 -252 q 234 -229 214 -252 q 265 -171 255 -206 q 281 -88 277 -132 q 285 16 285 -43 l 285 648 z "},"":{"ha":694,"x_min":106,"x_max":633,"o":"m 633 439 q 584 425 606 431 q 536 418 562 418 q 466 440 492 418 q 433 500 440 461 l 429 500 q 348 438 392 460 q 247 416 304 416 q 146 454 186 416 q 106 551 106 493 q 115 612 106 586 q 141 659 125 639 q 178 687 157 676 q 222 706 199 697 q 332 744 269 725 q 431 783 395 764 l 431 820 q 427 848 431 827 q 414 886 423 869 q 381 921 403 906 q 323 937 359 937 q 280 928 301 937 q 250 909 260 920 q 255 879 251 899 q 260 843 260 858 q 239 809 260 823 q 186 794 218 794 q 144 815 157 794 q 132 859 132 836 q 197 948 132 911 q 330 985 262 985 q 413 978 376 985 q 479 952 451 971 q 524 898 508 932 q 540 807 540 864 q 538 671 540 728 q 536 541 536 614 q 544 508 536 521 q 568 486 552 495 q 596 480 578 481 q 633 480 614 480 l 633 439 m 431 729 q 347 702 379 713 q 283 672 315 691 q 240 632 256 656 q 224 576 224 608 q 246 511 224 532 q 304 490 268 490 q 379 508 350 490 q 429 549 408 526 l 431 729 z "},"":{"ha":694,"x_min":79,"x_max":616,"o":"m 616 704 q 542 495 616 578 q 342 411 468 411 q 156 491 233 411 q 79 696 79 571 q 154 904 79 823 q 351 985 229 985 q 542 907 469 985 q 616 704 616 828 m 456 532 q 481 608 473 564 q 490 703 490 652 q 483 787 490 745 q 460 862 476 829 q 416 915 443 895 q 349 935 389 935 q 279 915 308 935 q 234 859 251 894 q 210 784 217 827 q 203 705 203 742 q 212 611 203 654 q 237 534 220 568 q 282 481 255 501 q 349 461 310 461 q 412 480 385 461 q 456 532 439 499 z "},"":{"ha":1082,"x_min":4,"x_max":1080,"o":"m 747 121 l 898 121 q 981 166 945 121 q 1038 263 1017 212 l 1080 248 l 1001 0 l 619 0 l 619 46 q 701 166 661 105 q 764 278 741 227 q 806 394 792 338 q 819 530 819 450 q 807 660 819 586 q 768 789 795 734 q 674 892 730 859 q 542 925 618 925 q 407 889 464 925 q 317 788 351 853 q 277 665 290 734 q 265 530 265 595 q 279 398 265 458 q 321 277 292 338 q 380 171 347 221 q 465 46 413 120 l 465 0 l 83 0 l 4 248 l 46 263 q 70 215 56 239 q 101 170 83 191 q 139 135 119 148 q 186 121 159 121 l 338 121 l 338 144 q 242 255 289 199 q 168 360 196 311 q 119 473 136 414 q 102 606 102 532 q 230 875 102 764 q 542 985 359 985 q 854 875 725 985 q 983 606 983 764 q 965 473 983 534 q 918 360 948 412 q 843 255 886 307 q 747 144 800 202 l 747 121 z "},"":{"ha":1023,"x_min":55,"x_max":996,"o":"m 996 158 q 887 28 956 75 q 735 -18 819 -18 q 589 13 649 -18 q 483 110 530 44 l 479 110 q 368 12 427 42 q 230 -18 309 -18 q 104 27 153 -18 q 55 149 55 73 q 66 222 55 191 q 98 277 78 254 q 141 315 117 300 q 192 340 166 330 q 337 393 286 378 q 435 422 389 408 l 435 494 q 432 528 435 504 q 416 576 428 551 q 380 620 404 601 q 317 638 357 638 q 257 628 283 638 q 219 606 230 617 q 225 566 219 592 q 232 517 232 539 q 211 473 232 493 q 151 454 189 454 q 101 478 117 454 q 85 532 85 502 q 107 592 85 564 q 163 642 129 619 q 239 675 195 662 q 320 688 283 688 q 443 671 388 688 q 531 606 498 654 q 616 665 566 642 q 721 688 667 688 q 840 665 791 688 q 919 605 889 642 q 964 518 950 567 q 979 412 979 469 l 979 372 l 559 372 q 610 137 559 218 q 767 57 661 57 q 878 92 838 57 q 948 187 919 127 l 996 158 m 845 428 q 840 497 845 455 q 823 565 834 539 q 782 616 808 596 q 713 637 756 637 q 603 575 645 637 q 559 428 560 514 l 845 428 m 437 132 l 437 364 q 341 339 382 353 q 263 300 300 325 q 210 243 229 276 q 191 168 191 211 q 217 85 191 112 q 288 58 244 58 q 376 80 340 58 q 437 132 413 102 z "},"":{"ha":749,"x_min":47,"x_max":701,"o":"m 701 341 q 678 202 701 271 q 614 87 656 134 q 506 6 568 33 q 368 -20 444 -20 q 264 -2 314 -20 q 173 51 215 16 q 117 -18 144 16 q 87 -55 90 -52 l 48 -26 l 138 85 q 72 192 97 131 q 47 332 47 254 q 139 588 47 488 q 378 688 230 688 q 486 671 437 688 q 574 622 534 654 l 649 718 l 688 688 l 608 589 q 676 479 652 543 q 701 341 701 416 m 517 553 q 462 614 495 592 q 376 636 429 636 q 284 609 321 636 q 225 540 248 583 q 194 446 203 498 q 185 343 185 393 q 191 251 185 296 q 208 168 197 205 l 517 553 m 517 122 q 552 220 541 168 q 563 340 563 272 q 557 427 563 382 q 540 507 552 471 l 231 121 q 288 55 254 79 q 376 31 323 31 q 459 56 424 31 q 517 122 495 81 z "},"":{"ha":665,"x_min":68,"x_max":593,"o":"m 490 889 q 463 824 490 851 q 397 796 435 796 q 332 824 359 796 q 304 889 304 851 q 332 954 304 927 q 397 981 359 981 q 463 954 435 981 q 490 889 490 927 m 593 139 q 578 86 593 112 q 531 35 563 60 q 457 -2 503 14 q 361 -18 411 -18 q 234 5 289 -18 q 142 66 178 27 q 86 154 104 105 q 68 261 68 203 q 149 466 68 387 q 368 562 229 545 l 368 711 l 431 711 l 431 454 q 346 440 388 451 q 271 406 304 430 q 217 346 236 381 q 197 246 197 310 q 240 90 197 144 q 366 36 283 36 q 421 45 397 36 q 455 62 444 54 q 446 109 452 79 q 440 156 440 140 q 462 202 440 181 q 525 222 484 222 q 577 197 562 222 q 593 139 593 172 z "},"":{"ha":460,"x_min":140,"x_max":326,"o":"m 326 888 q 299 823 326 850 q 233 796 271 796 q 168 823 195 796 q 140 888 140 850 q 168 953 140 926 q 233 981 195 981 q 299 953 271 981 q 326 888 326 926 m 320 70 q 296 5 320 31 q 233 -22 271 -22 q 171 4 195 -22 q 146 70 146 31 q 168 295 146 114 q 205 673 190 477 l 258 673 q 297 309 274 509 q 320 70 320 109 z "},"":{"ha":893,"x_min":98,"x_max":789,"o":"m 789 52 l 699 52 l 699 357 l 98 357 l 98 442 l 789 442 l 789 52 z "},"":{"ha":929,"x_min":29,"x_max":970,"o":"m 970 1156 l 459 -85 l 414 -85 l 154 549 l 29 549 l 29 612 l 273 612 l 469 122 l 890 1156 l 970 1156 z "},"":{"ha":721,"x_min":-119,"x_max":715,"o":"m 715 789 q 698 738 715 757 q 649 718 682 718 q 588 746 616 718 q 532 837 560 774 q 441 766 475 828 q 391 569 406 704 l 381 487 l 555 487 l 555 422 l 375 422 q 361 282 368 351 q 343 149 353 214 q 292 -47 324 27 q 214 -168 259 -121 q 123 -229 174 -208 q 18 -250 73 -250 q -83 -223 -47 -250 q -119 -155 -119 -195 q -102 -104 -119 -125 q -54 -84 -85 -84 q 6 -111 -22 -84 q 64 -201 35 -137 q 152 -127 119 -194 q 203 66 184 -61 q 229 260 219 174 q 245 422 238 347 l 107 422 l 107 487 l 252 487 q 295 675 264 601 q 380 805 326 749 q 469 866 419 846 q 578 886 518 886 q 678 858 642 886 q 715 789 715 830 z "},"":{"ha":893,"x_min":102,"x_max":791,"o":"m 791 357 q 759 292 779 323 q 713 235 739 260 q 648 186 682 205 q 568 168 614 168 q 483 181 522 168 q 411 209 444 193 q 346 236 382 222 q 281 250 309 250 q 207 220 233 250 q 153 138 181 190 l 102 159 q 132 219 113 187 q 180 279 152 251 q 245 325 206 306 q 324 345 285 345 q 412 332 373 345 q 484 303 450 319 q 548 275 519 287 q 612 262 576 262 q 686 295 658 262 q 740 378 714 328 l 791 357 m 791 616 q 759 551 779 583 q 713 494 739 519 q 648 446 682 464 q 568 427 614 427 q 483 440 522 427 q 411 468 444 452 q 346 495 382 481 q 281 509 309 509 q 207 479 233 509 q 153 397 181 449 l 102 418 q 132 478 113 446 q 180 538 152 510 q 245 584 206 565 q 324 604 285 604 q 412 591 373 604 q 484 562 450 578 q 548 534 519 546 q 612 522 576 522 q 686 554 658 522 q 740 637 714 587 l 791 616 z "},"":{"ha":928,"x_min":13,"x_max":916,"o":"m 916 0 l 13 0 l 13 34 l 451 976 l 504 976 l 916 34 l 916 0 m 724 117 l 430 791 l 121 117 l 724 117 z "},"":{"ha":807,"x_min":115,"x_max":676,"o":"m 676 109 l 643 81 l 402 307 q 385 325 396 312 q 374 358 374 338 q 385 391 374 378 q 404 412 396 404 l 643 635 l 676 608 l 500 359 l 676 109 m 418 109 l 385 81 l 144 307 q 126 325 138 312 q 115 358 115 338 q 126 391 115 378 q 146 412 136 403 l 385 635 l 418 608 l 242 359 l 418 109 z "},"":{"ha":807,"x_min":131,"x_max":692,"o":"m 692 358 q 680 324 692 336 q 663 307 669 311 l 422 81 l 389 109 l 565 359 l 389 608 l 422 635 l 661 412 q 680 390 669 406 q 692 358 692 375 m 433 358 q 422 324 433 336 q 405 307 410 311 l 164 81 l 131 109 l 307 359 l 131 608 l 164 635 l 403 412 q 421 392 410 406 q 433 358 433 377 z "},"":{"ha":1121,"x_min":100,"x_max":1025,"o":"m 1025 74 q 999 12 1025 38 q 937 -14 972 -14 q 874 12 901 -14 q 848 74 848 38 q 874 136 848 110 q 937 163 900 163 q 999 136 973 163 q 1025 74 1025 110 m 652 74 q 625 12 652 37 q 563 -14 598 -14 q 500 12 527 -14 q 474 74 474 38 q 500 136 474 110 q 563 163 526 163 q 625 136 599 163 q 652 74 652 110 m 278 74 q 251 12 278 37 q 189 -14 224 -14 q 127 12 153 -14 q 100 74 100 38 q 126 136 100 110 q 189 163 153 163 q 252 136 225 163 q 278 74 278 110 z "},"":{"ha":932,"x_min":-28,"x_max":964,"o":"m 964 0 l 563 0 l 563 48 q 651 62 616 52 q 686 87 686 72 q 684 102 686 93 q 680 117 683 111 l 600 333 l 263 333 q 232 250 244 286 q 211 185 220 215 q 199 138 202 156 q 195 108 195 119 q 238 66 195 81 q 334 48 281 51 l 334 0 l -28 0 l -28 48 q 16 56 -10 50 q 60 73 43 62 q 102 112 87 92 q 131 167 117 132 q 291 574 203 348 q 447 976 378 800 l 501 976 l 822 146 q 845 103 832 119 q 881 71 858 87 q 922 55 897 62 q 964 48 947 49 l 964 0 m 576 393 l 430 766 l 287 393 l 576 393 m 637 1048 l 616 1022 q 474 1091 536 1061 q 381 1136 411 1121 q 333 1169 348 1153 q 319 1213 319 1185 q 336 1252 319 1236 q 381 1267 353 1267 q 419 1258 401 1267 q 459 1224 436 1249 q 529 1153 490 1192 q 637 1048 568 1114 z "},"":{"ha":932,"x_min":-28,"x_max":964,"o":"m 964 0 l 563 0 l 563 48 q 651 62 616 52 q 686 87 686 72 q 684 102 686 93 q 680 117 683 111 l 600 333 l 263 333 q 232 250 244 286 q 211 185 220 215 q 199 138 202 156 q 195 108 195 119 q 238 66 195 81 q 334 48 281 51 l 334 0 l -28 0 l -28 48 q 16 56 -10 50 q 60 73 43 62 q 102 112 87 92 q 131 167 117 132 q 291 574 203 348 q 447 976 378 800 l 501 976 l 822 146 q 845 103 832 119 q 881 71 858 87 q 922 55 897 62 q 964 48 947 49 l 964 0 m 576 393 l 430 766 l 287 393 l 576 393 m 737 1238 q 717 1185 730 1212 q 680 1131 703 1158 q 628 1089 655 1105 q 564 1073 602 1073 q 496 1084 526 1073 q 446 1107 467 1095 q 401 1132 422 1121 q 354 1143 380 1143 q 322 1137 333 1143 q 300 1119 312 1132 q 279 1087 290 1107 q 258 1050 268 1067 l 219 1067 q 242 1120 226 1089 q 277 1173 258 1150 q 327 1215 298 1198 q 388 1232 356 1232 q 453 1221 426 1232 q 504 1197 481 1210 q 547 1173 530 1183 q 591 1162 565 1162 q 634 1169 618 1162 q 661 1187 651 1175 q 679 1215 671 1200 q 696 1253 686 1230 l 737 1238 z "},"":{"ha":1034,"x_min":54,"x_max":979,"o":"m 844 848 q 943 688 907 782 q 979 480 979 594 q 943 272 979 366 q 841 113 906 178 q 694 12 778 47 q 517 -23 611 -23 q 331 15 416 -23 q 185 119 246 52 q 89 279 124 185 q 54 480 54 373 q 91 689 54 597 q 192 848 127 781 q 340 950 256 915 q 517 985 425 985 q 697 949 612 985 q 844 848 782 913 m 743 166 q 798 306 781 228 q 815 480 815 384 q 796 662 815 579 q 739 803 777 745 q 646 893 702 861 q 517 925 589 925 q 378 888 435 925 q 286 788 321 850 q 235 648 252 728 q 218 480 218 568 q 236 304 218 382 q 292 164 254 225 q 384 71 328 104 q 517 37 439 37 q 648 71 589 37 q 743 166 706 105 m 776 1244 q 755 1192 769 1219 q 718 1138 742 1164 q 667 1096 694 1112 q 603 1080 640 1080 q 535 1091 564 1080 q 485 1114 506 1102 q 440 1139 461 1128 q 393 1149 418 1149 q 361 1144 372 1149 q 339 1126 351 1139 q 317 1094 328 1114 q 297 1057 307 1074 l 258 1074 q 281 1126 264 1096 q 316 1180 297 1157 q 366 1222 336 1204 q 427 1239 395 1239 q 492 1228 465 1239 q 543 1204 519 1217 q 586 1179 568 1190 q 629 1169 604 1169 q 673 1176 656 1169 q 699 1194 690 1182 q 717 1221 710 1206 q 734 1260 724 1236 l 776 1244 z "},"":{"ha":1386,"x_min":54,"x_max":1354,"o":"m 680 59 l 680 903 q 623 905 652 904 q 575 906 593 906 q 433 883 496 906 q 321 807 370 859 q 246 677 273 758 q 218 486 218 596 q 320 175 218 294 q 586 56 421 56 q 628 57 604 56 q 680 59 652 58 m 825 182 q 831 114 825 140 q 854 76 837 88 q 903 59 873 63 q 989 56 933 56 q 1047 56 1012 56 q 1107 58 1083 56 q 1159 68 1135 62 q 1196 87 1184 75 q 1261 186 1227 120 q 1305 283 1295 252 l 1354 283 l 1335 0 l 553 0 q 287 67 408 0 q 106 248 165 135 q 68 355 82 296 q 54 488 54 415 q 99 698 54 608 q 219 848 144 788 q 387 934 292 906 q 576 962 481 962 l 1281 962 l 1281 730 l 1230 730 q 1172 840 1217 781 q 1086 903 1126 898 q 1036 907 1065 906 q 969 909 1006 909 l 825 909 l 825 526 l 926 526 q 1000 535 975 526 q 1045 569 1024 543 q 1070 622 1060 589 q 1084 684 1081 654 l 1135 684 l 1135 307 l 1084 307 q 1070 376 1082 340 q 1045 429 1058 412 q 999 463 1025 454 q 926 471 972 471 l 825 471 l 825 182 z "},"":{"ha":1134,"x_min":47,"x_max":1106,"o":"m 1106 158 q 998 28 1067 75 q 846 -18 929 -18 q 705 17 769 -18 q 601 115 640 52 q 497 16 559 52 q 359 -20 436 -20 q 242 4 298 -20 q 142 74 185 28 q 73 185 98 119 q 47 332 47 250 q 68 470 47 406 q 132 584 90 534 q 234 660 173 632 q 372 688 296 688 q 511 649 450 688 q 606 557 573 610 q 701 651 642 614 q 830 688 760 688 q 948 666 901 688 q 1028 605 996 644 q 1074 515 1059 567 q 1089 404 1089 463 l 1089 355 l 666 355 q 721 131 668 205 q 878 57 774 57 q 989 92 948 57 q 1059 187 1029 127 l 1106 158 m 956 412 q 952 491 956 452 q 933 563 948 530 q 892 616 919 595 q 822 637 865 637 q 709 571 753 637 q 666 412 666 506 l 956 412 m 534 332 q 527 446 534 389 q 501 544 519 503 q 449 611 482 586 q 366 637 416 637 q 279 610 313 637 q 224 540 245 583 q 196 446 204 499 q 187 342 187 393 q 198 219 187 275 q 229 122 208 163 q 284 55 250 79 q 366 31 317 31 q 490 105 446 31 q 534 332 534 179 z "},"":{"ha":893,"x_min":69,"x_max":824,"o":"m 824 337 l 69 337 l 69 422 l 824 422 l 824 337 z "},"":{"ha":1190,"x_min":69,"x_max":1121,"o":"m 1121 337 l 69 337 l 69 422 l 1121 422 l 1121 337 z "},"":{"ha":570,"x_min":54,"x_max":505,"o":"m 254 994 q 203 963 222 976 q 163 928 183 949 q 134 885 144 907 q 119 827 123 863 l 152 827 q 218 807 194 827 q 242 746 242 786 q 221 693 242 718 q 162 668 199 668 q 79 706 104 668 q 54 807 54 745 q 73 887 54 851 q 119 952 92 924 q 178 1002 146 981 q 230 1035 209 1022 l 254 994 m 505 994 q 454 963 473 976 q 414 928 434 949 q 384 885 394 907 q 370 827 374 863 l 403 827 q 469 807 445 827 q 493 746 493 786 q 472 693 493 718 q 413 668 450 668 q 330 706 355 668 q 304 807 304 745 q 323 887 304 851 q 370 952 342 924 q 429 1002 397 981 q 481 1035 460 1022 l 505 994 z "},"":{"ha":570,"x_min":64,"x_max":516,"o":"m 265 899 q 245 817 265 854 q 199 753 226 780 q 140 703 172 725 q 87 671 107 681 l 64 711 q 118 744 92 727 q 157 777 143 762 q 186 820 175 798 q 199 878 197 842 l 167 878 q 100 899 124 878 q 77 960 77 921 q 98 1012 77 987 q 157 1037 120 1037 q 240 999 215 1037 q 265 899 265 960 m 516 899 q 496 817 516 854 q 450 753 477 780 q 391 703 423 725 q 338 671 358 681 l 315 711 q 369 744 343 727 q 408 777 394 762 q 437 820 426 798 q 450 878 448 842 l 418 878 q 351 899 375 878 q 328 960 328 921 q 349 1012 328 987 q 408 1037 371 1037 q 491 999 466 1037 q 516 899 516 960 z "},"":{"ha":315,"x_min":52,"x_max":252,"o":"m 252 994 q 201 963 220 976 q 161 928 181 949 q 132 885 142 908 q 117 827 121 863 l 150 827 q 216 807 192 827 q 240 746 240 786 q 219 693 240 718 q 160 668 197 668 q 77 706 102 668 q 52 807 52 745 q 71 887 52 851 q 117 952 90 924 q 176 1002 144 981 q 228 1035 207 1022 l 252 994 z "},"":{"ha":315,"x_min":62,"x_max":263,"o":"m 263 899 q 244 817 263 854 q 197 753 224 780 q 138 703 170 725 q 85 671 105 681 l 62 711 q 116 744 90 727 q 155 777 141 762 q 184 820 173 798 q 197 878 195 842 l 165 878 q 98 899 122 878 q 75 960 75 921 q 96 1012 75 987 q 155 1037 118 1037 q 238 999 213 1037 q 263 899 263 960 z "},"":{"ha":893,"x_min":98,"x_max":795,"o":"m 534 655 q 509 593 534 619 q 447 568 483 568 q 385 593 411 568 q 359 655 359 619 q 385 716 359 691 q 447 741 411 741 q 509 716 483 741 q 534 655 534 691 m 795 337 l 98 337 l 98 422 l 795 422 l 795 337 m 534 104 q 509 43 534 68 q 447 18 483 18 q 385 43 411 18 q 359 104 359 68 q 385 165 359 140 q 447 191 411 191 q 509 165 483 191 q 534 104 534 140 z "},"":{"ha":780,"x_min":44,"x_max":736,"o":"m 736 389 l 390 0 l 44 389 l 390 779 l 736 389 m 629 389 l 390 664 l 151 389 l 390 115 l 629 389 z "},"":{"ha":684,"x_min":-13,"x_max":704,"o":"m -2 -218 q 17 -163 -2 -184 q 63 -142 35 -142 q 100 -150 85 -142 q 128 -171 116 -158 q 150 -199 138 -181 q 168 -228 161 -216 q 249 -132 202 -210 q 317 3 296 -55 q 201 291 253 164 q 92 553 149 418 q 48 602 79 585 q -13 624 18 619 l -13 669 l 292 669 l 292 621 q 243 613 272 621 q 215 595 215 605 q 218 581 215 591 q 225 562 221 572 q 304 368 251 494 q 386 165 357 241 q 449 316 416 238 q 523 499 482 393 q 536 535 528 512 q 545 574 545 557 q 514 607 545 591 q 456 625 484 622 l 456 669 l 704 669 l 704 627 q 650 603 684 623 q 601 547 617 583 q 457 205 520 359 q 362 -21 395 52 q 286 -169 319 -116 q 220 -253 252 -222 q 164 -291 189 -281 q 111 -301 138 -301 q 28 -276 58 -301 q -2 -218 -2 -251 m 594 925 q 571 866 594 890 q 514 842 547 842 q 457 866 481 842 q 434 925 434 890 q 457 984 434 960 q 514 1008 481 1008 q 571 984 547 1008 q 594 925 594 960 m 302 925 q 279 866 302 890 q 222 842 256 842 q 166 866 189 842 q 142 925 142 890 q 166 984 142 960 q 222 1008 189 1008 q 279 984 256 1008 q 302 925 302 960 z "},"":{"ha":854,"x_min":-30,"x_max":891,"o":"m 891 914 q 854 905 880 913 q 819 888 829 897 q 783 863 792 872 q 746 817 773 854 q 648 666 693 743 q 536 471 604 589 q 503 401 511 428 q 495 325 495 375 l 495 141 q 505 99 495 117 q 538 70 515 81 q 589 57 553 64 q 648 48 626 49 l 648 0 l 198 0 l 198 48 q 255 53 217 50 q 308 63 293 57 q 341 91 332 73 q 351 134 351 109 l 351 368 q 337 408 351 379 q 306 472 324 437 q 216 642 265 551 q 130 799 166 734 q 90 857 107 838 q 50 892 73 877 q 11 907 34 902 q -30 914 -12 913 l -30 962 l 380 962 l 380 914 q 283 905 311 913 q 254 882 254 897 q 258 867 254 878 q 270 842 262 857 q 291 801 279 824 q 314 758 303 779 q 379 637 346 697 q 466 481 412 577 q 628 748 572 652 q 684 863 684 844 q 673 888 684 879 q 642 903 661 898 q 600 910 623 909 q 557 914 576 912 l 557 962 l 891 962 l 891 914 m 686 1173 q 663 1114 686 1139 q 606 1090 640 1090 q 550 1114 573 1090 q 526 1173 526 1139 q 550 1232 526 1208 q 606 1257 573 1257 q 663 1232 640 1257 q 686 1173 686 1208 m 381 1173 q 358 1114 381 1139 q 301 1090 334 1090 q 244 1114 268 1090 q 221 1173 221 1139 q 244 1232 221 1208 q 301 1257 268 1257 q 358 1232 334 1257 q 381 1173 381 1208 z "},"":{"ha":113,"x_min":-241,"x_max":352,"o":"m 352 962 l -149 0 l -241 0 l 259 962 l 352 962 z "},"":{"ha":892,"x_min":0,"x_max":874,"o":"m 874 243 q 723 39 816 100 q 497 -22 630 -22 q 337 11 411 -22 q 202 109 262 44 q 128 221 160 153 q 86 359 96 289 l 0 359 l 24 425 l 79 425 q 78 448 78 442 q 78 472 78 454 q 79 506 78 483 q 81 543 80 530 l 0 543 l 24 608 l 90 608 q 130 731 103 671 q 203 842 157 791 q 343 947 263 911 q 518 983 422 983 q 644 966 589 983 q 750 916 698 948 l 778 962 l 832 962 l 838 619 l 783 619 q 750 728 772 669 q 699 827 728 787 q 625 900 667 873 q 526 926 584 926 q 408 897 460 926 q 316 810 356 867 q 271 716 287 767 q 248 608 255 665 l 515 608 l 490 543 l 241 543 q 240 511 241 533 q 240 481 240 490 q 240 449 240 460 q 241 425 241 437 l 446 425 l 421 359 l 248 359 q 275 258 258 304 q 319 176 293 212 q 421 86 362 119 q 547 54 479 54 q 645 72 602 54 q 722 117 688 89 q 781 185 755 147 q 823 268 807 223 l 874 243 z "},"":{"ha":576,"x_min":119,"x_max":435,"o":"m 435 109 l 401 81 l 147 307 q 130 325 140 313 q 119 358 119 338 q 129 391 119 378 q 149 412 140 404 l 401 635 l 435 608 l 252 359 l 435 109 z "},"":{"ha":576,"x_min":142,"x_max":458,"o":"m 458 358 q 447 324 458 336 q 429 307 435 312 l 175 81 l 142 109 l 324 359 l 142 608 l 175 635 l 427 412 q 446 391 435 406 q 458 358 458 375 z "},"":{"ha":809,"x_min":16,"x_max":776,"o":"m 715 60 q 744 50 730 54 q 776 45 758 46 l 776 0 l 455 0 l 455 45 q 486 48 471 46 q 513 54 501 50 q 542 75 532 60 q 551 115 551 90 l 551 543 q 546 576 551 564 q 531 604 541 589 l 275 604 l 275 121 q 284 83 275 98 q 313 60 293 68 q 345 50 328 54 q 381 45 362 46 l 381 0 l 50 0 l 50 45 q 82 48 66 46 q 111 54 99 50 q 139 75 130 60 q 149 115 149 90 l 149 601 l 16 601 l 16 666 l 149 666 l 149 682 q 173 838 149 772 q 252 962 197 904 q 343 1024 285 998 q 465 1051 402 1051 q 614 1021 562 1051 q 665 937 665 990 q 648 885 665 907 q 603 863 630 863 q 554 876 573 863 q 524 909 535 889 q 506 955 513 928 q 493 998 498 981 l 456 998 q 389 984 419 998 q 330 937 358 971 q 290 850 304 905 q 275 722 275 796 l 275 666 l 499 666 l 667 677 l 677 667 l 677 123 q 686 83 677 99 q 715 60 695 68 z "},"":{"ha":819,"x_min":16,"x_max":784,"o":"m 521 53 q 549 74 540 59 q 558 114 558 90 l 558 922 q 529 976 558 955 q 458 998 500 998 q 387 984 418 998 q 328 937 355 971 q 289 851 303 905 q 275 722 275 797 l 275 666 l 440 666 l 440 601 l 275 601 l 275 121 q 284 83 275 98 q 313 60 293 68 q 345 50 328 54 q 381 45 362 46 l 381 0 l 50 0 l 50 45 q 82 48 66 46 q 111 54 99 50 q 139 75 130 60 q 149 115 149 90 l 149 601 l 16 601 l 16 666 l 149 666 l 149 682 q 172 838 149 772 q 252 962 196 904 q 337 1022 280 994 q 465 1051 395 1051 q 551 1044 511 1051 q 620 1024 590 1037 l 675 1050 l 684 1040 l 684 122 q 693 83 684 98 q 722 60 702 68 q 751 50 736 53 q 784 45 766 46 l 784 0 l 458 0 l 458 45 q 492 48 474 46 q 521 53 509 50 z "},"":{"ha":656,"x_min":69,"x_max":586,"o":"m 586 404 q 572 368 586 379 q 535 356 557 356 q 462 371 518 356 q 345 392 406 385 q 365 268 351 325 q 378 193 378 211 q 367 156 378 170 q 329 142 355 142 q 293 156 306 142 q 279 193 279 170 q 291 263 279 214 q 311 392 302 313 q 186 369 235 382 q 120 356 138 356 q 83 367 98 356 q 69 404 69 378 q 83 440 69 427 q 120 452 98 452 q 188 440 140 452 q 311 419 235 427 q 301 487 308 456 q 292 553 294 518 l 292 575 q 301 642 294 610 q 311 709 309 673 q 191 689 244 703 q 120 676 138 676 q 83 688 98 676 q 69 724 69 701 q 83 761 69 749 q 120 772 98 772 q 185 759 138 772 q 311 736 233 746 q 291 864 302 809 q 279 936 279 919 q 292 972 279 958 q 329 987 305 987 q 366 972 354 987 q 378 936 378 958 q 365 861 378 918 q 345 736 352 804 q 468 759 418 745 q 535 772 517 772 q 572 761 557 772 q 586 724 586 750 q 572 689 586 701 q 535 676 557 676 q 462 689 518 676 q 345 709 406 703 q 354 641 347 673 q 363 575 361 610 l 363 553 q 354 487 361 518 q 345 419 347 456 q 468 440 418 427 q 535 452 517 452 q 572 440 557 452 q 586 404 586 428 z "},"":{"ha":388,"x_min":102,"x_max":288,"o":"m 288 379 q 261 314 288 341 q 195 288 233 288 q 130 314 157 288 q 102 379 102 341 q 130 445 102 417 q 195 472 157 472 q 261 445 233 472 q 288 379 288 417 z "},"":{"ha":315,"x_min":62,"x_max":263,"o":"m 263 22 q 244 -59 263 -22 q 197 -123 224 -96 q 138 -173 170 -151 q 85 -205 105 -195 l 62 -165 q 116 -132 90 -149 q 155 -99 141 -115 q 184 -57 173 -79 q 197 1 195 -35 l 165 1 q 98 23 122 1 q 75 83 75 45 q 96 136 75 111 q 155 161 118 161 q 238 122 213 161 q 263 22 263 84 z "},"":{"ha":570,"x_min":64,"x_max":516,"o":"m 265 22 q 245 -59 265 -22 q 199 -123 226 -96 q 140 -173 172 -151 q 87 -205 107 -195 l 64 -165 q 118 -132 92 -149 q 157 -99 143 -115 q 186 -57 175 -79 q 199 1 197 -35 l 167 1 q 100 23 124 1 q 77 83 77 45 q 98 136 77 111 q 157 161 120 161 q 240 122 215 161 q 265 22 265 84 m 516 22 q 496 -59 516 -22 q 450 -123 477 -96 q 391 -173 423 -151 q 338 -205 358 -195 l 315 -165 q 369 -132 343 -149 q 408 -99 394 -115 q 437 -57 426 -79 q 450 1 448 -35 l 418 1 q 351 23 375 1 q 328 83 328 45 q 349 136 328 111 q 408 161 371 161 q 491 122 466 161 q 516 22 516 84 z "},"":{"ha":1674,"x_min":74,"x_max":1600,"o":"m 534 734 q 470 549 534 615 q 304 484 406 484 q 138 549 202 484 q 74 734 74 615 q 137 916 74 847 q 304 985 199 985 q 471 916 408 985 q 534 734 534 847 m 420 734 q 391 879 420 823 q 304 935 361 935 q 217 879 246 935 q 189 734 189 823 q 218 589 189 644 q 304 534 247 534 q 390 589 361 534 q 420 734 420 644 m 1061 229 q 997 44 1061 110 q 831 -22 932 -22 q 665 44 729 -22 q 601 229 601 110 q 664 411 601 342 q 831 480 726 480 q 998 411 935 480 q 1061 229 1061 342 m 947 229 q 918 374 947 317 q 831 430 888 430 q 744 374 773 430 q 715 229 715 317 q 745 84 715 139 q 831 28 774 28 q 917 84 888 28 q 947 229 947 139 m 1017 966 l 217 0 l 123 0 l 921 966 l 1017 966 m 1600 229 q 1536 44 1600 110 q 1370 -22 1472 -22 q 1204 44 1268 -22 q 1140 229 1140 110 q 1203 411 1140 342 q 1371 480 1265 480 q 1537 411 1474 480 q 1600 229 1600 342 m 1486 229 q 1457 374 1486 317 q 1371 430 1428 430 q 1283 374 1312 430 q 1255 229 1255 317 q 1284 84 1255 139 q 1370 28 1313 28 q 1456 84 1427 28 q 1486 229 1486 139 z "},"":{"ha":932,"x_min":-28,"x_max":964,"o":"m 964 0 l 563 0 l 563 48 q 651 62 616 52 q 686 87 686 72 q 684 102 686 93 q 680 117 683 111 l 600 333 l 263 333 q 232 250 244 286 q 211 185 220 215 q 199 138 202 156 q 195 108 195 119 q 238 66 195 81 q 334 48 281 51 l 334 0 l -28 0 l -28 48 q 16 56 -10 50 q 60 73 43 62 q 102 112 87 92 q 131 167 117 132 q 291 574 203 348 q 447 976 378 800 l 501 976 l 822 146 q 845 103 832 119 q 881 71 858 87 q 922 55 897 62 q 964 48 947 49 l 964 0 m 576 393 l 430 766 l 287 393 l 576 393 m 696 1044 l 663 1022 l 474 1166 l 288 1022 l 255 1044 l 414 1236 q 438 1259 426 1251 q 477 1267 450 1267 q 515 1259 505 1267 q 536 1239 526 1252 l 696 1044 z "},"":{"ha":907,"x_min":58,"x_max":876,"o":"m 876 283 l 857 0 l 58 0 l 58 48 q 113 54 79 50 q 157 63 146 58 q 187 90 178 73 q 195 131 195 106 l 195 823 q 188 862 195 845 q 157 890 180 880 q 107 906 138 899 q 58 914 77 913 l 58 962 l 803 962 l 803 730 l 752 730 q 693 840 739 782 q 608 903 648 898 q 557 907 587 906 q 491 909 528 909 l 340 909 l 340 526 l 448 526 q 525 536 500 526 q 567 569 549 546 q 592 622 582 589 q 606 684 603 654 l 657 684 l 657 307 l 606 307 q 592 376 604 340 q 567 429 580 412 q 519 463 546 455 q 448 471 492 471 l 340 471 l 340 182 q 346 114 340 139 q 370 76 352 89 q 418 59 387 63 q 505 56 448 56 q 564 56 527 56 q 625 58 600 56 q 679 68 651 61 q 718 87 706 75 q 783 186 749 120 q 827 283 817 252 l 876 283 m 681 1044 l 648 1022 l 459 1166 l 273 1022 l 240 1044 l 399 1236 q 423 1259 411 1251 q 462 1267 435 1267 q 500 1259 490 1267 q 521 1239 511 1252 l 681 1044 z "},"":{"ha":932,"x_min":-28,"x_max":964,"o":"m 964 0 l 563 0 l 563 48 q 651 62 616 52 q 686 87 686 72 q 684 102 686 93 q 680 117 683 111 l 600 333 l 263 333 q 232 250 244 286 q 211 185 220 215 q 199 138 202 156 q 195 108 195 119 q 238 66 195 81 q 334 48 281 51 l 334 0 l -28 0 l -28 48 q 16 56 -10 50 q 60 73 43 62 q 102 112 87 92 q 131 167 117 132 q 291 574 203 348 q 447 976 378 800 l 501 976 l 822 146 q 845 103 832 119 q 881 71 858 87 q 922 55 897 62 q 964 48 947 49 l 964 0 m 576 393 l 430 766 l 287 393 l 576 393 m 606 1136 q 513 1091 576 1121 q 371 1022 450 1061 l 350 1048 q 451 1146 412 1107 q 528 1224 490 1184 q 567 1257 549 1247 q 606 1267 585 1267 q 650 1251 631 1267 q 668 1213 668 1236 q 650 1166 668 1183 q 606 1136 633 1149 z "},"":{"ha":907,"x_min":58,"x_max":876,"o":"m 876 283 l 857 0 l 58 0 l 58 48 q 113 54 79 50 q 157 63 146 58 q 187 90 178 73 q 195 131 195 106 l 195 823 q 188 862 195 845 q 157 890 180 880 q 107 906 138 899 q 58 914 77 913 l 58 962 l 803 962 l 803 730 l 752 730 q 693 840 739 782 q 608 903 648 898 q 557 907 587 906 q 491 909 528 909 l 340 909 l 340 526 l 448 526 q 525 536 500 526 q 567 569 549 546 q 592 622 582 589 q 606 684 603 654 l 657 684 l 657 307 l 606 307 q 592 376 604 340 q 567 429 580 412 q 519 463 546 455 q 448 471 492 471 l 340 471 l 340 182 q 346 114 340 139 q 370 76 352 89 q 418 59 387 63 q 505 56 448 56 q 564 56 527 56 q 625 58 600 56 q 679 68 651 61 q 718 87 706 75 q 783 186 749 120 q 827 283 817 252 l 876 283 m 699 1173 q 676 1114 699 1139 q 619 1090 652 1090 q 563 1114 586 1090 q 539 1173 539 1139 q 563 1232 539 1208 q 619 1257 586 1257 q 676 1232 652 1257 q 699 1173 699 1208 m 394 1173 q 371 1114 394 1139 q 314 1090 347 1090 q 257 1114 281 1090 q 234 1173 234 1139 q 257 1232 234 1208 q 314 1257 281 1257 q 371 1232 347 1257 q 394 1173 394 1208 z "},"":{"ha":907,"x_min":58,"x_max":876,"o":"m 876 283 l 857 0 l 58 0 l 58 48 q 113 54 79 50 q 157 63 146 58 q 187 90 178 73 q 195 131 195 106 l 195 823 q 188 862 195 845 q 157 890 180 880 q 107 906 138 899 q 58 914 77 913 l 58 962 l 803 962 l 803 730 l 752 730 q 693 840 739 782 q 608 903 648 898 q 557 907 587 906 q 491 909 528 909 l 340 909 l 340 526 l 448 526 q 525 536 500 526 q 567 569 549 546 q 592 622 582 589 q 606 684 603 654 l 657 684 l 657 307 l 606 307 q 592 376 604 340 q 567 429 580 412 q 519 463 546 455 q 448 471 492 471 l 340 471 l 340 182 q 346 114 340 139 q 370 76 352 89 q 418 59 387 63 q 505 56 448 56 q 564 56 527 56 q 625 58 600 56 q 679 68 651 61 q 718 87 706 75 q 783 186 749 120 q 827 283 817 252 l 876 283 m 574 1048 l 553 1022 q 411 1091 473 1061 q 318 1136 348 1121 q 270 1169 285 1153 q 256 1213 256 1185 q 273 1252 256 1236 q 318 1267 290 1267 q 356 1258 338 1267 q 396 1224 373 1249 q 466 1153 427 1192 q 574 1048 505 1114 z "},"":{"ha":541,"x_min":54,"x_max":487,"o":"m 487 0 l 54 0 l 54 48 q 106 52 72 50 q 155 60 141 55 q 188 84 178 69 q 198 127 198 100 l 198 824 q 191 864 198 848 q 155 890 183 880 q 104 906 135 899 q 54 914 73 913 l 54 962 l 487 962 l 487 914 q 437 909 466 913 q 386 898 408 905 q 351 871 360 890 q 342 831 342 853 l 342 134 q 352 95 342 112 q 386 67 362 77 q 432 55 400 62 q 487 48 465 49 l 487 0 m 369 1136 q 276 1091 339 1121 q 134 1022 214 1061 l 113 1048 q 214 1146 175 1107 q 291 1224 253 1184 q 331 1257 313 1247 q 369 1267 349 1267 q 413 1251 395 1267 q 431 1213 431 1236 q 414 1166 431 1183 q 369 1136 396 1149 z "},"":{"ha":541,"x_min":50,"x_max":491,"o":"m 487 0 l 54 0 l 54 48 q 106 52 72 50 q 155 60 141 55 q 188 84 178 69 q 198 127 198 100 l 198 824 q 191 864 198 848 q 155 890 183 880 q 104 906 135 899 q 54 914 73 913 l 54 962 l 487 962 l 487 914 q 437 909 466 913 q 386 898 408 905 q 351 871 360 890 q 342 831 342 853 l 342 134 q 352 95 342 112 q 386 67 362 77 q 432 55 400 62 q 487 48 465 49 l 487 0 m 491 1044 l 458 1022 l 269 1166 l 83 1022 l 50 1044 l 209 1236 q 233 1259 221 1251 q 272 1267 245 1267 q 310 1259 300 1267 q 331 1239 321 1252 l 491 1044 z "},"":{"ha":541,"x_min":45,"x_max":496,"o":"m 487 0 l 54 0 l 54 48 q 106 52 72 50 q 155 60 141 55 q 188 84 178 69 q 198 127 198 100 l 198 824 q 191 864 198 848 q 155 890 183 880 q 104 906 135 899 q 54 914 73 913 l 54 962 l 487 962 l 487 914 q 437 909 466 913 q 386 898 408 905 q 351 871 360 890 q 342 831 342 853 l 342 134 q 352 95 342 112 q 386 67 362 77 q 432 55 400 62 q 487 48 465 49 l 487 0 m 496 1173 q 473 1114 496 1139 q 416 1090 450 1090 q 360 1114 383 1090 q 336 1173 336 1139 q 360 1232 336 1208 q 416 1257 383 1257 q 473 1232 450 1257 q 496 1173 496 1208 m 205 1173 q 181 1114 205 1139 q 125 1090 158 1090 q 68 1114 92 1090 q 45 1173 45 1139 q 68 1232 45 1208 q 125 1257 92 1257 q 181 1232 158 1257 q 205 1173 205 1208 z "},"":{"ha":541,"x_min":54,"x_max":487,"o":"m 487 0 l 54 0 l 54 48 q 106 52 72 50 q 155 60 141 55 q 188 84 178 69 q 198 127 198 100 l 198 824 q 191 864 198 848 q 155 890 183 880 q 104 906 135 899 q 54 914 73 913 l 54 962 l 487 962 l 487 914 q 437 909 466 913 q 386 898 408 905 q 351 871 360 890 q 342 831 342 853 l 342 134 q 352 95 342 112 q 386 67 362 77 q 432 55 400 62 q 487 48 465 49 l 487 0 m 457 1048 l 436 1022 q 294 1091 357 1061 q 201 1136 231 1121 q 154 1169 168 1153 q 139 1213 139 1185 q 156 1252 139 1236 q 201 1267 173 1267 q 239 1258 222 1267 q 279 1224 256 1249 q 350 1153 311 1192 q 457 1048 389 1114 z "},"":{"ha":1034,"x_min":54,"x_max":979,"o":"m 844 848 q 943 688 907 782 q 979 480 979 594 q 943 272 979 366 q 841 113 906 178 q 694 12 778 47 q 517 -23 611 -23 q 331 15 416 -23 q 185 119 246 52 q 89 279 124 185 q 54 480 54 373 q 91 689 54 597 q 192 848 127 781 q 340 950 256 915 q 517 985 425 985 q 697 949 612 985 q 844 848 782 913 m 743 166 q 798 306 781 228 q 815 480 815 384 q 796 662 815 579 q 739 803 777 745 q 646 893 702 861 q 517 925 589 925 q 378 888 435 925 q 286 788 321 850 q 235 648 252 728 q 218 480 218 568 q 236 304 218 382 q 292 164 254 225 q 384 71 328 104 q 517 37 439 37 q 648 71 589 37 q 743 166 706 105 m 619 1136 q 527 1091 589 1121 q 385 1022 464 1061 l 363 1048 q 464 1146 425 1107 q 541 1224 503 1184 q 581 1257 563 1247 q 619 1267 599 1267 q 663 1251 645 1267 q 682 1213 682 1236 q 664 1166 682 1183 q 619 1136 646 1149 z "},"":{"ha":1034,"x_min":54,"x_max":979,"o":"m 844 848 q 943 688 907 782 q 979 480 979 594 q 943 272 979 366 q 841 113 906 178 q 694 12 778 47 q 517 -23 611 -23 q 331 15 416 -23 q 185 119 246 52 q 89 279 124 185 q 54 480 54 373 q 91 689 54 597 q 192 848 127 781 q 340 950 256 915 q 517 985 425 985 q 697 949 612 985 q 844 848 782 913 m 743 166 q 798 306 781 228 q 815 480 815 384 q 796 662 815 579 q 739 803 777 745 q 646 893 702 861 q 517 925 589 925 q 378 888 435 925 q 286 788 321 850 q 235 648 252 728 q 218 480 218 568 q 236 304 218 382 q 292 164 254 225 q 384 71 328 104 q 517 37 439 37 q 648 71 589 37 q 743 166 706 105 m 737 1044 l 705 1022 l 515 1166 l 329 1022 l 296 1044 l 455 1236 q 479 1259 467 1251 q 518 1267 491 1267 q 556 1259 546 1267 q 577 1239 567 1252 l 737 1044 z "},"":{"ha":1034,"x_min":54,"x_max":979,"o":"m 844 848 q 943 688 907 782 q 979 480 979 594 q 943 272 979 366 q 841 113 906 178 q 694 12 778 47 q 517 -23 611 -23 q 331 15 416 -23 q 185 119 246 52 q 89 279 124 185 q 54 480 54 373 q 91 689 54 597 q 192 848 127 781 q 340 950 256 915 q 517 985 425 985 q 697 949 612 985 q 844 848 782 913 m 743 166 q 798 306 781 228 q 815 480 815 384 q 796 662 815 579 q 739 803 777 745 q 646 893 702 861 q 517 925 589 925 q 378 888 435 925 q 286 788 321 850 q 235 648 252 728 q 218 480 218 568 q 236 304 218 382 q 292 164 254 225 q 384 71 328 104 q 517 37 439 37 q 648 71 589 37 q 743 166 706 105 m 699 1048 l 678 1022 q 536 1091 599 1061 q 444 1136 473 1121 q 396 1169 410 1153 q 381 1213 381 1185 q 398 1252 381 1236 q 444 1267 415 1267 q 481 1258 464 1267 q 522 1224 498 1249 q 592 1153 553 1192 q 699 1048 631 1114 z "},"":{"ha":1050,"x_min":50,"x_max":1040,"o":"m 1040 914 q 984 906 1021 913 q 924 884 947 899 q 892 819 901 868 q 884 700 884 770 l 884 281 q 850 142 884 201 q 763 45 817 83 q 650 -7 709 9 q 536 -23 591 -23 q 382 0 450 -23 q 268 61 314 22 q 199 150 222 100 q 176 254 176 199 l 176 823 q 169 862 176 846 q 137 892 161 878 q 94 907 120 901 q 50 914 67 913 l 50 962 l 451 962 l 451 914 q 403 908 432 913 q 361 898 374 903 q 330 871 338 890 q 322 829 322 852 l 322 298 q 331 217 322 259 q 364 138 339 174 q 436 77 391 100 q 561 53 481 53 q 686 77 635 53 q 766 139 736 100 q 805 216 793 176 q 817 296 817 256 l 817 691 q 806 814 817 766 q 774 877 795 862 q 709 903 750 894 q 646 914 668 913 l 646 962 l 1040 962 l 1040 914 m 651 1136 q 558 1091 621 1121 q 416 1022 496 1061 l 395 1048 q 496 1146 457 1107 q 573 1224 535 1184 q 613 1257 595 1247 q 651 1267 631 1267 q 695 1251 677 1267 q 713 1213 713 1236 q 696 1166 713 1183 q 651 1136 678 1149 z "},"":{"ha":1050,"x_min":50,"x_max":1040,"o":"m 1040 914 q 984 906 1021 913 q 924 884 947 899 q 892 819 901 868 q 884 700 884 770 l 884 281 q 850 142 884 201 q 763 45 817 83 q 650 -7 709 9 q 536 -23 591 -23 q 382 0 450 -23 q 268 61 314 22 q 199 150 222 100 q 176 254 176 199 l 176 823 q 169 862 176 846 q 137 892 161 878 q 94 907 120 901 q 50 914 67 913 l 50 962 l 451 962 l 451 914 q 403 908 432 913 q 361 898 374 903 q 330 871 338 890 q 322 829 322 852 l 322 298 q 331 217 322 259 q 364 138 339 174 q 436 77 391 100 q 561 53 481 53 q 686 77 635 53 q 766 139 736 100 q 805 216 793 176 q 817 296 817 256 l 817 691 q 806 814 817 766 q 774 877 795 862 q 709 903 750 894 q 646 914 668 913 l 646 962 l 1040 962 l 1040 914 m 770 1044 l 737 1022 l 548 1166 l 361 1022 l 329 1044 l 488 1236 q 512 1259 500 1251 q 551 1267 524 1267 q 589 1259 578 1267 q 610 1239 600 1252 l 770 1044 z "},"":{"ha":1050,"x_min":50,"x_max":1040,"o":"m 1040 914 q 984 906 1021 913 q 924 884 947 899 q 892 819 901 868 q 884 700 884 770 l 884 281 q 850 142 884 201 q 763 45 817 83 q 650 -7 709 9 q 536 -23 591 -23 q 382 0 450 -23 q 268 61 314 22 q 199 150 222 100 q 176 254 176 199 l 176 823 q 169 862 176 846 q 137 892 161 878 q 94 907 120 901 q 50 914 67 913 l 50 962 l 451 962 l 451 914 q 403 908 432 913 q 361 898 374 903 q 330 871 338 890 q 322 829 322 852 l 322 298 q 331 217 322 259 q 364 138 339 174 q 436 77 391 100 q 561 53 481 53 q 686 77 635 53 q 766 139 736 100 q 805 216 793 176 q 817 296 817 256 l 817 691 q 806 814 817 766 q 774 877 795 862 q 709 903 750 894 q 646 914 668 913 l 646 962 l 1040 962 l 1040 914 m 692 1048 l 671 1022 q 529 1091 592 1061 q 437 1136 467 1121 q 389 1169 404 1153 q 374 1213 374 1185 q 391 1252 374 1236 q 437 1267 408 1267 q 474 1258 457 1267 q 515 1224 492 1249 q 585 1153 546 1192 q 692 1048 624 1114 z "},"":{"ha":407,"x_min":29,"x_max":374,"o":"m 374 0 l 50 0 l 50 45 q 82 47 66 46 q 111 53 99 49 q 139 74 130 59 q 149 114 149 90 l 149 527 q 139 567 149 549 q 111 597 129 585 q 74 611 98 605 q 29 618 50 616 l 29 662 l 265 677 l 275 667 l 275 122 q 284 83 275 98 q 313 60 293 67 q 342 50 328 54 q 374 45 356 46 l 374 0 z "},"":{"ha":694,"x_min":127,"x_max":568,"o":"m 568 780 l 535 758 l 346 943 l 159 758 l 127 780 l 288 1015 q 310 1039 299 1032 q 349 1046 320 1046 q 386 1039 376 1046 q 406 1018 396 1031 l 568 780 z "},"":{"ha":694,"x_min":88,"x_max":606,"o":"m 606 995 q 586 942 600 969 q 549 888 572 915 q 497 846 524 862 q 433 830 471 830 q 366 841 395 830 q 315 865 336 852 q 270 889 292 878 q 223 900 249 900 q 192 895 202 900 q 170 876 181 889 q 148 844 159 864 q 127 808 137 824 l 88 825 q 111 877 95 846 q 146 930 127 907 q 196 972 167 955 q 257 989 225 989 q 322 978 295 989 q 373 954 350 967 q 416 930 399 940 q 460 920 434 920 q 504 926 487 920 q 530 944 520 932 q 548 972 541 957 q 565 1010 555 987 l 606 995 z "},"":{"ha":694,"x_min":115,"x_max":580,"o":"m 580 876 l 115 876 l 115 962 l 580 962 l 580 876 z "},"":{"ha":694,"x_min":135,"x_max":559,"o":"m 559 1014 q 488 825 541 886 q 347 764 435 764 q 205 828 258 764 q 135 1014 152 892 l 172 1022 q 195 961 182 990 q 227 911 209 932 q 275 878 248 890 q 347 866 302 866 q 417 878 389 866 q 466 910 446 889 q 499 960 486 931 q 522 1022 512 988 l 559 1014 z "},"":{"ha":694,"x_min":260,"x_max":434,"o":"m 434 941 q 409 874 434 902 q 346 846 383 846 q 286 872 311 846 q 260 935 260 899 q 286 999 260 972 q 346 1026 311 1026 q 409 1001 385 1026 q 434 941 434 975 z "},"":{"ha":694,"x_min":172,"x_max":522,"o":"m 522 907 q 474 798 522 840 q 347 755 426 755 q 220 797 268 755 q 172 907 172 838 q 223 1015 172 973 q 347 1057 274 1057 q 473 1016 423 1057 q 522 907 522 975 m 437 907 q 414 983 437 953 q 347 1014 391 1014 q 281 985 304 1014 q 258 907 258 956 q 281 829 258 860 q 347 799 304 799 q 414 829 391 799 q 437 907 437 859 z "},"":{"ha":694,"x_min":208,"x_max":479,"o":"m 427 -87 q 465 -118 450 -98 q 479 -168 479 -138 q 457 -235 479 -208 q 397 -277 435 -262 q 314 -296 359 -290 q 208 -301 269 -301 l 208 -252 q 269 -252 236 -252 q 324 -245 301 -251 q 366 -227 351 -239 q 381 -191 381 -214 q 344 -149 381 -158 q 269 -140 307 -140 l 269 12 l 323 12 l 323 -67 q 378 -71 353 -67 q 427 -87 402 -75 z "},"":{"ha":694,"x_min":131,"x_max":628,"o":"m 628 990 q 617 948 628 964 q 585 913 607 932 q 511 850 557 890 q 396 753 465 810 l 372 772 q 448 897 420 849 q 496 981 476 944 q 532 1029 515 1015 q 572 1043 548 1043 q 612 1026 596 1043 q 628 990 628 1010 m 376 989 q 367 950 376 966 q 336 913 359 935 q 270 854 313 894 q 156 753 227 814 l 131 772 q 207 904 182 859 q 246 981 231 949 q 279 1029 263 1015 q 321 1043 296 1043 q 360 1026 344 1043 q 376 989 376 1009 z "},"":{"ha":694,"x_min":208,"x_max":467,"o":"m 467 -301 l 389 -301 q 255 -266 302 -301 q 208 -170 208 -230 q 247 -71 208 -121 q 368 26 286 -21 l 409 26 q 341 -47 368 -5 q 315 -147 315 -88 q 321 -190 315 -172 q 345 -223 328 -209 q 393 -245 363 -238 q 467 -252 423 -253 l 467 -301 z "},"":{"ha":694,"x_min":127,"x_max":568,"o":"m 568 1024 l 406 786 q 386 765 394 771 q 349 758 378 758 q 308 766 318 758 q 288 789 298 773 l 127 1024 l 159 1046 l 346 861 l 535 1046 l 568 1024 z "},"":{"ha":838,"x_min":61,"x_max":839,"o":"m 839 286 l 819 0 l 66 0 l 66 48 q 114 53 83 50 q 157 62 144 56 q 186 87 177 71 q 195 131 195 104 l 195 424 l 85 378 l 61 437 l 195 492 l 195 820 q 188 861 195 843 q 157 889 180 878 q 113 905 141 897 q 66 914 85 913 l 66 962 l 473 962 l 473 914 q 424 907 454 913 q 380 897 393 901 q 348 869 357 888 q 340 827 340 849 l 340 547 l 524 623 l 547 564 l 340 479 l 340 180 q 344 111 340 136 q 365 73 349 86 q 411 57 380 60 q 498 53 442 53 q 550 54 523 53 q 602 60 577 56 q 645 71 625 64 q 675 89 665 78 q 740 183 703 120 q 791 286 777 247 l 839 286 z "},"":{"ha":397,"x_min":1,"x_max":379,"o":"m 379 514 l 262 466 l 262 122 q 271 83 262 98 q 300 60 280 68 q 329 50 315 53 q 362 45 344 46 l 362 0 l 36 0 l 36 45 q 69 48 52 46 q 98 53 87 50 q 127 74 117 59 q 136 114 136 90 l 136 418 l 43 378 l 20 433 l 136 481 l 136 888 q 126 934 136 913 q 98 968 115 956 q 54 983 86 976 q 1 991 21 989 l 1 1034 l 253 1050 l 262 1040 l 262 529 l 356 569 l 379 514 z "},"":{"ha":779,"x_min":64,"x_max":725,"o":"m 665 441 q 710 367 696 408 q 725 273 725 327 q 631 63 725 146 q 397 -20 536 -20 q 268 0 332 -20 q 157 49 203 20 l 127 -1 l 73 -1 l 64 329 l 119 329 q 158 219 136 268 q 218 127 181 170 q 301 63 254 87 q 410 39 348 39 q 492 52 457 39 q 549 86 527 64 q 581 139 570 109 q 591 208 591 169 q 559 316 591 266 q 462 391 526 366 q 361 430 418 409 q 262 471 304 452 q 136 567 181 507 q 91 722 91 626 q 113 824 91 777 q 177 909 136 871 q 270 964 216 944 q 382 984 323 984 q 501 964 448 984 q 597 916 553 943 l 625 962 l 679 962 l 684 643 l 629 643 q 596 748 614 698 q 547 839 577 798 q 476 902 518 878 q 373 925 434 925 q 263 884 309 925 q 218 783 218 842 q 247 679 218 720 q 332 612 276 638 q 429 571 381 588 q 522 534 477 553 q 600 494 562 516 q 665 441 637 471 m 616 1245 l 457 1053 q 435 1028 443 1035 q 394 1022 427 1022 q 356 1029 366 1022 q 335 1050 345 1037 l 175 1245 l 208 1267 l 397 1122 l 583 1267 l 616 1245 z "},"":{"ha":600,"x_min":50,"x_max":548,"o":"m 490 328 q 533 271 518 303 q 548 193 548 239 q 478 41 548 100 q 298 -18 409 -18 q 191 3 240 -18 q 121 42 142 24 l 107 -2 l 56 -2 l 50 231 l 96 231 q 119 169 102 204 q 162 105 137 134 q 225 55 189 75 q 309 35 262 35 q 409 64 374 35 q 444 149 444 94 q 433 198 444 177 q 400 234 422 218 q 345 262 378 250 q 273 287 313 275 q 202 313 241 296 q 135 352 163 330 q 86 410 105 376 q 67 492 67 445 q 128 631 67 574 q 292 688 189 688 q 372 677 331 688 q 439 653 413 667 l 454 688 l 503 688 l 513 473 l 467 473 q 405 590 452 545 q 290 635 358 635 q 203 608 235 635 q 171 541 171 580 q 181 490 171 510 q 213 455 192 469 q 264 430 233 441 q 340 403 295 418 q 425 370 385 389 q 490 328 465 351 m 526 1024 l 363 786 q 344 765 352 771 q 307 758 336 758 q 266 766 276 758 q 245 789 256 773 l 85 1024 l 117 1046 l 304 861 l 493 1046 l 526 1024 z "},"":{"ha":836,"x_min":18,"x_max":823,"o":"m 823 300 l 791 0 l 18 0 l 18 24 l 624 909 l 402 909 q 337 907 363 909 q 290 902 311 906 q 189 828 245 893 q 104 690 133 763 l 57 690 l 86 962 l 807 962 l 807 939 l 201 54 l 430 54 q 553 62 488 54 q 637 90 618 70 q 720 193 682 132 q 776 300 758 254 l 823 300 m 646 1245 l 488 1053 q 466 1028 473 1035 q 425 1022 458 1022 q 386 1029 397 1022 q 366 1050 376 1037 l 205 1245 l 238 1267 l 427 1122 l 614 1267 l 646 1245 z "},"":{"ha":616,"x_min":37,"x_max":578,"o":"m 578 0 l 37 0 l 37 36 l 416 614 l 322 614 q 230 612 263 614 q 169 598 197 610 q 133 555 150 591 q 104 463 117 520 l 63 463 l 63 669 l 574 669 l 574 641 l 190 55 q 243 54 214 54 q 307 54 273 54 q 363 54 334 54 q 439 58 393 55 q 480 76 466 59 q 501 115 494 93 q 519 169 509 134 q 538 236 530 203 l 578 236 l 578 0 m 530 1024 l 368 786 q 349 765 357 771 q 311 758 340 758 q 271 766 281 758 q 250 789 261 773 l 90 1024 l 122 1046 l 309 861 l 498 1046 l 530 1024 z "},"":{"ha":521,"x_min":218,"x_max":304,"o":"m 304 490 l 218 490 l 218 1033 l 304 1033 l 304 490 m 304 -288 l 218 -288 l 218 262 l 304 262 l 304 -288 z "},"":{"ha":1040,"x_min":64,"x_max":988,"o":"m 988 475 q 942 262 988 353 q 822 115 896 172 q 654 28 747 57 q 463 0 562 0 l 64 0 l 64 48 q 115 52 83 48 q 157 60 146 56 q 186 86 177 69 q 195 128 195 104 l 195 475 l 69 475 l 69 542 l 195 542 l 195 823 q 188 864 195 846 q 157 893 180 882 q 111 908 136 903 q 69 914 87 913 l 69 962 l 490 962 q 661 936 576 962 q 807 863 745 909 q 940 705 892 803 q 988 475 988 608 m 822 476 q 796 651 822 573 q 721 788 770 730 q 606 876 674 844 q 454 907 538 907 q 392 906 427 907 q 340 905 357 905 l 340 542 l 544 542 l 544 475 l 340 475 l 340 165 q 376 79 340 103 q 486 56 412 56 q 637 86 572 56 q 741 171 701 117 q 803 303 783 228 q 822 476 822 378 z "},"":{"ha":739,"x_min":47,"x_max":688,"o":"m 688 414 q 601 97 688 215 q 361 -21 514 -21 q 244 2 300 -21 q 144 70 189 24 q 74 180 100 115 q 47 330 47 246 q 134 574 47 479 q 355 668 220 668 q 468 639 419 668 q 539 574 516 610 l 545 575 q 501 736 534 662 q 427 870 467 811 l 270 777 l 236 829 l 391 918 q 339 971 370 945 q 278 1017 309 996 l 312 1055 q 387 1010 343 1040 q 456 955 430 980 l 594 1038 l 629 985 l 500 911 q 640 692 593 812 q 688 414 688 572 m 506 129 q 536 228 526 172 q 546 347 546 284 q 498 541 546 467 q 370 614 451 614 q 282 590 317 614 q 226 527 248 566 q 197 441 207 492 q 188 338 188 391 q 235 107 188 184 q 368 31 283 31 q 451 58 416 31 q 506 129 486 85 z "},"":{"ha":854,"x_min":-30,"x_max":891,"o":"m 891 914 q 854 905 880 913 q 819 888 829 897 q 783 863 792 872 q 746 817 773 854 q 648 666 693 743 q 536 471 604 589 q 503 401 511 428 q 495 325 495 375 l 495 141 q 505 99 495 117 q 538 70 515 81 q 589 57 553 64 q 648 48 626 49 l 648 0 l 198 0 l 198 48 q 255 53 217 50 q 308 63 293 57 q 341 91 332 73 q 351 134 351 109 l 351 368 q 337 408 351 379 q 306 472 324 437 q 216 642 265 551 q 130 799 166 734 q 90 857 107 838 q 50 892 73 877 q 11 907 34 902 q -30 914 -12 913 l -30 962 l 380 962 l 380 914 q 283 905 311 913 q 254 882 254 897 q 258 867 254 878 q 270 842 262 857 q 291 801 279 824 q 314 758 303 779 q 379 637 346 697 q 466 481 412 577 q 628 748 572 652 q 684 863 684 844 q 673 888 684 879 q 642 903 661 898 q 600 910 623 909 q 557 914 576 912 l 557 962 l 891 962 l 891 914 m 591 1136 q 498 1091 561 1121 q 356 1022 435 1061 l 335 1048 q 436 1146 397 1107 q 513 1224 475 1184 q 552 1257 534 1247 q 591 1267 570 1267 q 635 1251 616 1267 q 653 1213 653 1236 q 635 1166 653 1183 q 591 1136 618 1149 z "},"":{"ha":684,"x_min":-13,"x_max":704,"o":"m -2 -218 q 17 -163 -2 -184 q 63 -142 35 -142 q 100 -150 85 -142 q 128 -171 116 -158 q 150 -199 138 -181 q 168 -228 161 -216 q 249 -132 202 -210 q 317 3 296 -55 q 201 291 253 164 q 92 553 149 418 q 48 602 79 585 q -13 624 18 619 l -13 669 l 292 669 l 292 621 q 243 613 272 621 q 215 595 215 605 q 218 581 215 591 q 225 562 221 572 q 304 368 251 494 q 386 165 357 241 q 449 316 416 238 q 523 499 482 393 q 536 535 528 512 q 545 574 545 557 q 514 607 545 591 q 456 625 484 622 l 456 669 l 704 669 l 704 627 q 650 603 684 623 q 601 547 617 583 q 457 205 520 359 q 362 -21 395 52 q 286 -169 319 -116 q 220 -253 252 -222 q 164 -291 189 -281 q 111 -301 138 -301 q 28 -276 58 -301 q -2 -218 -2 -251 m 515 990 q 503 948 515 964 q 468 913 491 932 q 379 844 434 886 q 262 753 325 802 l 236 774 q 321 902 297 865 q 373 983 345 939 q 414 1030 394 1018 q 459 1043 433 1043 q 499 1026 484 1043 q 515 990 515 1010 z "},"":{"ha":853,"x_min":65,"x_max":806,"o":"m 806 513 q 777 380 806 436 q 698 288 747 323 q 587 236 649 254 q 454 219 525 219 l 340 219 l 340 131 q 347 89 340 107 q 379 62 355 71 q 421 53 391 57 q 477 48 452 49 l 477 0 l 66 0 l 66 48 q 114 53 83 50 q 157 62 144 56 q 186 87 177 71 q 195 131 195 104 l 195 824 q 188 863 195 846 q 157 890 180 880 q 111 906 137 899 q 65 914 85 913 l 65 962 l 470 962 l 470 914 q 421 908 450 913 q 379 898 393 903 q 348 872 356 890 q 340 831 340 854 l 340 768 l 511 768 q 723 698 639 768 q 806 513 806 628 m 601 359 q 631 428 624 393 q 638 492 638 463 q 629 572 638 531 q 596 643 619 612 q 532 693 571 675 q 435 711 493 711 l 340 711 l 340 279 l 414 279 q 532 302 487 279 q 601 359 578 325 z "},"":{"ha":777,"x_min":-13,"x_max":727,"o":"m 643 589 q 705 479 683 542 q 727 336 727 416 q 701 191 727 256 q 631 79 675 125 q 530 7 585 33 q 412 -18 474 -18 q 313 -4 351 -18 q 250 28 274 9 l 244 28 l 244 -173 q 254 -214 244 -197 q 283 -237 263 -230 q 329 -249 298 -243 q 379 -256 359 -255 l 379 -301 l 5 -301 l 5 -256 q 46 -253 26 -254 q 81 -245 66 -251 q 110 -222 102 -239 q 118 -182 118 -205 l 118 892 q 106 938 116 914 q 80 973 97 962 q 37 985 68 981 q -13 991 6 989 l -13 1034 l 235 1050 l 244 1040 l 244 595 l 248 592 q 336 660 283 633 q 439 687 388 687 q 554 660 502 687 q 643 589 606 633 m 585 330 q 574 433 585 380 q 541 524 564 485 q 480 587 517 563 q 391 612 443 612 q 305 590 340 612 q 244 537 270 568 l 244 142 q 264 104 250 123 q 295 70 278 84 q 340 42 316 53 q 400 32 365 32 q 473 52 438 32 q 532 109 509 72 q 572 206 559 151 q 585 330 585 262 z "},"":{"ha":893,"x_min":101,"x_max":792,"o":"m 792 337 l 101 337 l 101 422 l 792 422 l 792 337 z "},"":{"ha":893,"x_min":141,"x_max":751,"o":"m 751 135 l 691 75 l 446 321 l 201 74 l 141 134 l 388 380 l 141 625 l 201 684 l 446 439 l 692 685 l 751 625 l 505 380 l 751 135 z "},"":{"ha":694,"x_min":149,"x_max":535,"o":"m 535 332 l 152 332 l 152 380 q 209 384 172 381 q 259 391 245 386 q 281 406 273 395 q 290 435 290 417 l 290 863 l 149 863 l 149 916 l 191 916 q 290 935 244 916 q 359 980 336 954 l 409 980 q 406 899 408 949 q 404 819 404 848 l 404 440 q 412 412 404 425 q 433 394 420 400 q 480 385 446 389 q 535 380 513 380 l 535 332 z "},"":{"ha":694,"x_min":100,"x_max":610,"o":"m 610 332 l 100 332 l 100 408 q 180 494 126 452 q 311 585 235 537 q 364 625 335 600 q 408 671 393 650 q 439 727 429 698 q 450 802 450 757 q 416 901 450 867 q 329 935 383 935 q 263 921 290 935 q 223 890 235 908 q 232 853 227 874 q 237 810 237 833 q 219 774 237 789 q 164 758 200 758 q 118 780 132 758 q 104 827 104 801 q 175 937 104 889 q 339 985 245 985 q 513 934 446 985 q 580 797 580 883 q 565 708 580 746 q 524 644 549 671 q 465 596 498 616 q 397 559 432 576 q 291 503 353 538 q 189 430 229 467 l 610 430 l 610 332 z "},"":{"ha":694,"x_min":86,"x_max":597,"o":"m 539 629 q 581 581 564 610 q 597 509 597 551 q 519 366 597 424 q 311 309 441 309 q 153 348 219 309 q 86 444 86 387 q 102 493 86 475 q 143 512 118 512 q 197 497 178 512 q 215 463 215 481 q 210 428 215 448 q 201 394 205 408 q 248 369 218 380 q 315 358 279 358 q 425 397 383 358 q 467 512 467 436 q 461 558 467 536 q 440 597 455 581 q 398 623 425 614 q 328 633 370 633 l 256 633 l 256 696 l 307 696 q 407 730 377 696 q 437 831 437 763 q 409 908 437 880 q 328 937 381 937 q 272 926 297 937 q 231 897 247 916 q 239 862 235 885 q 244 824 244 840 q 225 791 244 806 q 172 776 205 776 q 126 795 140 776 q 113 839 113 814 q 127 888 113 864 q 174 936 142 913 q 250 971 201 956 q 350 985 298 985 q 457 969 413 985 q 526 927 500 953 q 559 876 551 902 q 568 833 568 850 q 561 788 568 812 q 538 745 553 764 q 494 708 522 726 q 422 677 467 690 l 422 671 q 484 657 450 669 q 539 629 517 646 z "},"":{"ha":1458,"x_min":89,"x_max":1386,"o":"m 475 332 l 92 332 l 92 380 q 149 384 112 381 q 199 391 185 386 q 221 406 212 395 q 229 435 229 417 l 229 863 l 89 863 l 89 916 l 131 916 q 230 935 184 916 q 299 980 276 954 l 349 980 q 346 899 347 949 q 344 819 344 848 l 344 440 q 352 412 344 425 q 373 394 359 400 q 419 385 386 389 q 475 380 453 380 l 475 332 m 975 962 l 473 0 l 382 0 l 882 962 l 975 962 m 1386 0 l 876 0 l 876 75 q 956 162 902 119 q 1087 253 1010 205 q 1140 293 1111 268 q 1184 338 1168 317 q 1215 395 1204 366 q 1225 469 1225 425 q 1192 568 1225 534 q 1105 602 1159 602 q 1039 589 1066 602 q 999 558 1011 576 q 1008 521 1003 542 q 1013 478 1013 500 q 995 441 1013 457 q 940 426 976 426 q 893 447 907 426 q 880 495 880 469 q 950 605 880 557 q 1115 653 1021 653 q 1289 602 1221 653 q 1356 465 1356 551 q 1340 376 1356 414 q 1300 312 1325 338 q 1241 264 1274 284 q 1173 227 1208 243 q 1067 170 1129 205 q 965 98 1005 135 l 1386 98 l 1386 0 z "},"":{"ha":1458,"x_min":89,"x_max":1348,"o":"m 475 332 l 92 332 l 92 380 q 149 384 112 381 q 199 391 185 386 q 221 406 212 395 q 229 435 229 417 l 229 863 l 89 863 l 89 916 l 131 916 q 230 935 184 916 q 299 980 276 954 l 349 980 q 346 899 347 949 q 344 819 344 848 l 344 440 q 352 412 344 425 q 373 394 359 400 q 419 385 386 389 q 475 380 453 380 l 475 332 m 981 962 l 480 0 l 389 0 l 888 962 l 981 962 m 1348 144 l 1240 144 l 1240 -14 l 1128 -14 l 1128 144 l 792 144 l 792 229 l 1160 652 l 1240 652 l 1240 218 l 1348 218 l 1348 144 m 1128 218 l 1128 525 l 861 218 l 1128 218 z "},"":{"ha":1458,"x_min":79,"x_max":1409,"o":"m 532 629 q 574 581 557 610 q 590 509 590 551 q 512 366 590 424 q 304 309 434 309 q 146 348 212 309 q 79 444 79 387 q 95 493 79 475 q 136 512 111 512 q 190 497 172 512 q 208 463 208 481 q 203 428 208 448 q 194 394 198 408 q 241 369 211 380 q 308 358 272 358 q 418 397 376 358 q 460 512 460 436 q 454 558 460 536 q 433 597 448 581 q 391 623 418 614 q 321 633 363 633 l 249 633 l 249 696 l 300 696 q 400 730 370 696 q 431 831 431 763 q 402 908 431 880 q 321 937 374 937 q 265 926 290 937 q 224 897 240 916 q 233 862 228 885 q 237 824 237 840 q 218 791 237 806 q 165 776 199 776 q 120 795 134 776 q 106 839 106 814 q 121 888 106 864 q 168 936 136 913 q 243 971 195 956 q 343 985 291 985 q 450 969 406 985 q 519 927 494 953 q 552 876 544 902 q 561 833 561 850 q 554 788 561 812 q 531 745 547 764 q 487 708 515 726 q 416 677 460 690 l 416 671 q 477 657 444 669 q 532 629 510 646 m 1084 962 l 583 0 l 492 0 l 991 962 l 1084 962 m 1409 144 l 1301 144 l 1301 -14 l 1189 -14 l 1189 144 l 853 144 l 853 229 l 1221 652 l 1301 652 l 1301 218 l 1409 218 l 1409 144 m 1189 218 l 1189 525 l 922 218 l 1189 218 z "},"":{"ha":864,"x_min":71,"x_max":811,"o":"m 811 722 l 760 722 q 700 838 745 779 q 614 903 654 898 q 565 907 593 906 q 499 909 536 909 l 349 909 l 349 543 l 455 543 q 527 552 499 543 q 575 583 555 560 q 599 623 589 598 q 613 680 609 648 l 665 680 l 665 349 l 613 349 q 600 399 609 370 q 575 448 590 429 q 524 482 552 475 q 455 488 495 488 l 349 488 l 349 313 l 527 313 l 527 248 l 349 248 l 349 136 q 358 96 349 113 q 389 67 367 78 q 433 56 399 62 q 485 48 467 49 l 485 0 l 71 0 l 71 48 q 125 53 92 50 q 170 60 159 56 q 199 86 190 69 q 208 128 208 104 l 208 248 l 77 248 l 77 313 l 208 313 l 208 823 q 201 862 208 845 q 170 890 193 880 q 120 906 151 899 q 71 914 90 913 l 71 962 l 811 962 l 811 722 z "},"":{"ha":1007,"x_min":53,"x_max":998,"o":"m 998 385 q 954 378 981 382 q 909 366 926 374 q 881 337 889 355 q 872 293 872 318 l 872 218 q 873 109 872 137 q 876 62 874 80 q 696 -1 785 21 q 520 -22 606 -22 q 342 12 428 -22 q 193 111 257 47 q 91 267 129 175 q 53 473 53 359 q 89 677 53 583 q 192 840 125 771 q 346 946 256 908 q 536 983 435 983 q 678 964 618 983 q 785 916 739 944 l 812 962 l 867 962 l 873 626 l 817 626 q 782 735 803 682 q 728 832 761 789 q 647 900 694 875 q 532 926 599 926 q 403 896 460 926 q 304 808 346 867 q 240 668 262 752 q 218 480 218 584 q 240 308 218 389 q 304 168 262 227 q 409 73 346 107 q 552 38 472 38 q 661 56 612 38 q 730 95 710 75 q 736 166 736 130 q 736 227 736 202 l 736 280 q 729 331 736 309 q 696 363 721 353 q 636 378 674 373 q 576 385 597 383 l 576 434 l 998 434 l 998 385 m 746 1255 q 675 1092 728 1146 q 530 1038 622 1038 q 386 1093 441 1038 q 315 1255 332 1148 l 352 1266 q 412 1171 372 1204 q 530 1138 453 1138 q 648 1171 608 1138 q 709 1266 689 1204 l 746 1255 z "},"":{"ha":707,"x_min":28,"x_max":680,"o":"m 622 69 q 665 11 649 43 q 680 -70 680 -22 q 659 -160 680 -118 q 595 -234 638 -203 q 487 -283 550 -266 q 331 -301 424 -301 q 104 -257 179 -301 q 28 -127 28 -212 q 83 -18 28 -58 q 221 26 137 22 l 221 35 q 179 51 201 41 q 142 72 157 60 q 113 105 124 86 q 102 153 102 125 q 128 219 102 189 q 205 271 153 250 l 205 281 q 104 360 140 312 q 68 471 68 408 q 139 627 68 566 q 320 688 210 688 q 381 682 351 688 q 442 666 411 675 l 675 666 l 675 601 l 518 601 l 518 597 q 555 532 543 568 q 568 463 568 497 q 496 314 568 375 q 330 253 425 253 l 248 253 q 215 233 232 248 q 198 195 198 219 q 212 156 198 170 q 247 138 227 143 q 293 132 267 133 q 347 130 319 130 q 428 125 376 129 q 502 121 480 122 q 565 106 533 120 q 622 69 596 93 m 439 466 q 407 592 439 545 q 316 640 374 640 q 261 626 284 640 q 224 589 239 613 q 205 535 211 566 q 199 470 199 503 q 232 347 199 395 q 317 300 265 300 q 407 347 376 300 q 439 466 439 394 m 569 -95 q 551 -33 569 -57 q 498 1 534 -8 q 420 7 479 3 q 283 10 361 10 q 179 -38 210 -4 q 148 -124 148 -71 q 158 -170 148 -148 q 193 -210 168 -191 q 257 -238 217 -227 q 355 -250 297 -250 q 512 -211 454 -250 q 569 -95 569 -173 m 547 1014 q 475 825 528 886 q 334 764 422 764 q 192 828 245 764 q 122 1014 139 892 l 159 1022 q 182 961 169 990 q 214 911 196 932 q 262 878 235 890 q 334 866 289 866 q 405 878 376 866 q 453 910 433 889 q 486 960 473 931 q 509 1022 499 988 l 547 1014 z "},"":{"ha":541,"x_min":54,"x_max":487,"o":"m 487 0 l 54 0 l 54 48 q 106 52 72 50 q 155 60 141 55 q 188 84 178 69 q 198 127 198 100 l 198 824 q 191 864 198 848 q 155 890 183 880 q 104 906 135 899 q 54 914 73 913 l 54 962 l 487 962 l 487 914 q 437 909 466 913 q 386 898 408 905 q 351 871 360 890 q 342 831 342 853 l 342 134 q 352 95 342 112 q 386 67 362 77 q 432 55 400 62 q 487 48 465 49 l 487 0 m 358 1179 q 333 1112 358 1140 q 270 1084 307 1084 q 210 1110 235 1084 q 184 1173 184 1137 q 210 1237 184 1210 q 270 1264 235 1264 q 333 1239 309 1264 q 358 1179 358 1213 z "},"":{"ha":779,"x_min":64,"x_max":725,"o":"m 458 -191 q 420 -149 458 -158 q 346 -140 383 -140 q 346 -77 346 -130 q 346 -16 346 -24 q 247 6 294 -10 q 157 49 200 23 l 127 -1 l 73 -1 l 64 329 l 119 329 q 158 219 136 268 q 218 127 181 170 q 301 63 254 87 q 410 39 348 39 q 492 52 457 39 q 549 86 527 64 q 581 139 570 109 q 591 208 591 169 q 559 316 591 266 q 462 391 526 366 q 361 430 418 409 q 262 471 304 452 q 136 567 181 507 q 91 722 91 626 q 113 824 91 777 q 177 909 136 871 q 270 964 216 944 q 382 984 323 984 q 501 964 448 984 q 597 916 553 943 l 625 962 l 679 962 l 684 643 l 629 643 q 596 748 614 698 q 547 839 577 798 q 476 902 518 878 q 373 925 434 925 q 263 884 309 925 q 218 783 218 842 q 247 679 218 720 q 332 612 276 638 q 429 571 381 588 q 522 534 477 553 q 600 494 562 516 q 665 441 637 471 q 710 367 696 408 q 725 273 725 327 q 633 64 725 148 q 399 -19 542 -19 l 399 -67 q 454 -71 430 -67 q 504 -87 479 -75 q 541 -119 526 -99 q 555 -168 555 -138 q 534 -235 555 -208 q 473 -277 512 -262 q 391 -296 437 -291 q 285 -301 345 -301 l 285 -252 q 346 -251 313 -252 q 401 -245 380 -250 q 443 -227 428 -239 q 458 -191 458 -214 z "},"":{"ha":600,"x_min":50,"x_max":548,"o":"m 356 -191 q 319 -149 356 -158 q 244 -140 281 -140 q 244 -78 244 -130 q 244 -12 244 -26 q 170 12 199 -3 q 121 42 140 26 l 107 -2 l 56 -2 l 50 231 l 96 231 q 119 169 102 204 q 162 105 137 134 q 225 55 189 75 q 309 35 262 35 q 409 64 374 35 q 444 149 444 94 q 433 198 444 177 q 400 234 422 218 q 345 262 378 250 q 273 287 313 275 q 202 313 241 296 q 135 352 163 330 q 86 410 105 376 q 67 492 67 445 q 128 631 67 574 q 292 688 189 688 q 372 677 331 688 q 439 653 413 667 l 454 688 l 503 688 l 513 473 l 467 473 q 405 590 452 545 q 290 635 358 635 q 203 608 235 635 q 171 541 171 580 q 181 490 171 510 q 213 455 192 469 q 264 430 233 441 q 340 403 295 418 q 425 370 385 389 q 490 328 465 351 q 533 271 518 303 q 548 193 548 239 q 478 42 548 100 q 298 -17 408 -17 l 298 -67 q 353 -71 328 -67 q 402 -87 377 -75 q 439 -119 425 -99 q 454 -168 454 -138 q 432 -235 454 -208 q 372 -277 410 -262 q 290 -296 336 -291 q 183 -301 243 -301 l 183 -252 q 244 -251 211 -252 q 299 -245 278 -250 q 341 -227 326 -239 q 356 -191 356 -214 z "},"":{"ha":892,"x_min":53,"x_max":874,"o":"m 490 -22 q 325 12 404 -22 q 185 109 246 45 q 89 265 125 173 q 53 472 53 357 q 88 681 53 587 q 186 843 123 775 q 332 947 248 910 q 511 983 416 983 q 640 966 583 983 q 750 916 698 948 l 778 962 l 832 962 l 838 619 l 783 619 q 750 728 772 669 q 699 827 728 787 q 622 900 667 873 q 519 926 577 926 q 397 897 454 926 q 299 810 340 867 q 237 671 260 755 q 215 481 215 586 q 238 312 215 389 q 305 177 262 235 q 408 87 349 119 q 541 54 467 54 q 642 72 595 54 q 722 117 688 89 q 781 185 755 147 q 823 268 807 223 l 874 243 q 720 39 816 100 q 490 -22 623 -22 m 596 1136 q 504 1091 566 1121 q 361 1022 441 1061 l 340 1048 q 441 1146 402 1107 q 518 1224 480 1184 q 558 1257 540 1247 q 596 1267 576 1267 q 640 1251 622 1267 q 659 1213 659 1236 q 641 1166 659 1183 q 596 1136 623 1149 z "},"":{"ha":631,"x_min":49,"x_max":627,"o":"m 358 -18 q 131 79 213 -18 q 49 337 49 175 q 71 469 49 408 q 135 581 93 530 q 235 658 175 629 q 367 688 296 688 q 527 641 465 688 q 589 512 589 593 q 572 452 589 478 q 519 426 556 426 q 457 446 479 426 q 435 492 435 467 q 443 554 435 522 q 452 602 451 587 q 416 630 440 623 q 364 637 392 637 q 302 623 332 637 q 245 572 273 609 q 204 480 220 538 q 189 342 189 422 q 244 137 189 216 q 391 57 300 57 q 502 89 457 57 q 584 184 546 121 l 627 156 q 509 29 583 76 q 358 -18 436 -18 m 489 990 q 477 948 489 964 q 442 913 465 932 q 354 844 408 886 q 236 753 299 802 l 210 774 q 295 902 271 865 q 347 983 319 939 q 388 1030 368 1018 q 433 1043 408 1043 q 473 1026 458 1043 q 489 990 489 1010 z "},"":{"ha":892,"x_min":53,"x_max":874,"o":"m 490 -22 q 325 12 404 -22 q 185 109 246 45 q 89 265 125 173 q 53 472 53 357 q 88 681 53 587 q 186 843 123 775 q 332 947 248 910 q 511 983 416 983 q 640 966 583 983 q 750 916 698 948 l 778 962 l 832 962 l 838 619 l 783 619 q 750 728 772 669 q 699 827 728 787 q 622 900 667 873 q 519 926 577 926 q 397 897 454 926 q 299 810 340 867 q 237 671 260 755 q 215 481 215 586 q 238 312 215 389 q 305 177 262 235 q 408 87 349 119 q 541 54 467 54 q 642 72 595 54 q 722 117 688 89 q 781 185 755 147 q 823 268 807 223 l 874 243 q 720 39 816 100 q 490 -22 623 -22 m 729 1245 l 570 1053 q 548 1028 556 1035 q 507 1022 541 1022 q 469 1029 479 1022 q 448 1050 458 1037 l 288 1245 l 321 1267 l 510 1122 l 696 1267 l 729 1245 z "},"":{"ha":631,"x_min":49,"x_max":627,"o":"m 358 -18 q 131 79 213 -18 q 49 337 49 175 q 71 469 49 408 q 135 581 93 530 q 235 658 175 629 q 367 688 296 688 q 527 641 465 688 q 589 512 589 593 q 572 452 589 478 q 519 426 556 426 q 457 446 479 426 q 435 492 435 467 q 443 554 435 522 q 452 602 451 587 q 416 630 440 623 q 364 637 392 637 q 302 623 332 637 q 245 572 273 609 q 204 480 220 538 q 189 342 189 422 q 244 137 189 216 q 391 57 300 57 q 502 89 457 57 q 584 184 546 121 l 627 156 q 509 29 583 76 q 358 -18 436 -18 m 574 1024 l 412 786 q 393 765 401 771 q 355 758 385 758 q 315 766 325 758 q 294 789 305 773 l 134 1024 l 166 1046 l 353 861 l 542 1046 l 574 1024 z "},"":{"ha":798,"x_min":49,"x_max":810,"o":"m 781 12 l 548 -3 l 538 7 l 538 69 l 532 71 q 445 6 497 31 q 338 -19 393 -19 q 228 6 281 -19 q 136 78 175 32 q 72 191 96 125 q 49 336 49 256 q 74 473 49 408 q 143 587 99 538 q 244 660 184 633 q 367 687 304 687 q 459 675 414 687 q 536 645 504 663 l 536 793 l 292 793 l 292 851 l 537 851 l 537 878 q 527 934 537 915 q 500 965 517 953 q 449 984 481 978 q 380 992 417 989 l 380 1034 l 653 1050 l 663 1040 l 663 851 l 810 851 l 810 793 l 663 793 l 663 138 q 672 97 663 114 q 699 69 682 81 q 736 59 712 61 q 781 56 761 57 l 781 12 m 536 130 l 536 521 q 519 559 531 538 q 488 596 507 579 q 442 624 469 613 q 380 635 416 635 q 306 614 340 635 q 245 554 271 593 q 205 457 220 516 q 191 328 191 399 q 201 224 191 271 q 238 138 212 178 q 299 77 262 100 q 387 54 336 54 q 476 77 441 54 q 536 130 512 101 z "},"":{"ha":893,"x_min":-3,"x_max":897,"o":"m 897 1087 l -3 1087 l -3 1156 l 897 1156 l 897 1087 z "},"":{"ha":388,"x_min":102,"x_max":288,"o":"m 288 379 q 261 314 288 341 q 195 288 233 288 q 130 314 157 288 q 102 379 102 341 q 130 445 102 417 q 195 472 157 472 q 261 445 233 472 q 288 379 288 417 z "},"":{"ha":932,"x_min":-28,"x_max":964,"o":"m 964 0 l 563 0 l 563 48 q 651 62 616 52 q 686 87 686 72 q 684 102 686 93 q 680 117 683 111 l 600 333 l 263 333 q 232 250 244 286 q 211 185 220 215 q 199 138 202 156 q 195 108 195 119 q 238 66 195 81 q 334 48 281 51 l 334 0 l -28 0 l -28 48 q 16 56 -10 50 q 60 73 43 62 q 102 112 87 92 q 131 167 117 132 q 291 574 203 348 q 447 976 378 800 l 501 976 l 822 146 q 845 103 832 119 q 881 71 858 87 q 922 55 897 62 q 964 48 947 49 l 964 0 m 576 393 l 430 766 l 287 393 l 576 393 m 689 1255 q 618 1092 671 1146 q 473 1038 565 1038 q 329 1093 384 1038 q 258 1255 275 1148 l 295 1266 q 355 1171 315 1204 q 473 1138 396 1138 q 591 1171 551 1138 q 652 1266 632 1204 l 689 1255 z "},"":{"ha":700,"x_min":54,"x_max":682,"o":"m 682 12 q 626 -6 650 1 q 572 -14 602 -14 q 487 11 519 -14 q 447 83 456 36 l 443 83 q 348 9 399 35 q 227 -17 298 -17 q 103 29 151 -17 q 54 150 54 75 q 65 219 54 189 q 98 274 76 250 q 142 310 115 294 q 195 336 170 326 q 318 378 225 347 q 444 427 412 410 l 444 494 q 440 528 444 503 q 425 576 437 553 q 386 620 411 601 q 316 638 361 638 q 258 628 285 638 q 220 606 231 617 q 227 566 220 592 q 233 517 233 539 q 212 473 233 493 q 153 454 191 454 q 103 478 119 454 q 87 532 87 502 q 109 591 87 563 q 166 642 131 620 q 240 674 197 661 q 325 688 283 688 q 424 680 382 688 q 501 646 467 672 q 554 578 536 621 q 572 467 572 535 q 570 295 572 370 q 568 132 568 220 q 577 90 568 105 q 605 63 586 74 q 637 56 615 57 q 682 56 659 56 l 682 12 m 446 370 q 345 337 388 353 q 264 296 301 321 q 210 242 230 273 q 191 167 191 210 q 220 84 191 111 q 295 58 250 58 q 380 81 343 58 q 441 136 416 104 l 446 370 m 547 1014 q 476 825 528 886 q 335 764 423 764 q 193 828 245 764 q 123 1014 140 892 l 160 1022 q 183 961 170 990 q 215 911 197 932 q 263 878 236 890 q 335 866 290 866 q 405 878 376 866 q 454 910 434 889 q 487 960 473 931 q 510 1022 500 988 l 547 1014 z "},"":{"ha":932,"x_min":-28,"x_max":964,"o":"m 755 0 l 563 0 l 563 48 q 651 62 616 52 q 686 87 686 72 q 684 102 686 93 q 680 117 683 111 l 600 333 l 263 333 q 232 250 244 286 q 211 185 220 215 q 199 138 202 156 q 195 108 195 119 q 238 66 195 81 q 334 48 281 51 l 334 0 l -28 0 l -28 48 q 16 56 -10 50 q 60 73 43 62 q 102 112 87 92 q 131 167 117 132 q 291 574 203 348 q 447 976 378 800 l 501 976 l 822 146 q 845 103 832 119 q 881 71 858 87 q 922 55 897 62 q 964 48 947 49 l 964 0 l 808 0 q 761 -65 777 -30 q 745 -147 745 -100 q 751 -190 745 -172 q 775 -223 758 -209 q 823 -245 793 -238 q 897 -252 853 -253 l 897 -301 l 819 -301 q 685 -266 732 -301 q 637 -170 637 -230 q 667 -84 637 -127 q 755 0 696 -41 m 576 393 l 430 766 l 287 393 l 576 393 z "},"":{"ha":700,"x_min":54,"x_max":682,"o":"m 372 -170 q 402 -82 372 -126 q 496 5 433 -39 q 464 37 475 18 q 447 83 452 55 l 443 83 q 348 9 399 35 q 227 -17 298 -17 q 103 29 151 -17 q 54 150 54 75 q 65 219 54 189 q 98 274 76 250 q 142 310 115 294 q 195 336 170 326 q 318 378 225 347 q 444 427 412 410 l 444 494 q 440 528 444 503 q 425 576 437 553 q 386 620 411 601 q 316 638 361 638 q 258 628 285 638 q 220 606 231 617 q 227 566 220 592 q 233 517 233 539 q 212 473 233 493 q 153 454 191 454 q 103 478 119 454 q 87 532 87 502 q 109 591 87 563 q 166 642 131 620 q 240 674 197 661 q 325 688 283 688 q 424 680 382 688 q 501 646 467 672 q 554 578 536 621 q 572 467 572 535 q 570 295 572 370 q 568 132 568 220 q 577 90 568 105 q 605 63 586 74 q 637 56 615 57 q 682 56 659 56 l 682 12 q 626 -6 650 1 q 572 -14 602 -14 q 552 -13 562 -14 q 534 -9 542 -12 q 493 -70 507 -38 q 479 -147 479 -102 q 485 -190 479 -172 q 509 -223 492 -209 q 557 -245 527 -238 q 631 -252 587 -253 l 631 -301 l 553 -301 q 419 -266 466 -301 q 372 -170 372 -230 m 446 370 q 345 337 388 353 q 264 296 301 321 q 210 242 230 273 q 191 167 191 210 q 220 84 191 111 q 295 58 250 58 q 380 81 343 58 q 441 136 416 104 l 446 370 z "},"":{"ha":1040,"x_min":64,"x_max":988,"o":"m 988 475 q 942 262 988 353 q 822 115 896 172 q 654 28 747 57 q 463 0 562 0 l 64 0 l 64 48 q 115 52 83 48 q 157 60 146 56 q 186 86 177 69 q 195 128 195 104 l 195 823 q 188 864 195 846 q 157 893 180 882 q 111 908 136 903 q 69 914 87 913 l 69 962 l 490 962 q 661 936 576 962 q 807 863 745 909 q 940 705 892 803 q 988 475 988 608 m 822 476 q 796 651 822 573 q 721 788 770 730 q 606 876 674 844 q 454 907 538 907 q 392 906 427 907 q 340 905 357 905 l 340 165 q 376 79 340 103 q 486 56 412 56 q 637 86 572 56 q 741 171 701 117 q 803 303 783 228 q 822 476 822 378 m 703 1245 l 544 1053 q 522 1028 530 1035 q 481 1022 514 1022 q 443 1029 453 1022 q 422 1050 432 1037 l 262 1245 l 294 1267 l 484 1122 l 670 1267 l 703 1245 z "},"":{"ha":924,"x_min":49,"x_max":939,"o":"m 781 12 l 548 -3 l 538 7 l 538 69 l 532 71 q 445 6 497 31 q 338 -19 393 -19 q 228 6 281 -19 q 136 78 175 32 q 72 191 96 125 q 49 336 49 256 q 74 473 49 408 q 143 587 99 538 q 244 660 184 633 q 367 687 304 687 q 459 675 414 687 q 536 645 504 663 l 536 878 q 527 929 536 906 q 500 965 517 953 q 449 984 481 978 q 380 992 417 989 l 380 1034 l 653 1050 l 663 1040 l 663 138 q 672 97 663 114 q 699 69 682 81 q 736 59 712 61 q 781 56 761 57 l 781 12 m 536 130 l 536 521 q 519 559 531 538 q 488 596 507 579 q 442 624 469 613 q 380 635 416 635 q 306 614 340 635 q 245 554 271 593 q 205 457 220 516 q 191 328 191 399 q 201 224 191 271 q 238 138 212 178 q 299 77 262 100 q 387 54 336 54 q 476 77 441 54 q 536 130 512 101 m 939 909 q 919 827 939 864 q 873 763 900 790 q 813 713 846 735 q 761 681 781 691 l 738 721 q 791 754 766 737 q 830 787 817 772 q 859 830 848 808 q 873 888 870 852 l 840 888 q 774 909 798 888 q 750 970 750 931 q 772 1022 750 998 q 831 1047 793 1047 q 913 1009 888 1047 q 939 909 939 970 z "},"":{"ha":1040,"x_min":64,"x_max":988,"o":"m 988 475 q 942 262 988 353 q 822 115 896 172 q 654 28 747 57 q 463 0 562 0 l 64 0 l 64 48 q 115 52 83 48 q 157 60 146 56 q 186 86 177 69 q 195 128 195 104 l 195 475 l 69 475 l 69 542 l 195 542 l 195 823 q 188 864 195 846 q 157 893 180 882 q 111 908 136 903 q 69 914 87 913 l 69 962 l 490 962 q 661 936 576 962 q 807 863 745 909 q 940 705 892 803 q 988 475 988 608 m 822 476 q 796 651 822 573 q 721 788 770 730 q 606 876 674 844 q 454 907 538 907 q 392 906 427 907 q 340 905 357 905 l 340 542 l 544 542 l 544 475 l 340 475 l 340 165 q 376 79 340 103 q 486 56 412 56 q 637 86 572 56 q 741 171 701 117 q 803 303 783 228 q 822 476 822 378 z "},"":{"ha":907,"x_min":58,"x_max":876,"o":"m 585 -84 q 600 -63 585 -84 q 674 0 614 -41 l 58 0 l 58 48 q 113 54 79 50 q 157 63 146 58 q 187 90 178 73 q 195 131 195 106 l 195 823 q 188 862 195 845 q 157 890 180 880 q 107 906 138 899 q 58 914 77 913 l 58 962 l 803 962 l 803 730 l 752 730 q 693 840 739 782 q 608 903 648 898 q 557 907 587 906 q 491 909 528 909 l 340 909 l 340 526 l 448 526 q 525 536 500 526 q 567 569 549 546 q 592 622 582 589 q 606 684 603 654 l 657 684 l 657 307 l 606 307 q 592 376 604 340 q 567 429 580 412 q 519 463 546 455 q 448 471 492 471 l 340 471 l 340 182 q 346 114 340 139 q 370 76 352 89 q 418 59 387 63 q 505 56 448 56 q 564 56 527 56 q 625 58 600 56 q 679 68 651 61 q 718 87 706 75 q 783 186 749 120 q 827 283 817 252 l 876 283 l 857 0 l 726 0 q 679 -65 695 -30 q 663 -147 663 -100 q 670 -190 663 -172 q 694 -223 676 -209 q 742 -245 711 -238 q 815 -252 772 -253 l 815 -301 l 737 -301 q 603 -266 650 -301 q 556 -170 556 -230 q 585 -84 556 -127 z "},"":{"ha":671,"x_min":49,"x_max":643,"o":"m 417 -14 q 393 -16 406 -16 q 368 -17 380 -17 q 227 11 288 -17 q 127 88 166 39 q 68 202 87 137 q 49 340 49 267 q 70 468 49 405 q 130 581 90 530 q 226 658 169 629 q 355 688 283 688 q 480 665 428 688 q 565 602 532 642 q 611 512 596 564 q 627 400 627 460 l 627 355 l 184 355 q 196 236 184 290 q 236 142 209 182 q 305 80 262 102 q 407 57 348 57 q 511 85 467 57 q 595 186 555 113 l 643 157 q 585 76 619 112 q 509 17 551 39 q 447 -55 469 -16 q 425 -147 425 -94 q 432 -190 425 -172 q 456 -223 438 -209 q 504 -245 473 -238 q 577 -252 534 -253 l 577 -301 l 499 -301 q 365 -266 412 -301 q 318 -170 318 -230 q 342 -94 318 -133 q 417 -14 366 -54 m 493 412 q 487 494 493 450 q 466 566 480 537 q 423 617 450 597 q 353 637 396 637 q 235 577 282 637 q 184 412 188 518 l 493 412 z "},"":{"ha":907,"x_min":58,"x_max":876,"o":"m 876 283 l 857 0 l 58 0 l 58 48 q 113 54 79 50 q 157 63 146 58 q 187 90 178 73 q 195 131 195 106 l 195 823 q 188 862 195 845 q 157 890 180 880 q 107 906 138 899 q 58 914 77 913 l 58 962 l 803 962 l 803 730 l 752 730 q 693 840 739 782 q 608 903 648 898 q 557 907 587 906 q 491 909 528 909 l 340 909 l 340 526 l 448 526 q 525 536 500 526 q 567 569 549 546 q 592 622 582 589 q 606 684 603 654 l 657 684 l 657 307 l 606 307 q 592 376 604 340 q 567 429 580 412 q 519 463 546 455 q 448 471 492 471 l 340 471 l 340 182 q 346 114 340 139 q 370 76 352 89 q 418 59 387 63 q 505 56 448 56 q 564 56 527 56 q 625 58 600 56 q 679 68 651 61 q 718 87 706 75 q 783 186 749 120 q 827 283 817 252 l 876 283 m 690 1245 l 532 1053 q 510 1028 517 1035 q 469 1022 502 1022 q 430 1029 441 1022 q 410 1050 420 1037 l 250 1245 l 282 1267 l 471 1122 l 658 1267 l 690 1245 z "},"":{"ha":671,"x_min":49,"x_max":643,"o":"m 643 157 q 530 30 601 77 q 368 -18 460 -18 q 227 11 288 -18 q 127 88 166 39 q 68 202 87 137 q 49 340 49 267 q 70 468 49 405 q 130 581 90 530 q 226 658 169 629 q 355 688 283 688 q 480 665 428 688 q 565 602 532 642 q 611 512 596 564 q 627 400 627 460 l 627 355 l 184 355 q 196 236 184 290 q 236 142 209 182 q 305 80 262 102 q 407 57 348 57 q 511 85 467 57 q 595 186 555 113 l 643 157 m 493 412 q 487 494 493 450 q 466 566 480 537 q 423 617 450 597 q 353 637 396 637 q 235 577 282 637 q 184 412 188 518 l 493 412 m 574 1024 l 412 786 q 393 765 401 771 q 355 758 385 758 q 315 766 325 758 q 294 789 305 773 l 134 1024 l 166 1046 l 353 861 l 542 1046 l 574 1024 z "},"":{"ha":838,"x_min":66,"x_max":839,"o":"m 839 286 l 819 0 l 66 0 l 66 48 q 114 53 83 50 q 157 62 144 56 q 186 87 177 71 q 195 131 195 104 l 195 820 q 188 861 195 843 q 157 889 180 878 q 113 905 141 897 q 66 914 85 913 l 66 962 l 473 962 l 473 914 q 424 907 454 913 q 380 897 393 901 q 348 869 357 888 q 340 827 340 849 l 340 180 q 344 111 340 136 q 365 73 349 86 q 411 57 380 60 q 498 53 442 53 q 550 54 523 53 q 602 60 577 56 q 645 71 625 64 q 675 89 665 78 q 740 183 703 120 q 791 286 777 247 l 839 286 m 536 1136 q 444 1091 507 1121 q 302 1022 381 1061 l 281 1048 q 381 1146 342 1107 q 458 1224 420 1184 q 498 1257 480 1247 q 536 1267 516 1267 q 581 1251 562 1267 q 599 1213 599 1236 q 581 1166 599 1183 q 536 1136 564 1149 z "},"":{"ha":397,"x_min":1,"x_max":385,"o":"m 362 0 l 36 0 l 36 45 q 69 48 52 46 q 98 53 87 50 q 127 74 117 59 q 136 114 136 90 l 136 801 q 126 847 136 825 q 98 880 115 868 q 54 896 86 889 q 1 903 21 902 l 1 947 l 253 962 l 262 952 l 262 122 q 271 83 262 98 q 300 60 280 68 q 329 50 315 53 q 362 45 344 46 l 362 0 m 385 1213 q 367 1166 385 1183 q 322 1136 349 1149 q 230 1091 292 1121 q 87 1022 167 1061 l 66 1048 q 167 1146 128 1107 q 244 1224 206 1184 q 284 1257 266 1247 q 322 1267 302 1267 q 366 1251 348 1267 q 385 1213 385 1236 z "},"":{"ha":838,"x_min":66,"x_max":839,"o":"m 839 286 l 819 0 l 66 0 l 66 48 q 114 53 83 50 q 157 62 144 56 q 186 87 177 71 q 195 131 195 104 l 195 820 q 188 861 195 843 q 157 889 180 878 q 113 905 141 897 q 66 914 85 913 l 66 962 l 473 962 l 473 914 q 424 907 454 913 q 380 897 393 901 q 348 869 357 888 q 340 827 340 849 l 340 180 q 344 111 340 136 q 365 73 349 86 q 411 57 380 60 q 498 53 442 53 q 550 54 523 53 q 602 60 577 56 q 645 71 625 64 q 675 89 665 78 q 740 183 703 120 q 791 286 777 247 l 839 286 m 774 833 q 754 752 774 789 q 708 688 735 715 q 648 638 681 660 q 596 606 616 616 l 573 646 q 626 679 601 662 q 665 712 652 696 q 694 754 684 732 q 708 812 705 777 l 675 812 q 609 834 633 812 q 585 895 585 856 q 607 947 585 922 q 666 972 629 972 q 749 933 724 972 q 774 833 774 895 z "},"":{"ha":523,"x_min":1,"x_max":538,"o":"m 362 0 l 36 0 l 36 45 q 69 48 52 46 q 98 53 87 50 q 127 74 117 59 q 136 114 136 90 l 136 888 q 126 934 136 913 q 98 968 115 956 q 54 983 86 976 q 1 991 21 989 l 1 1034 l 253 1050 l 262 1040 l 262 122 q 271 83 262 98 q 300 60 280 68 q 329 50 315 53 q 362 45 344 46 l 362 0 m 538 909 q 518 827 538 864 q 472 763 499 790 q 412 713 445 735 q 360 681 380 691 l 337 721 q 390 754 365 737 q 429 787 416 772 q 458 830 448 808 q 472 888 469 852 l 439 888 q 373 909 397 888 q 349 970 349 931 q 371 1022 349 998 q 430 1047 393 1047 q 513 1009 488 1047 q 538 909 538 970 z "},"":{"ha":838,"x_min":66,"x_max":839,"o":"m 839 286 l 819 0 l 66 0 l 66 48 q 114 53 83 50 q 157 62 144 56 q 186 87 177 71 q 195 131 195 104 l 195 820 q 188 861 195 843 q 157 889 180 878 q 113 905 141 897 q 66 914 85 913 l 66 962 l 473 962 l 473 914 q 424 907 454 913 q 380 897 393 901 q 348 869 357 888 q 340 827 340 849 l 340 180 q 344 111 340 136 q 365 73 349 86 q 411 57 380 60 q 498 53 442 53 q 550 54 523 53 q 602 60 577 56 q 645 71 625 64 q 675 89 665 78 q 740 183 703 120 q 791 286 777 247 l 839 286 m 781 491 q 753 426 781 453 q 688 399 726 399 q 622 426 650 399 q 595 491 595 453 q 622 556 595 529 q 688 584 650 584 q 753 556 726 584 q 781 491 781 529 z "},"":{"ha":584,"x_min":1,"x_max":583,"o":"m 362 0 l 36 0 l 36 45 q 69 48 52 46 q 98 53 87 50 q 127 74 117 59 q 136 114 136 90 l 136 888 q 126 934 136 913 q 98 968 115 956 q 54 983 86 976 q 1 991 21 989 l 1 1034 l 253 1050 l 262 1040 l 262 122 q 271 83 262 98 q 300 60 280 68 q 329 50 315 53 q 362 45 344 46 l 362 0 m 583 456 q 555 392 583 418 q 491 366 528 366 q 427 392 454 366 q 399 456 399 418 q 427 520 399 493 q 491 547 454 547 q 555 520 528 547 q 583 456 583 493 z "},"":{"ha":1065,"x_min":16,"x_max":1054,"o":"m 1054 914 q 996 903 1035 913 q 939 882 956 893 q 906 817 915 865 q 898 695 898 769 l 898 -9 l 839 -9 l 256 778 l 256 281 q 266 153 256 198 q 298 90 277 109 q 363 62 314 75 q 427 48 412 49 l 427 0 l 33 0 l 33 48 q 94 61 51 50 q 149 83 138 73 q 181 141 172 102 q 190 274 190 180 l 190 748 q 179 810 190 779 q 150 859 168 842 q 84 897 125 881 q 16 914 42 913 l 16 962 l 291 962 l 832 229 l 832 686 q 821 815 832 770 q 790 876 810 861 q 728 901 771 888 q 663 914 685 913 l 663 962 l 1054 962 l 1054 914 m 679 1136 q 586 1091 649 1121 q 444 1022 524 1061 l 423 1048 q 524 1146 485 1107 q 601 1224 563 1184 q 641 1257 623 1247 q 679 1267 659 1267 q 723 1251 705 1267 q 741 1213 741 1236 q 724 1166 741 1183 q 679 1136 706 1149 z "},"":{"ha":821,"x_min":41,"x_max":787,"o":"m 787 0 l 460 0 l 460 45 q 494 47 475 46 q 525 53 513 49 q 553 74 544 59 q 562 114 562 90 l 562 458 q 529 568 562 529 q 447 606 495 606 q 381 595 411 606 q 328 568 351 584 q 293 534 306 552 q 273 505 279 516 l 273 121 q 283 83 273 98 q 311 60 292 68 q 342 50 326 53 q 376 45 359 46 l 376 0 l 49 0 l 49 45 q 81 47 64 46 q 110 53 98 49 q 138 74 129 59 q 147 114 147 90 l 147 527 q 137 569 147 550 q 110 601 127 589 q 79 613 97 609 q 41 618 62 616 l 41 662 l 264 677 l 273 667 l 273 573 l 277 573 q 317 612 293 589 q 363 649 342 635 q 423 676 389 665 q 501 687 458 687 q 644 627 597 687 q 690 467 690 567 l 690 119 q 699 81 690 96 q 726 58 707 66 q 754 49 743 52 q 787 45 766 46 l 787 0 m 569 990 q 557 948 569 964 q 522 913 545 932 q 434 844 488 886 q 316 753 379 802 l 290 774 q 375 902 351 865 q 427 983 399 939 q 468 1030 448 1018 q 513 1043 488 1043 q 553 1026 538 1043 q 569 990 569 1010 z "},"":{"ha":1065,"x_min":16,"x_max":1054,"o":"m 1054 914 q 996 903 1035 913 q 939 882 956 893 q 906 817 915 865 q 898 695 898 769 l 898 -9 l 839 -9 l 256 778 l 256 281 q 266 153 256 198 q 298 90 277 109 q 363 62 314 75 q 427 48 412 49 l 427 0 l 33 0 l 33 48 q 94 61 51 50 q 149 83 138 73 q 181 141 172 102 q 190 274 190 180 l 190 748 q 179 810 190 779 q 150 859 168 842 q 84 897 125 881 q 16 914 42 913 l 16 962 l 291 962 l 832 229 l 832 686 q 821 815 832 770 q 790 876 810 861 q 728 901 771 888 q 663 914 685 913 l 663 962 l 1054 962 l 1054 914 m 750 1245 l 591 1053 q 569 1028 577 1035 q 528 1022 562 1022 q 490 1029 500 1022 q 469 1050 479 1037 l 309 1245 l 342 1267 l 531 1122 l 718 1267 l 750 1245 z "},"":{"ha":821,"x_min":41,"x_max":787,"o":"m 787 0 l 460 0 l 460 45 q 494 47 475 46 q 525 53 513 49 q 553 74 544 59 q 562 114 562 90 l 562 458 q 529 568 562 529 q 447 606 495 606 q 381 595 411 606 q 328 568 351 584 q 293 534 306 552 q 273 505 279 516 l 273 121 q 283 83 273 98 q 311 60 292 68 q 342 50 326 53 q 376 45 359 46 l 376 0 l 49 0 l 49 45 q 81 47 64 46 q 110 53 98 49 q 138 74 129 59 q 147 114 147 90 l 147 527 q 137 569 147 550 q 110 601 127 589 q 79 613 97 609 q 41 618 62 616 l 41 662 l 264 677 l 273 667 l 273 573 l 277 573 q 317 612 293 589 q 363 649 342 635 q 423 676 389 665 q 501 687 458 687 q 644 627 597 687 q 690 467 690 567 l 690 119 q 699 81 690 96 q 726 58 707 66 q 754 49 743 52 q 787 45 766 46 l 787 0 m 633 1024 l 471 786 q 452 765 460 771 q 414 758 444 758 q 374 766 384 758 q 353 789 364 773 l 193 1024 l 225 1046 l 412 861 l 601 1046 l 633 1024 z "},"":{"ha":1034,"x_min":54,"x_max":979,"o":"m 844 848 q 943 688 907 782 q 979 480 979 594 q 943 272 979 366 q 841 113 906 178 q 694 12 778 47 q 517 -23 611 -23 q 331 15 416 -23 q 185 119 246 52 q 89 279 124 185 q 54 480 54 373 q 91 689 54 597 q 192 848 127 781 q 340 950 256 915 q 517 985 425 985 q 697 949 612 985 q 844 848 782 913 m 743 166 q 798 306 781 228 q 815 480 815 384 q 796 662 815 579 q 739 803 777 745 q 646 893 702 861 q 517 925 589 925 q 378 888 435 925 q 286 788 321 850 q 235 648 252 728 q 218 480 218 568 q 236 304 218 382 q 292 164 254 225 q 384 71 328 104 q 517 37 439 37 q 648 71 589 37 q 743 166 706 105 m 567 1138 q 493 1100 523 1115 q 363 1022 464 1084 l 343 1046 q 424 1139 395 1105 q 488 1215 453 1173 q 526 1252 507 1238 q 563 1266 545 1266 q 607 1249 591 1266 q 623 1209 623 1231 q 607 1167 623 1183 q 567 1138 592 1151 m 831 1138 q 755 1100 787 1115 q 623 1022 724 1084 l 604 1046 q 688 1141 656 1105 q 752 1215 720 1176 q 790 1252 771 1238 q 827 1266 809 1266 q 871 1249 855 1266 q 886 1209 886 1231 q 871 1167 886 1183 q 831 1138 856 1151 z "},"":{"ha":749,"x_min":47,"x_max":701,"o":"m 701 341 q 678 202 701 271 q 614 87 656 134 q 506 6 568 33 q 368 -20 444 -20 q 246 4 304 -20 q 144 74 189 28 q 74 185 100 119 q 47 332 47 250 q 139 588 47 488 q 378 688 230 688 q 609 593 518 688 q 701 341 701 498 m 560 340 q 550 447 560 391 q 519 543 540 504 q 463 611 498 585 q 376 636 427 636 q 287 610 324 636 q 227 540 250 585 q 197 446 205 498 q 188 343 188 393 q 198 223 188 278 q 232 124 209 168 q 290 56 255 81 q 376 31 325 31 q 511 113 461 31 q 560 340 560 195 m 697 990 q 687 948 697 964 q 654 913 676 932 q 580 850 627 890 q 465 753 534 810 l 441 772 q 517 897 490 849 q 566 981 545 944 q 601 1029 585 1015 q 642 1043 617 1043 q 681 1026 665 1043 q 697 990 697 1010 m 445 989 q 436 950 445 966 q 405 913 428 935 q 339 854 382 894 q 225 753 296 814 l 200 772 q 276 904 252 859 q 315 981 300 949 q 349 1029 332 1015 q 390 1043 365 1043 q 429 1026 413 1043 q 445 989 445 1009 z "},"":{"ha":975,"x_min":66,"x_max":1004,"o":"m 1004 0 l 745 0 q 589 233 659 135 q 438 436 519 332 l 340 436 l 340 131 q 347 89 340 107 q 379 62 355 71 q 422 53 391 57 q 473 48 452 49 l 473 0 l 66 0 l 66 48 q 114 53 83 50 q 157 62 144 56 q 186 87 177 71 q 195 131 195 104 l 195 827 q 189 869 195 850 q 157 897 182 887 q 113 908 140 903 q 66 914 85 913 l 66 962 l 511 962 q 625 950 572 962 q 722 909 679 937 q 789 839 764 882 q 814 733 814 795 q 798 635 814 677 q 747 561 781 592 q 674 510 717 532 q 580 474 631 489 q 698 315 651 380 q 814 159 745 251 q 868 99 844 118 q 916 67 892 79 q 960 54 933 58 q 1004 48 986 49 l 1004 0 m 647 718 q 597 856 647 805 q 455 907 547 907 l 340 907 l 340 494 l 429 494 q 585 554 522 494 q 647 718 647 614 m 611 1136 q 518 1091 581 1121 q 376 1022 456 1061 l 355 1048 q 456 1146 417 1107 q 533 1224 495 1184 q 573 1257 555 1247 q 611 1267 591 1267 q 655 1251 637 1267 q 673 1213 673 1236 q 656 1166 673 1183 q 611 1136 638 1149 z "},"":{"ha":569,"x_min":41,"x_max":561,"o":"m 561 583 q 544 521 561 548 q 492 494 527 494 q 434 514 454 494 q 414 557 414 534 q 416 585 414 572 q 420 609 418 597 q 346 583 389 609 q 273 510 303 557 l 273 121 q 282 82 273 97 q 311 60 292 67 q 355 50 328 53 q 401 45 382 46 l 401 0 l 49 0 l 49 45 q 81 47 64 46 q 110 53 98 49 q 138 74 129 59 q 147 114 147 90 l 147 527 q 137 568 147 548 q 110 601 127 589 q 79 613 97 609 q 41 618 62 616 l 41 662 l 264 677 l 273 667 l 273 573 l 277 573 q 370 656 319 628 q 465 685 422 685 q 534 657 507 685 q 561 583 561 629 m 472 990 q 460 948 472 964 q 425 913 448 932 q 337 844 391 886 q 219 753 282 802 l 193 774 q 278 902 254 865 q 330 983 302 939 q 371 1030 351 1018 q 416 1043 391 1043 q 456 1026 441 1043 q 472 990 472 1010 z "},"":{"ha":975,"x_min":66,"x_max":1004,"o":"m 1004 0 l 745 0 q 589 233 659 135 q 438 436 519 332 l 340 436 l 340 131 q 347 89 340 107 q 379 62 355 71 q 422 53 391 57 q 473 48 452 49 l 473 0 l 66 0 l 66 48 q 114 53 83 50 q 157 62 144 56 q 186 87 177 71 q 195 131 195 104 l 195 827 q 189 869 195 850 q 157 897 182 887 q 113 908 140 903 q 66 914 85 913 l 66 962 l 511 962 q 625 950 572 962 q 722 909 679 937 q 789 839 764 882 q 814 733 814 795 q 798 635 814 677 q 747 561 781 592 q 674 510 717 532 q 580 474 631 489 q 698 315 651 380 q 814 159 745 251 q 868 99 844 118 q 916 67 892 79 q 960 54 933 58 q 1004 48 986 49 l 1004 0 m 647 718 q 597 856 647 805 q 455 907 547 907 l 340 907 l 340 494 l 429 494 q 585 554 522 494 q 647 718 647 614 m 667 1245 l 509 1053 q 487 1028 494 1035 q 446 1022 479 1022 q 407 1029 418 1022 q 387 1050 397 1037 l 227 1245 l 259 1267 l 448 1122 l 635 1267 l 667 1245 z "},"":{"ha":569,"x_min":41,"x_max":561,"o":"m 561 583 q 544 521 561 548 q 492 494 527 494 q 434 514 454 494 q 414 557 414 534 q 416 585 414 572 q 420 609 418 597 q 346 583 389 609 q 273 510 303 557 l 273 121 q 282 82 273 97 q 311 60 292 67 q 355 50 328 53 q 401 45 382 46 l 401 0 l 49 0 l 49 45 q 81 47 64 46 q 110 53 98 49 q 138 74 129 59 q 147 114 147 90 l 147 527 q 137 568 147 548 q 110 601 127 589 q 79 613 97 609 q 41 618 62 616 l 41 662 l 264 677 l 273 667 l 273 573 l 277 573 q 370 656 319 628 q 465 685 422 685 q 534 657 507 685 q 561 583 561 629 m 507 1024 l 345 786 q 326 765 334 771 q 288 758 317 758 q 248 766 258 758 q 227 789 238 773 l 66 1024 l 99 1046 l 286 861 l 475 1046 l 507 1024 z "},"":{"ha":779,"x_min":64,"x_max":725,"o":"m 665 441 q 710 367 696 408 q 725 273 725 327 q 631 63 725 146 q 397 -20 536 -20 q 268 0 332 -20 q 157 49 203 20 l 127 -1 l 73 -1 l 64 329 l 119 329 q 158 219 136 268 q 218 127 181 170 q 301 63 254 87 q 410 39 348 39 q 492 52 457 39 q 549 86 527 64 q 581 139 570 109 q 591 208 591 169 q 559 316 591 266 q 462 391 526 366 q 361 430 418 409 q 262 471 304 452 q 136 567 181 507 q 91 722 91 626 q 113 824 91 777 q 177 909 136 871 q 270 964 216 944 q 382 984 323 984 q 501 964 448 984 q 597 916 553 943 l 625 962 l 679 962 l 684 643 l 629 643 q 596 748 614 698 q 547 839 577 798 q 476 902 518 878 q 373 925 434 925 q 263 884 309 925 q 218 783 218 842 q 247 679 218 720 q 332 612 276 638 q 429 571 381 588 q 522 534 477 553 q 600 494 562 516 q 665 441 637 471 m 513 1136 q 421 1091 484 1121 q 279 1022 358 1061 l 258 1048 q 358 1146 319 1107 q 435 1224 397 1184 q 475 1257 457 1247 q 513 1267 493 1267 q 557 1251 539 1267 q 576 1213 576 1236 q 558 1166 576 1183 q 513 1136 541 1149 z "},"":{"ha":600,"x_min":50,"x_max":548,"o":"m 490 328 q 533 271 518 303 q 548 193 548 239 q 478 41 548 100 q 298 -18 409 -18 q 191 3 240 -18 q 121 42 142 24 l 107 -2 l 56 -2 l 50 231 l 96 231 q 119 169 102 204 q 162 105 137 134 q 225 55 189 75 q 309 35 262 35 q 409 64 374 35 q 444 149 444 94 q 433 198 444 177 q 400 234 422 218 q 345 262 378 250 q 273 287 313 275 q 202 313 241 296 q 135 352 163 330 q 86 410 105 376 q 67 492 67 445 q 128 631 67 574 q 292 688 189 688 q 372 677 331 688 q 439 653 413 667 l 454 688 l 503 688 l 513 473 l 467 473 q 405 590 452 545 q 290 635 358 635 q 203 608 235 635 q 171 541 171 580 q 181 490 171 510 q 213 455 192 469 q 264 430 233 441 q 340 403 295 418 q 425 370 385 389 q 490 328 465 351 m 470 990 q 458 948 470 964 q 423 913 446 932 q 335 844 389 886 q 217 753 280 802 l 191 774 q 276 902 252 865 q 328 983 300 939 q 369 1030 349 1018 q 414 1043 389 1043 q 454 1026 439 1043 q 470 990 470 1010 z "},"":{"ha":859,"x_min":10,"x_max":848,"o":"m 848 701 l 802 701 q 780 759 795 726 q 744 823 764 793 q 700 877 724 854 q 653 904 675 901 q 600 908 632 907 q 541 909 568 909 l 502 909 l 502 140 q 511 99 502 117 q 545 70 521 80 q 596 57 557 65 q 656 48 635 49 l 656 0 l 202 0 l 202 48 q 260 54 221 50 q 314 64 299 58 q 347 89 336 73 q 357 134 357 106 l 357 909 l 318 909 q 266 908 297 909 q 206 904 235 907 q 160 877 184 901 q 115 823 136 853 q 79 758 95 792 q 58 701 64 724 l 10 701 l 10 962 l 848 962 l 848 701 m 541 -157 q 491 -265 541 -229 q 361 -301 442 -301 l 361 -262 q 452 -237 427 -258 q 479 -176 477 -216 l 442 -176 q 379 -157 397 -176 q 361 -111 361 -139 q 381 -66 361 -87 q 440 -45 402 -45 q 513 -76 486 -45 q 541 -157 541 -107 z "},"":{"ha":479,"x_min":9,"x_max":462,"o":"m 462 29 q 378 -2 418 11 q 282 -14 339 -14 q 164 28 198 -14 q 130 148 130 71 l 130 601 l 9 601 l 9 666 l 132 666 l 132 874 l 256 874 l 256 666 l 448 666 l 448 601 l 257 601 l 257 227 q 260 157 257 185 q 275 108 263 129 q 307 78 286 88 q 366 68 329 68 q 415 71 382 68 q 462 79 448 74 l 462 29 m 391 -157 q 342 -265 391 -229 q 212 -301 293 -301 l 212 -262 q 303 -237 277 -258 q 330 -176 328 -216 l 293 -176 q 230 -157 248 -176 q 212 -111 212 -139 q 232 -66 212 -87 q 291 -45 253 -45 q 364 -76 336 -45 q 391 -157 391 -107 z "},"":{"ha":859,"x_min":10,"x_max":848,"o":"m 848 701 l 802 701 q 780 759 795 726 q 744 823 764 793 q 700 877 724 854 q 653 904 675 901 q 600 908 632 907 q 541 909 568 909 l 502 909 l 502 140 q 511 99 502 117 q 545 70 521 80 q 596 57 557 65 q 656 48 635 49 l 656 0 l 202 0 l 202 48 q 260 54 221 50 q 314 64 299 58 q 347 89 336 73 q 357 134 357 106 l 357 909 l 318 909 q 266 908 297 909 q 206 904 235 907 q 160 877 184 901 q 115 823 136 853 q 79 758 95 792 q 58 701 64 724 l 10 701 l 10 962 l 848 962 l 848 701 m 650 1245 l 492 1053 q 470 1028 477 1035 q 429 1022 462 1022 q 390 1029 401 1022 q 370 1050 380 1037 l 210 1245 l 242 1267 l 431 1122 l 618 1267 l 650 1245 z "},"":{"ha":479,"x_min":9,"x_max":538,"o":"m 462 29 q 378 -2 418 11 q 282 -14 339 -14 q 164 28 198 -14 q 130 148 130 71 l 130 601 l 9 601 l 9 666 l 132 666 l 132 874 l 256 874 l 256 666 l 448 666 l 448 601 l 257 601 l 257 227 q 260 157 257 185 q 275 108 263 129 q 307 78 286 88 q 366 68 329 68 q 415 71 382 68 q 462 79 448 74 l 462 29 m 538 928 q 519 855 538 888 q 473 798 500 821 q 418 756 448 774 q 361 726 387 737 l 338 766 q 388 793 364 781 q 427 821 411 806 q 455 856 443 836 q 471 907 467 876 l 440 907 q 374 927 399 907 q 350 982 350 946 q 372 1032 350 1007 q 431 1057 393 1057 q 511 1023 484 1057 q 538 928 538 990 z "},"":{"ha":1050,"x_min":50,"x_max":1040,"o":"m 1040 914 q 984 906 1021 913 q 924 884 947 899 q 892 819 901 868 q 884 700 884 770 l 884 281 q 850 142 884 201 q 763 45 817 83 q 650 -7 709 9 q 536 -23 591 -23 q 382 0 450 -23 q 268 61 314 22 q 199 150 222 100 q 176 254 176 199 l 176 823 q 169 862 176 846 q 137 892 161 878 q 94 907 120 901 q 50 914 67 913 l 50 962 l 451 962 l 451 914 q 403 908 432 913 q 361 898 374 903 q 330 871 338 890 q 322 829 322 852 l 322 298 q 331 217 322 259 q 364 138 339 174 q 436 77 391 100 q 561 53 481 53 q 686 77 635 53 q 766 139 736 100 q 805 216 793 176 q 817 296 817 256 l 817 691 q 806 814 817 766 q 774 877 795 862 q 709 903 750 894 q 646 914 668 913 l 646 962 l 1040 962 l 1040 914 m 723 1114 q 675 1005 723 1047 q 548 962 627 962 q 421 1004 469 962 q 373 1114 373 1045 q 424 1222 373 1180 q 548 1264 475 1264 q 673 1223 624 1264 q 723 1114 723 1182 m 637 1114 q 615 1190 637 1160 q 548 1221 592 1221 q 482 1192 505 1221 q 458 1114 458 1162 q 481 1036 458 1067 q 548 1006 505 1006 q 614 1036 591 1006 q 637 1114 637 1065 z "},"":{"ha":799,"x_min":24,"x_max":766,"o":"m 766 12 l 548 -3 l 538 7 l 538 92 l 534 92 q 497 55 517 75 q 450 20 477 36 q 391 -7 420 2 q 311 -17 363 -17 q 175 41 222 -17 q 129 210 129 99 l 129 530 q 120 571 129 554 q 93 600 111 587 q 62 611 81 608 q 24 616 44 615 l 24 661 l 247 677 l 257 667 l 257 203 q 290 94 257 130 q 368 57 322 57 q 434 68 405 57 q 483 96 463 80 q 515 126 501 110 q 536 155 529 142 l 536 534 q 527 574 536 557 q 500 604 517 591 q 464 613 488 612 q 410 616 440 615 l 410 661 l 653 677 l 663 667 l 663 136 q 673 97 663 113 q 699 69 682 81 q 728 59 711 62 q 766 56 745 57 l 766 12 m 559 907 q 511 798 559 840 q 384 755 463 755 q 257 797 304 755 q 209 907 209 838 q 260 1015 209 973 q 384 1057 311 1057 q 509 1016 460 1057 q 559 907 559 975 m 473 907 q 451 983 473 953 q 384 1014 428 1014 q 318 985 341 1014 q 294 907 294 956 q 317 829 294 860 q 384 799 340 799 q 450 829 427 799 q 473 907 473 859 z "},"":{"ha":1050,"x_min":50,"x_max":1040,"o":"m 1040 914 q 984 906 1021 913 q 924 884 947 899 q 892 819 901 868 q 884 700 884 770 l 884 281 q 850 142 884 201 q 763 45 817 83 q 650 -7 709 9 q 536 -23 591 -23 q 382 0 450 -23 q 268 61 314 22 q 199 150 222 100 q 176 254 176 199 l 176 823 q 169 862 176 846 q 137 892 161 878 q 94 907 120 901 q 50 914 67 913 l 50 962 l 451 962 l 451 914 q 403 908 432 913 q 361 898 374 903 q 330 871 338 890 q 322 829 322 852 l 322 298 q 331 217 322 259 q 364 138 339 174 q 436 77 391 100 q 561 53 481 53 q 686 77 635 53 q 766 139 736 100 q 805 216 793 176 q 817 296 817 256 l 817 691 q 806 814 817 766 q 774 877 795 862 q 709 903 750 894 q 646 914 668 913 l 646 962 l 1040 962 l 1040 914 m 555 1138 q 481 1100 511 1115 q 351 1022 452 1084 l 331 1046 q 412 1139 383 1105 q 476 1215 441 1173 q 514 1252 495 1238 q 551 1266 533 1266 q 595 1249 579 1266 q 610 1209 610 1231 q 595 1167 610 1183 q 555 1138 580 1151 m 819 1138 q 743 1100 774 1115 q 611 1022 712 1084 l 591 1046 q 676 1141 644 1105 q 740 1215 707 1176 q 778 1252 759 1238 q 814 1266 797 1266 q 859 1249 843 1266 q 874 1209 874 1231 q 859 1167 874 1183 q 819 1138 844 1151 z "},"":{"ha":799,"x_min":24,"x_max":766,"o":"m 766 12 l 548 -3 l 538 7 l 538 92 l 534 92 q 497 55 517 75 q 450 20 477 36 q 391 -7 420 2 q 311 -17 363 -17 q 175 41 222 -17 q 129 210 129 99 l 129 530 q 120 571 129 554 q 93 600 111 587 q 62 611 81 608 q 24 616 44 615 l 24 661 l 247 677 l 257 667 l 257 203 q 290 94 257 130 q 368 57 322 57 q 434 68 405 57 q 483 96 463 80 q 515 126 501 110 q 536 155 529 142 l 536 534 q 527 574 536 557 q 500 604 517 591 q 464 613 488 612 q 410 616 440 615 l 410 661 l 653 677 l 663 667 l 663 136 q 673 97 663 113 q 699 69 682 81 q 728 59 711 62 q 766 56 745 57 l 766 12 m 696 990 q 685 948 696 964 q 653 913 675 932 q 579 850 625 890 q 464 753 532 810 l 440 772 q 516 897 488 849 q 564 981 544 944 q 600 1029 583 1015 q 640 1043 616 1043 q 680 1026 664 1043 q 696 990 696 1010 m 444 989 q 435 950 444 966 q 404 913 427 935 q 338 854 381 894 q 224 753 295 814 l 199 772 q 274 904 250 859 q 314 981 298 949 q 347 1029 331 1015 q 389 1043 363 1043 q 428 1026 412 1043 q 444 989 444 1009 z "},"":{"ha":836,"x_min":18,"x_max":823,"o":"m 823 300 l 791 0 l 18 0 l 18 24 l 624 909 l 402 909 q 337 907 363 909 q 290 902 311 906 q 189 828 245 893 q 104 690 133 763 l 57 690 l 86 962 l 807 962 l 807 939 l 201 54 l 430 54 q 553 62 488 54 q 637 90 618 70 q 720 193 682 132 q 776 300 758 254 l 823 300 m 574 1136 q 482 1091 545 1121 q 340 1022 419 1061 l 319 1048 q 419 1146 380 1107 q 496 1224 458 1184 q 536 1257 518 1247 q 574 1267 554 1267 q 618 1251 600 1267 q 637 1213 637 1236 q 619 1166 637 1183 q 574 1136 602 1149 z "},"":{"ha":616,"x_min":37,"x_max":578,"o":"m 578 0 l 37 0 l 37 36 l 416 614 l 322 614 q 230 612 263 614 q 169 598 197 610 q 133 555 150 591 q 104 463 117 520 l 63 463 l 63 669 l 574 669 l 574 641 l 190 55 q 243 54 214 54 q 307 54 273 54 q 363 54 334 54 q 439 58 393 55 q 480 76 466 59 q 501 115 494 93 q 519 169 509 134 q 538 236 530 203 l 578 236 l 578 0 m 495 990 q 483 948 495 964 q 448 913 471 932 q 360 844 414 886 q 242 753 305 802 l 216 774 q 301 902 277 865 q 353 983 326 939 q 394 1030 374 1018 q 439 1043 414 1043 q 479 1026 464 1043 q 495 990 495 1010 z "},"":{"ha":836,"x_min":18,"x_max":823,"o":"m 823 300 l 791 0 l 18 0 l 18 24 l 624 909 l 402 909 q 337 907 363 909 q 290 902 311 906 q 189 828 245 893 q 104 690 133 763 l 57 690 l 86 962 l 807 962 l 807 939 l 201 54 l 430 54 q 553 62 488 54 q 637 90 618 70 q 720 193 682 132 q 776 300 758 254 l 823 300 m 519 1179 q 493 1112 519 1140 q 431 1084 468 1084 q 371 1110 396 1084 q 345 1173 345 1137 q 371 1237 345 1210 q 431 1264 396 1264 q 494 1239 469 1264 q 519 1179 519 1213 z "},"":{"ha":616,"x_min":37,"x_max":578,"o":"m 578 0 l 37 0 l 37 36 l 416 614 l 322 614 q 230 612 263 614 q 169 598 197 610 q 133 555 150 591 q 104 463 117 520 l 63 463 l 63 669 l 574 669 l 574 641 l 190 55 q 243 54 214 54 q 307 54 273 54 q 363 54 334 54 q 439 58 393 55 q 480 76 466 59 q 501 115 494 93 q 519 169 509 134 q 538 236 530 203 l 578 236 l 578 0 m 403 941 q 377 874 403 902 q 315 846 352 846 q 255 872 280 846 q 229 935 229 899 q 255 999 229 972 q 315 1026 280 1026 q 378 1001 353 1026 q 403 941 403 975 z "},"":{"ha":810,"x_min":58,"x_max":800,"o":"m 800 693 l 749 693 q 730 749 742 720 q 696 817 719 779 q 651 876 674 852 q 599 903 629 899 q 542 907 576 906 q 478 909 509 909 l 340 909 l 340 137 q 351 97 340 114 q 383 68 361 79 q 432 56 397 62 q 490 48 468 49 l 490 0 l 58 0 l 58 48 q 113 53 79 50 q 157 60 146 56 q 186 86 177 69 q 195 128 195 104 l 195 823 q 188 862 195 845 q 157 890 180 880 q 107 906 138 899 q 58 914 77 913 l 58 962 l 800 962 l 800 693 z "},"":{"ha":1034,"x_min":54,"x_max":979,"o":"m 844 848 q 943 688 907 782 q 979 480 979 594 q 943 272 979 366 q 841 113 906 178 q 694 12 778 47 q 517 -23 611 -23 q 331 15 416 -23 q 185 119 246 52 q 89 279 124 185 q 54 480 54 373 q 91 689 54 597 q 192 848 127 781 q 340 950 256 915 q 517 985 425 985 q 697 949 612 985 q 844 848 782 913 m 744 165 q 800 305 782 227 q 817 480 817 383 q 798 662 817 578 q 740 803 778 746 q 646 893 702 861 q 517 925 590 925 q 378 888 435 925 q 285 788 321 850 q 233 648 250 728 q 216 480 216 568 q 235 301 216 380 q 290 164 254 221 q 384 71 328 104 q 517 37 439 37 q 650 72 592 37 q 744 165 708 106 m 709 326 l 665 326 q 652 375 659 355 q 637 408 646 395 q 601 425 629 420 q 517 429 572 429 q 425 424 446 429 q 397 408 404 419 q 380 372 386 393 q 369 326 374 351 l 324 326 l 324 635 l 369 635 q 380 589 374 608 q 397 554 387 570 q 428 537 404 542 q 517 533 451 533 q 604 537 578 533 q 637 554 629 542 q 655 593 649 573 q 665 635 661 612 l 709 635 l 709 326 z "},"":{"ha":1065,"x_min":45,"x_max":1019,"o":"m 249 313 q 338 229 283 255 q 462 203 392 203 l 462 768 l 433 768 q 327 743 372 768 q 254 674 283 719 q 218 586 229 635 q 206 485 206 536 q 213 407 206 450 q 249 313 219 365 m 815 313 q 850 405 842 359 q 859 485 859 452 q 847 582 859 528 q 811 674 836 635 q 741 741 785 715 q 631 768 697 768 l 603 768 l 603 203 q 731 233 677 203 q 815 313 785 262 m 899 238 q 767 172 843 195 q 602 149 692 149 l 602 118 q 610 79 602 94 q 642 54 618 63 q 685 45 654 49 q 741 41 715 41 l 741 -7 l 333 -7 l 333 41 q 380 45 349 42 q 423 54 411 48 q 453 78 444 62 q 463 118 463 94 l 463 149 q 297 171 373 149 q 164 238 220 193 q 77 349 109 283 q 45 501 45 414 q 68 624 45 568 q 142 726 91 680 q 271 796 192 770 q 456 821 349 821 l 463 821 l 463 840 q 455 878 463 862 q 423 903 447 893 q 377 918 404 912 q 332 924 351 923 l 332 972 l 733 972 l 733 924 q 688 921 713 924 q 642 911 662 918 q 611 886 619 903 q 602 846 602 869 l 602 821 l 609 821 q 793 796 715 821 q 922 726 871 771 q 996 624 972 682 q 1019 501 1019 566 q 986 349 1019 416 q 899 238 954 281 z "},"":{"ha":830,"x_min":49,"x_max":833,"o":"m 833 13 q 761 -7 799 1 q 701 -14 723 -14 q 615 19 644 -14 q 574 136 586 52 q 531 76 557 107 q 478 26 506 45 q 414 -8 446 4 q 335 -20 381 -20 q 227 5 279 -20 q 135 77 175 31 q 72 190 95 124 q 49 335 49 256 q 73 473 49 408 q 142 587 98 538 q 242 661 184 634 q 362 687 300 687 q 499 648 443 687 q 582 539 555 609 l 599 669 l 725 669 q 704 525 720 621 q 667 316 688 429 q 690 150 669 216 q 743 64 711 83 q 782 57 753 58 q 833 56 810 56 l 833 13 m 562 355 q 546 455 557 404 q 513 545 535 506 q 459 610 492 585 q 376 635 425 635 q 243 553 296 635 q 191 327 191 471 q 202 223 191 272 q 235 138 214 174 q 293 76 257 100 q 380 53 330 53 q 509 127 463 53 q 562 355 555 201 z "},"":{"ha":749,"x_min":47,"x_max":701,"o":"m 701 327 q 676 190 701 254 q 610 81 652 125 q 508 6 566 33 q 374 -20 450 -20 q 241 6 302 -20 q 137 79 180 33 q 71 188 94 125 q 47 323 47 251 q 70 451 47 397 q 132 549 92 506 q 224 617 170 591 q 338 652 278 643 l 338 656 q 164 747 218 700 q 110 869 110 795 q 125 931 110 899 q 175 990 140 962 q 264 1034 208 1017 q 396 1051 319 1051 q 583 1010 513 1051 q 652 901 652 968 q 636 839 652 863 q 583 815 620 815 q 522 834 543 815 q 502 878 502 853 q 508 931 502 906 q 517 972 515 957 q 474 991 505 983 q 398 1000 444 1000 q 289 963 333 1000 q 244 876 244 926 q 290 783 244 821 q 459 678 336 745 q 578 601 530 640 q 653 519 626 562 q 690 431 680 477 q 701 327 701 385 m 559 321 q 517 513 559 440 q 387 612 474 585 q 244 535 300 612 q 189 321 189 457 q 200 210 189 262 q 235 118 212 159 q 293 55 258 79 q 373 31 328 31 q 455 54 419 31 q 514 118 490 77 q 548 211 537 159 q 559 321 559 262 z "},"":{"ha":650,"x_min":57,"x_max":637,"o":"m 637 171 q 515 28 591 75 q 345 -20 439 -20 q 239 -8 290 -20 q 146 28 188 3 q 81 90 106 52 q 57 178 57 128 q 75 255 57 224 q 121 309 92 287 q 182 339 149 330 q 249 351 216 349 l 249 357 q 164 384 198 366 q 112 422 130 401 q 87 468 94 444 q 80 515 80 492 q 92 569 80 541 q 138 626 104 597 q 222 670 169 652 q 348 687 275 687 q 530 645 465 687 q 594 530 594 602 q 579 472 594 498 q 527 447 564 447 q 466 466 487 447 q 444 510 444 486 q 449 558 444 535 q 458 606 454 581 q 413 627 444 618 q 349 635 382 635 q 252 600 288 635 q 217 516 217 564 q 250 412 217 444 q 361 380 283 380 l 418 380 l 418 317 l 345 317 q 270 306 299 317 q 224 276 241 294 q 202 234 208 258 q 196 187 196 211 q 243 85 196 119 q 363 50 290 50 q 493 85 439 50 q 590 200 547 121 l 637 171 z "},"":{"ha":795,"x_min":47,"x_max":781,"o":"m 515 122 q 550 219 539 168 q 560 337 560 271 q 550 446 560 389 q 521 540 541 503 q 465 605 498 581 q 376 628 431 628 q 285 602 321 628 q 227 534 249 576 q 197 446 207 496 q 188 340 188 395 q 198 224 188 281 q 232 124 209 168 q 290 56 255 81 q 376 31 325 31 q 458 56 423 31 q 515 122 494 81 m 513 668 l 781 668 l 781 585 l 587 585 l 587 582 q 672 472 643 536 q 701 332 701 409 q 679 199 701 264 q 614 87 656 135 q 511 8 571 37 q 368 -20 450 -20 q 246 4 304 -20 q 144 74 189 28 q 74 185 100 119 q 47 332 47 250 q 71 476 47 413 q 137 589 94 540 q 241 661 179 635 q 378 688 304 688 q 447 683 416 688 q 513 668 477 678 z "},"":{"ha":626,"x_min":26,"x_max":612,"o":"m 612 585 l 382 585 l 382 226 q 384 155 382 184 q 395 106 385 127 q 424 76 405 86 q 481 66 442 66 q 529 70 500 66 q 571 79 558 74 l 571 29 q 491 -2 527 11 q 398 -14 455 -14 q 287 28 319 -14 q 255 148 255 70 l 255 585 l 194 585 q 136 573 158 585 q 100 542 115 561 q 82 502 89 525 q 73 448 76 478 l 31 448 q 27 487 29 464 q 26 528 26 509 q 35 576 26 552 q 64 621 43 600 q 112 655 82 642 q 180 668 141 668 l 612 668 l 612 585 z "},"":{"ha":966,"x_min":47,"x_max":919,"o":"m 818 608 q 891 506 863 567 q 919 356 919 446 q 887 197 919 267 q 802 81 854 127 q 682 8 749 34 q 545 -20 614 -18 l 545 -301 l 419 -301 l 419 -20 q 148 84 249 -12 q 47 332 47 180 q 119 557 47 467 q 334 683 191 648 l 345 628 q 229 529 268 601 q 189 332 189 458 q 251 117 189 199 q 419 33 313 35 l 419 524 q 437 599 419 568 q 484 650 454 630 q 548 678 509 669 q 619 687 587 687 q 723 667 671 687 q 818 608 776 647 m 777 361 q 733 562 777 489 q 623 635 690 635 q 568 613 591 635 q 545 555 545 592 l 545 33 q 719 130 661 41 q 777 361 777 220 z "},"":{"ha":893,"x_min":-3,"x_max":897,"o":"m 897 -151 l -3 -151 l -3 -82 l 897 -82 l 897 -151 m 897 -301 l -3 -301 l -3 -233 l 897 -233 l 897 -301 z "}}}
